<?xml version="1.0" encoding="utf-8"?>
<!-- Generator: Adobe Illustrator 19.0.1, SVG Export Plug-In . SVG Version: 6.00 Build 0)  -->
<svg version="1.1" id="Contact_x5F_Us" xmlns="http://www.w3.org/2000/svg" xmlns:xlink="http://www.w3.org/1999/xlink" x="0px"
	 y="0px" viewBox="0 0 128 128" style="enable-background:new 0 0 128 128;" xml:space="preserve">
<style type="text/css">
	.st0{display:none;}
	.st1{display:none;fill:#231F20;}
	.st2{display:inline;}
	.st3{display:inline;fill:#231F20;}
</style>
<g id="row3">
	<path id="icon:5_1_" class="st0" d="M27,23.2c-6.9,0-12.5-4.3-12.5-9.5c0-5.3,5.6-9.5,12.5-9.5h77.6V0H27C17.4,0,9.7,6.1,9.7,13.7
		c0,1.4,0,104.7,0,104.7c0,5.2,5.1,9.4,10.2,9.4h84.7V23.2L27,23.2z M54.6,43.4L61,62.1l-6.3,2.1l-6.3-18.7L54.6,43.4z M70.7,107.4
		c-9.1-0.3-17.2-13.5-17.2-13.5S44.1,80,41.4,64C38.8,48,47,45.9,47,45.9l6.3,18.8l-3.8,1.2c0,0,1.4,6.1,3.9,12.7
		c2.5,6.5,7.3,12,7.3,12l3.1-1.7l9.7,17.2L70.7,107.4z M74.5,105.4L65,88.1l5.8-3.2l9.5,17.3L74.5,105.4z M117.3,71.5H109V47.9h8.4
		c0.6,0,1,0.4,1,1v21.6C118.3,71,117.9,71.5,117.3,71.5z M117.3,99.7H109V76.2h8.4c0.6,0,1,0.4,1,1v21.6
		C118.3,99.3,117.9,99.7,117.3,99.7z M117.3,128H109v-23.6h8.4c0.6,0,1,0.4,1,1V127C118.3,127.6,117.9,128,117.3,128z"/>
	<path id="icon:4_2_" class="st0" d="M0,59.9L21.4,74l12,35.9l18.8-17.6l19.7,14.6L128,18.1L0,59.9z M36.6,97.5L29,75l91.9-50.6
		L36.6,97.5z"/>
	<path id="icon:3_2_" class="st0" d="M74.9,35.9c18.8,9.1-12.5,60.9-10,67.7c2.6,6.8,10.4-4.1,16.6-9.8c4.5-4.1,7.1,1.4,2.4,10.4
		c-5.5,10.7-26.9,30.5-40.1,21.6c-22.4-14.9,17.1-66.7,13.7-72.9c-3.9-7-19.6,17.4-25,12.8S56.1,26.8,74.9,35.9z M82.3,27.9
		c7.7,0,13.9-6.2,13.9-13.9S90,0,82.3,0S68.3,6.2,68.3,13.9S74.6,27.9,82.3,27.9z"/>
	<path id="icon:2_2_" class="st1" d="M0,9.1v109.8h128V9.1H0z M121.9,112.8H6.1V32.5h115.7V112.8z M111.6,57.1H15.3V40.7h96.3V57.1z
		 M19.4,53h88.1v-8.2H19.4V53z M111.6,94H15.3V65.3h96.3V94z M19.4,90.1h88.1V69.3H19.4V90.1z M78.8,100.2v8.2h30.7v-8.2H78.8z"/>
	<path id="icon:1_2_" class="st1" d="M39.4,37.5C17.6,37.5,0,55.1,0,76.8c0,9.9,3.7,19,9.7,25.9l-4.3,23l18.7-12.6
		c4.7,2,9.8,3,15.3,3c21.7,0,39.3-17.6,39.3-39.4C78.7,55.1,61.1,37.5,39.4,37.5z M21.9,82.4c-3.7,0-6.7-3-6.7-6.7s3-6.7,6.7-6.7
		s6.7,3,6.7,6.7S25.6,82.4,21.9,82.4z M39,82.4c-3.7,0-6.7-3-6.7-6.7s3-6.7,6.7-6.7s6.7,3,6.7,6.7S42.7,82.4,39,82.4z M56.2,82.4
		c-3.7,0-6.7-3-6.7-6.7s3-6.7,6.7-6.7c3.7,0,6.7,3,6.7,6.7S59.8,82.4,56.2,82.4z M116,83l5.3,28.5L98.2,95.8
		c-5.8,2.4-12.2,3.8-18.9,3.8c-1.5,0-2.9-0.1-4.4-0.2c4.2-6.5,6.6-14.3,6.6-22.6c0-23.3-18.9-42.2-42.2-42.2c-2.1,0-4.1,0.2-6.1,0.4
		C39.9,16,58,2.2,79.3,2.2C106.2,2.2,128,24,128,50.9C128,63.2,123.5,74.4,116,83z"/>
</g>
<g id="row2">
	<path id="icon:5_2_" class="st1" d="M128,87.4H53.9V40.6H128V87.4z M57.7,83.6h66.4V46.3L90.9,70.9L57.7,46.3V83.6z M61.6,44.4
		l29.3,21.7l29.3-21.7H61.6z M46.3,79.3H0v-3.8h46.3V79.3z M46.3,67.5H10.7v-3.8h35.6V67.5z M46.3,56.5H22.6v-3.8h23.7V56.5z"/>
	<path id="icon:4_1_" class="st0" d="M8.9,97.5l19.7,19.7L0,126.1L8.9,97.5z M124.2,16.3c0-3.7-1.4-7.4-4.2-10.2
		c-5.6-5.6-14.7-5.6-20.3,0l-9.4,9.4l20.3,20.3l9.4-9.4C122.8,23.6,124.2,20,124.2,16.3z M12,93.7l20.3,20.3L105.4,41L85.1,20.7
		L12,93.7z M128,40.1l-5.2-5.2L83.8,74l5.2,5.2L128,40.1z"/>
	<path id="icon:3" d="M121,31.9c3.8,6.5,5.7,13.8,5.7,21.7c0,8.4-2.1,17.1-6.3,26.2c-3,6.5-8,11.8-14.9,15.9
		c-6,3.5-11.9,5.3-17.8,5.3c-1.8,0-3.5-0.2-4.9-0.6c-4.3-1.2-6.2-4.6-5.7-10.4c-5.2,5.4-11.9,8-20,8c-7.8,0-14.2-2.9-19-8.6
		c-4.6-5.3-6.9-12.1-6.9-20.2c0-2.3,0.2-4.8,0.6-7.2c1.6-8.7,5.2-15.7,11-20.9c4.8-4.4,10.4-7,16.6-7.6c5.1-0.5,10.1,0.5,15,3.1
		c4.9,2.6,8.1,6.4,9.7,11.4L86.5,35h13.3l-8.4,46.8C91,84,91.1,86,91.8,87.7c0.9,2.1,2.4,3.1,4.5,3.1c4.1,0,8.4-2.5,12.8-7.6
		c6.5-7.4,9.7-16.5,9.7-27.2c0-6.3-1.4-12.1-4.3-17.6c-4.8-9.3-11.6-16.6-20.4-21.9c-8.8-5.3-18.4-8-28.8-8
		C50,8.4,37,13.8,26.2,24.7C15.4,35.5,10,48.6,10,64c0,15.4,5.4,28.5,16.2,39.3c10.8,10.8,23.9,16.2,39.1,16.2
		c14.9,0,27.3-3.7,37.2-11.2l6.8,5.5c-11.6,9.4-26.3,14.1-44,14.1c-17.6,0-32.7-6.3-45.2-18.8C7.6,96.7,1.4,81.6,1.4,64
		c0-17.9,6.3-33,18.8-45.4S47.8,0,65.4,0C77,0,87.7,2.7,97.7,8c10.4,5.7,18.1,13.4,22.9,23.1C120.6,31.3,120.7,31.5,121,31.9z
		 M81,68.1c0.3-1.7,0.4-3.3,0.4-4.7c0-5.5-1.2-9.7-3.7-12.5c-3.2-3.9-7.6-5.9-13-5.9c-4.5,0-8.6,1.5-12.1,4.5
		c-4,3.5-6.5,8.4-7.4,14.5c-0.3,1.6-0.4,3.1-0.4,4.5c0,5,1.4,9.1,4.3,12.5c3.4,3.9,7.7,5.9,13,5.9c4.8,0,8.9-1.7,12.4-5.1
		C77.9,78.4,80.1,73.9,81,68.1z"/>
	<path id="icon:2_1_" class="st0" d="M126.5,26.2c-0.9-1.9-2.1-3.7-3.6-5.2c-1.7-1.7-2.3-2-6.1-3.9c-2.9-1.5-70.6,6.5-72.7,6.5
		c-0.3,0-0.6,0-0.9,0C33,24.1,25,32.5,25,42.8v40c-3.9,1.4-8.7,3-13.2,4.6c-10.5,3.7-17.7,12.5-5,20.7c5.2,3.3,11.7,3.6,19.1,2.1
		c9.7-3.5,37.5-14.1,37.5-14.1l15.6-5V104l5.5,3l10.8-5V85.8L128,75.3v-42C128,30.8,127.5,28.4,126.5,26.2z M59.5,94.1L28.8,81.5
		V42.8c0-8.2,6.4-14.9,14.6-15.3c0.2,0,0.5,0,0.7,0c4.1,0,7.9,1.6,10.9,4.5c2.9,2.9,4.5,6.8,4.5,10.8V94.1z"/>
	<path id="icon:1_1_" class="st0" d="M64,0C28.7,0,0,28.7,0,64c0,35.3,28.7,64,64,64s64-28.7,64-64C128,28.7,99.3,0,64,0z
		 M66.8,118.7v-13.8h-5.6v13.8C33,117.2,10.4,94.4,9.3,66.2h13.2v-5.6H9.4c1.7-27.7,24.1-49.9,51.8-51.3v12.6h5.6V9.3
		c27.8,1.4,50.1,23.6,51.8,51.3h-13.2v5.6h13.2C117.6,94.4,95,117.2,66.8,118.7z M34.4,76.1c1.2-2.8,4-5.8,8.3-8.9
		c3.8-2.7,6.3-4.7,7.4-5.9c1.7-1.8,2.6-3.8,2.6-6c0-1.8-0.5-3.3-1.5-4.4c-1-1.2-2.4-1.8-4.2-1.8c-2.5,0-4.2,0.9-5.1,2.8
		c-0.5,1.1-0.8,2.8-0.9,5.2h-8c0.1-3.6,0.8-6.5,1.9-8.7c2.2-4.2,6.1-6.3,11.8-6.3c4.4,0,8,1.2,10.6,3.7c2.6,2.5,3.9,5.7,3.9,9.8
		c0,3.1-0.9,5.9-2.8,8.3c-1.2,1.6-3.2,3.4-6,5.4l-3.3,2.3c-2.1,1.5-3.5,2.5-4.3,3.2c-0.8,0.7-1.4,1.4-1.9,2.3h18.3v7.3H32.5
		C32.5,81.4,33.2,78.6,34.4,76.1z M94.7,75.4h-4.8v9h-8.1v-9H65.2v-7.2l15.4-25.5h9.3v26.3h4.8V75.4z M81.8,68.9V50.8L71.3,68.9
		H81.8z"/>
</g>
<g id="row1" class="st0">
	<path id="icon:5" class="st2" d="M49.4,42.6l-7.6,2.3c0,0,2.8,12.2,7.8,25.3S64,94.2,64,94.2l6.2-3.4l19.3,34.3l-5.3,2.8
		c-18.2-0.7-34.3-27.1-34.3-27.1S31,73.2,25.7,41.2S36.8,5.1,36.8,5.1L49.4,42.6z M52,0L39.5,4.2l12.6,37.4l12.6-4.2L52,0z M84.3,83
		l-11.6,6.4L91.8,124l11.6-6.4L84.3,83z"/>
	<path id="icon:4" class="st3" d="M95.4,0H32.6c-4.4,0-7.9,3.5-7.9,7.9v110.2c0,5.5,4.4,9.9,9.9,9.9h58.8c5.5,0,9.9-4.4,9.9-9.9V7.9
		C103.3,3.5,99.7,0,95.4,0z M35.3,11.4h57.9v60.3H35.3V11.4z M50.9,114.7H33.1v-7.9h17.8V114.7z M50.9,102.8H33.1v-7.9h17.8V102.8z
		 M50.9,90.9H33.1V83h17.8V90.9z M73.2,114.7H55.3v-7.9h17.8V114.7z M73.2,102.8H55.3v-7.9h17.8V102.8z M73.2,90.9H55.3V83h17.8
		V90.9z M94.9,114.7H77.1v-7.9h17.8V114.7z M94.9,102.8H77.1v-7.9h17.8V102.8z M94.9,90.9H77.1V83h17.8V90.9z"/>
	<path id="icon:3_1_" class="st2" d="M88,54.3V40.8H76.3v14.4H53.5V40.8H41.8V54L12.9,87.9h101.7L88,54.3z M64.1,81.3
		c-9.2,0-16.6-4.2-16.6-9.4c0-5.2,7.4-9.4,16.6-9.4s16.6,4.2,16.6,9.4C80.8,77.1,73.3,81.3,64.1,81.3z M116.9,92.7v17.7H10.8V92.7
		H116.9z M37.6,42.5H0v-12c0-4,23.6-13,64-13s64,9,64,13v12H92.2v-2.4c0-2.7-2.2-4.8-4.8-4.8c0,0-8.6-1.9-23.7-1.9
		s-21.3,1.9-21.3,1.9c-2.7,0-4.8,2.2-4.8,4.8V42.5z M37.6,51.9H0v-7.2h37.6V51.9z M128,52.2H92.2v-7.2H128V52.2z"/>
	<path id="icon:2" class="st3" d="M126.2,45.3v30.4c0,2.9-1.8,5.4-4.4,6.5h0c-5.7,19.1-21.8,33.7-41.6,37.5c-0.8,4.8-5,8.4-10,8.4
		c-5.6,0-10.1-4.5-10.1-10.1c0-5.6,4.5-10.1,10.1-10.1c4.3,0,8,2.7,9.5,6.5c17.2-3.4,31.1-15.9,36.6-32.3c-2.4-1.1-4-3.5-4-6.3v-25
		c-0.7-11.2-5.3-21.4-12.4-29.2L96,24.5C88.1,14.7,76.4,9,63.8,9s-24.3,5.6-32.2,15.5l-3.8-3.1c-6.2,6.9-10.5,15.6-12,25.2v29
		c0,3.8-3.2,7-7,7c-3.8,0-7-3.1-7-7V45.3c0-3.8,3.2-7,7-7c1.2,0,2.2,0.3,3.2,0.8C18.4,16.5,39.2,0,63.8,0
		c24.6,0,45.5,16.6,51.8,39.3c1.1-0.6,2.3-1,3.6-1c1.9,0,3.7,0.8,5,2.1C125.4,41.6,126.2,43.4,126.2,45.3z"/>
	<path id="icon:1" class="st3" d="M44.6,63L0,103.3V24.6L44.6,63z M64,79.7L49.1,66.9L4.4,107.3h120.7L79.8,66.4L64,79.7z
		 M125.2,20.7H4.5L64,71.9L125.2,20.7z M84.4,62.6L128,102V26.1L84.4,62.6z"/>
</g>
</svg>
