<svg xmlns="http://www.w3.org/2000/svg" viewBox="0 0 32 32"><defs><style>.cls-1{fill:#231f20;}</style></defs><g id="basket_ball" data-name="basket ball"><path class="cls-1" d="M16,2h-.06A14,14,0,0,0,16,30h0A14,14,0,0,0,16,2ZM26.28,22.16a6.87,6.87,0,0,0-6.41-3.45c.05-.57.08-1.14.1-1.71h8A12,12,0,0,1,26.28,22.16ZM15.37,28A12,12,0,0,1,9,25.7a15.3,15.3,0,0,0,6.66-2.92c.26-.2.49-.4.72-.59a7.4,7.4,0,0,1,1.15-.87A29.28,29.28,0,0,1,15.37,28Zm2.32-8.92A7.19,7.19,0,0,0,15,20.67c-.2.18-.41.36-.65.55A14.39,14.39,0,0,1,7.06,24a11.92,11.92,0,0,1-3-7H18c0,.67-.06,1.34-.14,2ZM7.06,8a14.39,14.39,0,0,1,7.32,2.76c.24.19.45.37.65.55A7.19,7.19,0,0,0,17.69,13l.14,0c.08.67.12,1.34.14,2H4.05A11.92,11.92,0,0,1,7.06,8Zm8.31-4a29.28,29.28,0,0,1,2.12,6.65,7.4,7.4,0,0,1-1.15-.87c-.23-.19-.46-.39-.72-.59A15.3,15.3,0,0,0,9,6.3,12,12,0,0,1,15.37,4ZM20,15c0-.57,0-1.14-.1-1.71h.25a6.86,6.86,0,0,0,6.16-3.46A12,12,0,0,1,28,15Zm5-7a5,5,0,0,1-1.56,2.21,5.25,5.25,0,0,1-3.75,1.06,30.64,30.64,0,0,0-2-7.16A12,12,0,0,1,24.93,8ZM17.6,27.88a30.64,30.64,0,0,0,2-7.16,5.25,5.25,0,0,1,3.75,1.06A5,5,0,0,1,24.93,24,12,12,0,0,1,17.6,27.88Z"/></g></svg>