<svg xmlns="http://www.w3.org/2000/svg" viewBox="0 0 32 32"><defs><style>.cls-1{fill:#231f20;}</style></defs><g id="game"><path class="cls-1" d="M27.93,10.62c-.23-.54-.43-1-.55-1.24a4.86,4.86,0,0,0-1.84-2.22,5.16,5.16,0,0,0-4.12-.58c-.8.22-1.45.47-2,.69A8.4,8.4,0,0,1,16,8a8.4,8.4,0,0,1-3.39-.73,18.35,18.35,0,0,0-2.1-.7h0a5.13,5.13,0,0,0-4,.6A4.93,4.93,0,0,0,4.63,9.34c-.18.41-.37.83-.55,1.28-1.53,3.71-2.8,7.35-1.59,11C3.45,24.52,5,26,7,26h.11a4.32,4.32,0,0,0,3.74-1.95C11.63,23,12.49,22,16,22s4.37,1,5.2,2.05A4.32,4.32,0,0,0,24.93,26h.12c2,0,3.53-1.51,4.45-4.47C30.66,17.84,29.36,14.12,27.93,10.62ZM27.6,20.94c-.63,2-1.47,3-2.49,3.07H25a2.4,2.4,0,0,1-2.25-1.22C21.78,21.61,20.46,20,16,20s-5.78,1.61-6.75,2.78A2.4,2.4,0,0,1,7,24H6.89c-.43,0-1.55-.15-2.5-3s.16-6.26,1.53-9.61c.18-.42.35-.82.54-1.23A3,3,0,0,1,7.54,8.84a2.87,2.87,0,0,1,1.59-.45,3.27,3.27,0,0,1,.83.1h0a20,20,0,0,1,1.9.64A10.34,10.34,0,0,0,16,10a10.34,10.34,0,0,0,4.1-.86c.56-.21,1.14-.43,1.86-.63a3.18,3.18,0,0,1,2.5.33,3,3,0,0,1,1.1,1.35c.12.27.31.68.52,1.19C27.42,14.67,28.55,17.88,27.6,20.94Z"/><path class="cls-1" d="M12,14H11V13a1,1,0,0,0-2,0v1H8a1,1,0,0,0,0,2H9v1a1,1,0,0,0,2,0V16h1a1,1,0,0,0,0-2Z"/><path class="cls-1" d="M22,14a1,1,0,0,0,0-2h0a1,1,0,1,0,0,2Z"/><path class="cls-1" d="M24,14h0a1,1,0,1,0,1,1A1,1,0,0,0,24,14Z"/><path class="cls-1" d="M20,14h0a1,1,0,1,0,1,1A1,1,0,0,0,20,14Z"/><path class="cls-1" d="M22,16h0a1,1,0,1,0,1,1A1,1,0,0,0,22,16Z"/></g></svg>