<svg xmlns="http://www.w3.org/2000/svg" viewBox="0 0 32 32"><defs><style>.cls-1{fill:#231f20;}</style></defs><g id="karate"><path class="cls-1" d="M29.29,12.22l-6.88-6.4A3.05,3.05,0,0,0,20.32,5H11.78a3.09,3.09,0,0,0-2,.75l-7,6.11a1.74,1.74,0,0,0-.47,2L3.7,17.33a1.75,1.75,0,0,0,2.69.73l2.37-1.79L7.15,26a1.75,1.75,0,0,0,.38,1.39,1.72,1.72,0,0,0,1.31.6H23.17a1.7,1.7,0,0,0,1.3-.6A1.67,1.67,0,0,0,24.86,26l-1.48-9.62,2.21,1.8a1.76,1.76,0,0,0,1.53.34,1.73,1.73,0,0,0,1.19-1l1.41-3.33A1.77,1.77,0,0,0,29.29,12.22Zm-13.42-.34L12.65,7h6.76ZM5.43,16.28l-1.23-3,6.47-5.63,3.95,6L11.42,18h-.93l.65-3.89a1,1,0,0,0-.47-1,1,1,0,0,0-1.12.06ZM9.18,26l1-6h4.5l.05.05L12.66,22.3a1,1,0,0,0,.06,1.42,1,1,0,0,0,.68.26,1,1,0,0,0,.73-.32l1.92-2.09,1.89,2.1a1,1,0,0,0,.75.33,1,1,0,0,0,.67-.26,1,1,0,0,0,.07-1.41l-2-2.24.06-.07h4.44l.92,6ZM26.6,16.45l-4-3.23a1,1,0,0,0-1.62.93l.6,3.87H13.89L21.42,7.63l6.39,5.94Z"/></g></svg>