<?xml version="1.0" encoding="utf-8"?>
<!-- Generator: Adobe Illustrator 25.0.0, SVG Export Plug-In . SVG Version: 6.00 Build 0)  -->
<svg version="1.1" xmlns="http://www.w3.org/2000/svg" xmlns:xlink="http://www.w3.org/1999/xlink" x="0px" y="0px"
	 viewBox="0 0 800 800" style="enable-background:new 0 0 800 800;" xml:space="preserve">
<style type="text/css">
	.st0{fill:#FAD7A1;}
	.st1{fill:#4D101E;}
	.st2{fill:#BD8150;}
	.st3{fill:#D3A484;}
	.st4{fill:#9B6740;}
	.st5{fill:#D3A585;}
	.st6{fill:#F6C09C;}
	.st7{fill:#848BAF;}
	.st8{fill:#AAB0D9;}
	.st9{fill:#FCB216;}
	.st10{fill:#FFFFFF;}
	.st11{fill:#FFC866;}
	.st12{fill:#DB9F72;}
	.st13{fill:#E09717;}
	.st14{fill:#FFD9C0;}
	.st15{fill:#4B1420;}
</style>
<g id="BACKGROUND">
</g>
<g id="DESIGN">
	<g>
		<ellipse class="st0" cx="410.3" cy="688.7" rx="363.4" ry="35.9"/>
	</g>
	<g>
		<path class="st1" d="M776.7,257.8c-13.2-63-62.6-97.4-104.4-108.6c-39.9-10.7-95.4-30.7-104.4-39.5c-9.7-9.4-18.5-8-18.8-8
			l-1.9,0.3l1.4,1.4c0,0,2.3,2.3,4,8.8c0.3,1.3,0.8,2.6,1.2,3.7c-5.1-0.7-20.5-2.7-35.6-5.1c-15.6-2.5-18.6,1-21.3,8.8
			c-1.9,1.2-13.2,8.2-18.4,10.6c-7.3,3.4-9.5,9-6.6,16.6c1.3,3.3,2.9,7.1,4.3,10.5c2,4.9,4,9.5,4.2,10.7c0,0.1,0,0.1,0.1,0.2
			c-1.8,0.3-5.3,0.8-9.9,0.3c-6.9-0.7-13.9,0.5-16.5,2.1l-2.4,1.5l2.8,0.4c0.1,0,6.1,0.8,9.7,3.5c-2.5,0.2-6.5,1.3-10.9,4.9
			c-3.2-4.9-9.6-10.2-22.2-13.8c-25.4-7.3-47.7,5-55.4,30.6c-6.9,22.8,4.7,47.8,19.8,56.7c5.9,3.5,11.8,4.8,16.9,4.8
			c1.2,0,2.2-0.1,3.3-0.2c-1.3,3.7-4.1,13.5-4.1,25.4v4.2l1.9-3.7c0-0.1,4-7.8,9.1-13c-2.5,6.7-5.6,21.2,1.9,43.5l1.5,4.6l0.4-4.8
			c0-0.1,0.8-8.5,3.1-14.1c0.8,4.2,3.1,12.6,9,23c-4.8,1.1-21.5,5.2-41.5,15.9c-21.7,11.6-51.7,33.5-71.5,71.7l-0.1,0.2
			c0,0.1-0.7,3.1,2.1,5.8c-2.6,2.5-11.8,10.7-23.1,11.6l-4.4,0.4l4.1,1.6c0.3,0.1,7.2,2.7,15.2,1.4c-2.7,3.6-8.8,11.1-15.1,12.6
			c-9.3,2.2-11.4,6.8-11.5,7l-0.9,1.9l2-0.5c2-0.5,7.3-1.5,10.6-0.6c-1.7,2-5.8,6.3-9.8,7.4c-6.1,1.7-6.9,8.4-7,8.6l-0.1,1.4
			l1.4-0.4c0.1,0,6.3-1.6,11.3-0.9c-3,1-7.8,2.8-12.6,5.3c-6.1-4.9-14.6-13.1-21.3-25.5c-15.3-28.1-14.9-63.4,1.3-104.8
			c41.9-107.1,48.1-158.2,23.9-194.9c-12.7-19.3-45-37.5-82.2-35c-20.2,1.4-39.2,8.6-56.5,21.6c-19.6,14.7-36.5,36.7-50.2,65.1
			c-1.3,2.7-1.4,5.6-0.5,8.4c1,2.8,3,5,5.6,6.3c2.7,1.3,5.6,1.4,8.4,0.5c2.8-1,5-3,6.3-5.6c28.1-58.4,63.6-72.6,88.4-74.3
			c30.3-2,54.7,13.5,62.4,25.2c16.4,24.9,17.7,62.8-26.1,174.9c-23.5,60.2-12.7,100.9,0.5,124.4c8.4,15,18.7,25,26.2,31
			c-2.4,2.5-4.5,5.3-6.1,8.3l-1.5,3l2.9-1.6c1.1-0.6,3.3-1.8,5.5-2.7c-3,2.6-7.3,6.7-12.3,13.1H65.1c-0.2,0-0.5,0.1-0.6,0.2
			l-8.1,6.6c0,0,0,0,0,0c-0.1,0-0.1,0.1-0.2,0.2c0,0,0,0,0,0.1c0,0,0,0,0,0.1c0,0.1-0.1,0.2-0.1,0.3c0,0,0,0,0,0c0,0.1,0,0.2,0,0.3
			c0,0,0,0,0,0.1c0,0,0,0,0,0l60.5,160.5v12.5h305.1V689c0.9-0.1,1.6-0.3,2.3-0.5c3.5-1,5.9-2.7,7.2-5.1c1.6-2.9,0.9-5.8,0.8-6.4
			c0-0.1,0-0.4-0.1-0.7c3.3,3.8,10,8.3,22.8,8.1c6.6-0.1,9.8-0.8,12.1-1.4c2.6-0.6,4.2-1,8.9-0.2c0.9,0.2,1.9,0.3,3,0.5
			c6.2,1.1,13.9,2.4,20,2.4c2.6,0,4.9-0.2,6.7-0.8c1.4,1.6,3.4,2.8,6.2,3.6c2.6,0.7,6.1,1,10.4,1c4.4,0,9.8-0.3,15.9-0.6
			c10.4-0.5,23.3-1.2,37.7-0.8c29.3,0.8,50.7,0.8,55.1,0.6c1.6-0.1,3.1-0.7,4.3-1.7c1.5-0.4,9.1-2.5,9.5-10.6
			c0.1-2.9-0.7-5.2-2.5-6.9c-3.3-3-9.2-2.9-13.6-2.3c-7.3,1-24.2,0.6-35.1-2.5c-6.6-1.9-11.7-2.3-14.8-2.4c3.4-2.1,7.6-4.6,12.5-7.4
			c23.1-13.4,61.8-35.8,79.4-67.9c19.3-35.4,13.6-61.9,10.7-70.8c3.4,3,6.3,7.7,6.3,7.8l2.4,4l-0.5-4.6
			c-2.4-19.9-11.1-27.4-16.9-30.2c4,0.4,8,1.8,8.1,1.8l2.9,1l-1.8-2.5c-9.2-13.2-25.7-15.9-31.6-16.4c3.9-4,8-6.3,8.1-6.4l3-1.7
			l-3.4-0.2c-26.2-1.2-47.3-1.2-71.3,8c-0.5-7.8-3.4-59.8,8.1-76.6c12.1-17.6,63.3-46.4,81.6-54.9c14.9-6.9,22.6-13.3,22.9-18.9
			c0-0.4,0-0.8,0.1-1.2c0.1-1,0.1-2.1,0.1-3.4c3.1-3.2,11.8-9.4,21.8-16.5c6.9-5,14.8-10.5,22.5-16.4c15-11.3,18.8-18.8,19.8-22
			c3.3,2.9,3.6,8.6,3.7,8.7l0.3,4.9l1.7-4.6c3.8-10.7,2.1-19,0.6-23.4c3.4,2.8,5.7,6,5.7,6l2.8,4.1L776.7,257.8z M657,257
			c-0.9-0.3-1.6-0.5-2.3-0.7c-5.5-1.1-9.3,2-18.6,9.4c-3.6,2.9-8.1,6.4-13.8,10.7c-17.2,12.9-38.6,20.4-44.7,22.4
			c3.7-14.3,2.9-24.2,1.9-29.3c2.1,3.2,3,7.6,3,7.7l1.2,5.4l0.8-5.5c1-6.8,1.5-13.2,1.7-19c4.3-1,11.1-6.1,16.1-15.2
			c4-7.1,9.5-22,2.4-41.1c-11.6-31.5-41.5-26.3-47.5-24.9c-5.4-5.3-11.9-10.1-19.3-12.9l-2.5-1l1.3,2.4c0,0,1.3,2.4,2,5.1
			c-4.4-3-15.5-9.9-25.7-11.8c-2.2-2.7-4.6-7.2-5.2-8.3c0.1-0.9,0.2-1.8,0.3-2.8c0.6-0.3,1.8-1,3-2c0.6,0.4,1.4,0.9,2.7,1.5
			c0.8,2,5.1,7.4,28.8,8.7c-1.4,2.4-2.1,4.4-2.1,4.5l-0.6,1.7l1.7-0.4c0.1,0,7.3-1.4,24.5,2c18,3.6,46.2,14.4,67,25.8
			c9.4,5.1,17.9,12.1,26.1,18.8c10.4,8.5,20.2,16.6,31.4,21c-1.8,1.2-3.7,2.7-5.4,4.3C670.4,247.2,658.7,255.8,657,257z
			 M298.9,597.4c0.2,1.7,0.1,3.3,0.1,3.3l-0.1,3.1l1.9-2.5c2.2-2.8,3.9-6.5,4.8-8.8c4.1,7.8,9.5,16.9,16.8,27
			c20.7,28.9,36.1,38.1,41.3,40.5c-0.2,0.9-0.6,1.5-1.1,1.9c-0.9,0.6-1.9,0.4-1.9,0.4c-0.3,0-7-0.9-18.4,2.3
			c-6,1.7-14.4,2.7-23.1,2.9l-22.7-66.5C297.5,599.7,298.3,598.5,298.9,597.4z M378.3,483.9c2.1-3.8,6.6-9.4,7.9-10.9
			c0.9,0,2.5-0.1,3.8-1.2v0c0.3-0.2,0.6-0.5,0.9-0.9c1.5-1.6,4.9-5.2,8.6-9.4c3.7-4.2,7.8-9,10.9-13.2c1.1,27.6,1.1,59.2,1.1,73.1
			c-4.8-8.1-9.3-14.5-12.7-18c-1.4-1.4-2.8-2.9-4.3-4.5C389.9,494.2,384.8,488.8,378.3,483.9z"/>
		<path class="st1" d="M421.6,694.3H116.5c-1.1,0-2-0.9-2-2v-12.1L54.1,520.1c0-0.1-0.1-0.2-0.1-0.3c0,0,0,0,0,0c0,0,0-0.1,0-0.1
			c0-0.2-0.1-0.5-0.1-0.7c0,0,0,0,0,0c0,0,0,0,0,0c0-0.1,0-0.2,0-0.4c0.1-0.3,0.1-0.6,0.3-0.9l0,0c0,0,0-0.1,0-0.1c0,0,0-0.1,0-0.1
			c0.1-0.1,0.2-0.3,0.2-0.4c0.1-0.1,0.2-0.2,0.3-0.3c0,0,0,0,0,0c0-0.1,0.1-0.1,0.2-0.1l8.1-6.6c0.5-0.4,1.2-0.7,1.9-0.7h196.8
			c1.4-1.8,2.8-3.4,4.1-4.9c-0.2-0.1-0.4-0.2-0.6-0.4c-0.6-0.6-0.8-1.6-0.4-2.4l1.5-3c1.2-2.3,2.9-4.7,5-7.2
			c-7.3-6.1-17.1-16-25.1-30.3c-13.4-23.9-24.4-65.2-0.6-126.1c43.5-111.2,42.3-148.7,26.3-173c-7.4-11.3-31.1-26.2-60.6-24.3
			c-24.3,1.6-59,15.6-86.7,73.2c-1.5,3.1-4.1,5.5-7.4,6.6c-3.3,1.1-6.8,1-9.9-0.6c-3.1-1.5-5.5-4.2-6.6-7.4c-1.1-3.3-1-6.8,0.6-9.9
			c13.8-28.8,30.9-50.9,50.8-65.9c17.6-13.2,37-20.6,57.5-22c38-2.6,71,16.1,84,35.9c24.6,37.4,18.4,88.9-23.7,196.8
			c-16,40.8-16.4,75.5-1.4,103.1c5.4,10,12,17.2,17.5,22.1l0.1-1.3c0.3-3.1,2.5-8.7,8.4-10.4c1.7-0.5,3.8-1.8,6-3.8
			c-2.1,0.1-4.4,0.5-5.8,0.9l-2,0.5c-0.7,0.2-1.5,0-2-0.6c-0.5-0.6-0.6-1.4-0.3-2.1l0.9-1.9c0.3-0.6,2.8-5.7,12.9-8.1
			c4.1-1,8.2-4.9,11.1-8.3c-6.1,0-10.9-1.7-11.5-1.9l-4.1-1.6c-0.9-0.3-1.4-1.2-1.3-2.2c0.1-0.9,0.9-1.6,1.8-1.7l4.4-0.4
			c9.2-0.8,17-6.6,20.5-9.8c-1.9-2.8-1.5-5.5-1.3-6.1c0-0.1,0.1-0.2,0.1-0.3l0.1-0.2c0-0.1,0.1-0.1,0.1-0.2
			c20-38.7,50.3-60.9,72.3-72.6c17.4-9.3,32.5-13.7,39.4-15.5c-2.9-5.5-4.9-10.3-6.1-14.2c-0.7,3.4-1,6.4-1,6.9l-0.4,4.8
			c-0.1,0.9-0.8,1.7-1.8,1.8c-1,0.1-1.8-0.5-2.1-1.3l-1.5-4.6c-5.2-15.5-5.4-27.4-4.2-35.6c-1.9,2.9-3.1,5.3-3.2,5.3l-1.9,3.7
			c-0.4,0.8-1.3,1.3-2.2,1c-0.9-0.2-1.5-1-1.5-1.9v-4.2c0-9.9,1.9-18.4,3.3-23.2c-6.3,0.1-12.7-1.7-18.4-5.1
			c-15.8-9.3-27.9-35.3-20.7-59c8-26.7,31.3-39.5,57.9-31.9c10.1,2.9,17.5,7.2,22,12.9c1.7-1.2,3.2-2,4.7-2.6c-2.2-0.7-4.2-1-4.2-1
			l-2.8-0.4c-0.8-0.1-1.5-0.7-1.7-1.6c-0.2-0.8,0.2-1.7,0.9-2.1l2.4-1.5c3.3-2,11.1-3.1,17.7-2.4c2.8,0.3,5.2,0.2,7,0.1
			c-0.8-2-2.2-5.3-3.4-8.3l-0.2-0.5c-1.4-3.3-2.9-7-4.1-10.1c-3.4-8.6-0.8-15.2,7.6-19.1c4.8-2.2,14.8-8.4,17.6-10.1
			c3.1-8.5,7.5-11.9,23.3-9.4c9.3,1.5,20.2,3,32.4,4.6c-0.1-0.3-0.2-0.6-0.2-0.8c-1.5-5.6-3.3-7.8-3.5-7.9c0,0,0,0,0,0l-1.4-1.4
			c-0.5-0.5-0.7-1.3-0.5-2c0.2-0.7,0.8-1.2,1.6-1.4l1.9-0.3c1.1-0.2,10.4-1.4,20.6,8.5c8.5,8.4,64.1,28.4,103.5,39
			c42.4,11.3,92.5,46.2,105.8,110.1c0,0,0,0,0,0l1,4.8c0.2,0.9-0.3,1.9-1.2,2.2c-0.9,0.4-1.9,0.1-2.4-0.7l-2.8-4c0,0,0,0,0,0
			c-0.1-0.1-0.3-0.4-0.6-0.8c0.5,4.6,0.3,10.7-2.2,17.7l-1.7,4.6c-0.3,0.9-1.2,1.4-2.2,1.3c-0.9-0.1-1.7-0.9-1.7-1.9l-0.3-4.9
			c0,0,0,0,0,0c0-0.4-0.3-2.7-1.2-4.8c-2.3,4.3-7.5,10.9-19.1,19.6c-7.4,5.6-15,11-21.7,15.8l-0.8,0.6c-9,6.4-17.5,12.4-20.9,15.7
			c0,1-0.1,1.9-0.1,2.7c0,0.4,0,0.7-0.1,1l0,0.2c-0.3,6.5-8.2,13.2-24.1,20.6c-18.2,8.4-68.9,36.9-80.8,54.2
			c-10.3,14.9-8.6,60.1-7.9,72.6c23.7-8.5,44.8-8.3,69.6-7.2l3.4,0.2c0.9,0,1.6,0.7,1.9,1.5c0.2,0.9-0.2,1.8-1,2.2l-3,1.7
			c-0.1,0.1-2.1,1.2-4.5,3.2c8,1.4,20.8,5.3,28.7,16.7l1.8,2.5c0.5,0.7,0.5,1.7,0,2.3c-0.5,0.7-1.4,1-2.2,0.7l-1.8-0.6
			c4.4,4.8,8.8,12.8,10.3,25.9l0.6,4.6c0.1,0.9-0.4,1.8-1.3,2.1c-0.9,0.3-1.9-0.1-2.4-0.9l-2.4-4c0,0,0,0,0-0.1
			c-0.1-0.2-0.3-0.5-0.6-0.9c2.3,13.2,2.4,35.7-12.9,63.8c-17.8,32.6-56.8,55.2-80.1,68.7l-0.6,0.4c-2.4,1.4-4.6,2.7-6.6,3.9
			c2.6,0.4,5.6,1,9.1,1.9c10.7,3,27.1,3.4,34.3,2.4c4.8-0.7,11.3-0.7,15.2,2.8c2.3,2,3.3,4.9,3.2,8.4c-0.4,8.9-8,11.7-10.5,12.4
			c-1.5,1.1-3.3,1.8-5.2,1.9c-4.5,0.2-25.9,0.3-55.3-0.6c-14.2-0.4-26.9,0.2-37.2,0.7l-0.3,0c-5.9,0.3-11.5,0.6-16,0.6
			c-5,0-8.3-0.3-11-1.1c-2.5-0.7-4.6-1.8-6.2-3.3c-1.7,0.4-3.7,0.6-6.1,0.6c-6.3,0-14.1-1.3-20.4-2.4c-0.6-0.1-1.3-0.2-1.9-0.3
			l-1.1-0.2c-4.3-0.7-5.7-0.4-8.1,0.2c-2.4,0.5-5.7,1.3-12.5,1.4c-9.9,0.2-16.4-2.4-20.6-5.4c-0.2,1.1-0.5,2.2-1.1,3.4
			c-1.6,2.9-4.4,4.9-8.4,6c-0.3,0.1-0.6,0.2-0.9,0.2v1.7C423.6,693.5,422.7,694.3,421.6,694.3z M118.5,690.3h301.1V689
			c0-1,0.7-1.8,1.7-2c0.8-0.1,1.5-0.3,2.1-0.4c2.9-0.8,4.9-2.2,6-4.1c1.2-2.3,0.7-4.7,0.6-4.9c0-0.1-0.1-0.3-0.1-0.4
			c0-0.1,0-0.3,0-0.5l0-0.2c-0.1-0.9,0.4-1.7,1.2-2.1c0.8-0.4,1.7-0.1,2.3,0.5c3,3.5,9.2,7.6,21.2,7.4c6.4-0.1,9.5-0.8,11.7-1.3
			c3-0.7,4.8-1,9.7-0.2l1.1,0.2c0.6,0.1,1.2,0.2,1.9,0.3c6.1,1.1,13.7,2.4,19.7,2.4c2.6,0,4.6-0.2,6.1-0.7c0.8-0.3,1.6,0,2.2,0.6
			c1.1,1.3,2.9,2.3,5.2,3c2.2,0.6,5.4,0.9,9.9,0.9c4.5,0,10-0.3,15.8-0.6l0.3,0c10.3-0.5,23.2-1.2,37.5-0.7
			c29.3,0.9,50.5,0.8,55,0.6c1.2-0.1,2.2-0.5,3.1-1.2c0.2-0.2,0.5-0.4,0.9-0.4c1.8-0.4,7.6-2.2,7.9-8.8c0.1-2.3-0.5-4.1-1.9-5.3
			c-2.2-2-6.4-2.6-12-1.8c-7.5,1-24.8,0.6-35.9-2.5c-6.4-1.8-11.3-2.3-14.3-2.3c-0.9,0-1.6-0.6-1.9-1.5c-0.2-0.8,0.1-1.8,0.9-2.2
			c3.2-2.1,7.3-4.4,11.9-7.1l0.7-0.4c22.9-13.3,61.4-35.5,78.6-67.1c18.7-34.3,13.6-59.8,10.6-69.2c-0.3-0.9,0-1.8,0.8-2.3
			c0.8-0.5,1.7-0.4,2.4,0.2c1.6,1.4,3,3.1,4.2,4.7c-3-16.1-10.6-22.2-15.2-24.4c-0.9-0.4-1.3-1.4-1-2.3c0.3-0.9,1.2-1.5,2.1-1.4
			c2,0.2,4,0.6,5.5,1c-8.8-10.4-22.6-12.7-28.3-13.2c-0.8-0.1-1.4-0.6-1.7-1.3c-0.3-0.7-0.1-1.5,0.5-2.1c2.1-2.1,4.2-3.8,5.9-5
			c-23.9-1-44.4-0.8-67.4,8c-0.6,0.2-1.3,0.2-1.8-0.2c-0.5-0.3-0.9-0.9-0.9-1.6c-0.7-10-3.3-60.7,8.5-77.8
			c12.3-17.9,63.9-47,82.4-55.6c18.6-8.6,21.6-14.5,21.7-17.2l0-0.2c0-0.4,0-0.7,0.1-1.1c0.1-0.9,0.1-2,0.1-3.3c0-0.5,0.2-1,0.6-1.4
			c3.3-3.4,12-9.6,22-16.8l0.8-0.6c6.7-4.8,14.3-10.2,21.6-15.7c14.8-11.2,18.3-18.4,19.1-21c0.2-0.6,0.7-1.1,1.4-1.3
			c0.7-0.2,1.4,0,1.9,0.4c1.9,1.6,2.9,3.9,3.5,5.9c2.1-8.4,0.6-14.9-0.6-18.2c-0.3-0.8,0-1.8,0.7-2.3c0.7-0.5,1.7-0.5,2.4,0.1
			c1.3,1.1,2.5,2.2,3.4,3.2c-14.2-59.6-61.7-92.2-102-103c-41-11-95.9-30.8-105.3-40c-6.5-6.4-12.5-7.4-15.3-7.5
			c1,1.6,2.3,4.2,3.3,8.2c0.3,1.2,0.7,2.4,1.1,3.5c0.2,0.7,0.1,1.4-0.3,1.9c-0.4,0.5-1.1,0.8-1.8,0.7c-13.5-1.8-25.5-3.5-35.6-5.1
			c-14.9-2.3-16.8,0.9-19.1,7.5c-0.2,0.4-0.4,0.8-0.8,1c-1.3,0.8-13.1,8.1-18.6,10.7c-6.4,3-8.1,7.4-5.6,14c1.2,3.1,2.8,6.8,4.1,10
			l0.2,0.5c2.4,5.7,3.9,9.4,4.2,10.8c0,0.1,0,0.1,0.1,0.2c0.2,0.5,0.1,1.1-0.2,1.6c-0.3,0.5-0.8,0.8-1.4,0.9
			c-2.2,0.4-5.8,0.8-10.4,0.3c-4.7-0.5-9.1,0-12.1,0.7c2.2,0.6,5,1.6,7.2,3.2c0.7,0.5,0.9,1.3,0.7,2.1c-0.2,0.8-0.9,1.4-1.7,1.5
			c-2.3,0.2-5.8,1.2-9.8,4.4c-0.4,0.4-1,0.5-1.6,0.4c-0.6-0.1-1.1-0.4-1.4-0.9c-3.8-5.7-10.9-10.1-21.1-13
			c-24.3-7-45.6,4.8-52.9,29.2c-6.6,21.9,4.4,45.9,18.9,54.4c5,3,10.5,4.5,15.9,4.5c1,0,2-0.1,3.1-0.2c0.7-0.1,1.4,0.2,1.8,0.7
			c0.4,0.5,0.6,1.2,0.3,1.9c-1.1,3.1-3.4,11-3.9,20.8c1.7-2.8,4.4-6.8,7.5-9.9c0.7-0.7,1.7-0.8,2.5-0.3c0.8,0.5,1.1,1.5,0.8,2.4
			c-2.2,6-5,18.6,0.5,37.8c0.5-3.1,1.3-7,2.7-10.2c0.3-0.8,1.2-1.3,2-1.2c0.9,0.1,1.6,0.7,1.8,1.6c0.8,4,3,12.1,8.8,22.4
			c0.3,0.6,0.3,1.2,0.1,1.8c-0.3,0.6-0.8,1-1.4,1.1c-4.6,1-21.2,5.2-40.9,15.7c-21.4,11.5-51,33-70.6,70.8c-0.1,0.5-0.1,2.1,1.6,3.8
			c0.4,0.4,0.6,0.9,0.6,1.4c0,0.5-0.2,1.1-0.6,1.5c-2.3,2.2-9.9,9-19.6,11.4c2.6,0.5,6,0.8,9.7,0.2c0.8-0.1,1.6,0.2,2,0.9
			c0.4,0.7,0.4,1.6-0.1,2.2c-3.1,4.3-9.4,11.7-16.2,13.3c-4.4,1-6.9,2.6-8.4,3.9c2.7-0.4,6.2-0.7,8.8,0.1c0.7,0.2,1.2,0.7,1.4,1.4
			c0.2,0.7,0,1.4-0.4,1.9c-2.1,2.5-6.4,6.8-10.7,8c-3.3,0.9-4.7,3.8-5.2,5.5c2.3-0.5,6.7-1.1,10.5-0.6c0.9,0.1,1.6,0.9,1.7,1.8
			c0.1,0.9-0.5,1.8-1.3,2.1c-4.4,1.5-8.7,3.3-12.3,5.2c-0.7,0.4-1.6,0.3-2.2-0.2c-6.1-4.9-14.9-13.4-21.8-26.1
			c-15.6-28.6-15.2-64.5,1.2-106.5c41.6-106.4,47.9-157,24.1-193.1c-12.4-18.8-44-36.6-80.4-34.1c-19.8,1.3-38.4,8.5-55.4,21.2
			c-19.4,14.5-36.1,36.2-49.6,64.4c-1,2.2-1.2,4.6-0.4,6.9c0.8,2.3,2.4,4.1,4.6,5.1c2.2,1,4.6,1.2,6.9,0.4c2.3-0.8,4.1-2.4,5.1-4.6
			c28.5-59.3,64.7-73.7,90-75.4c31.1-2.1,56.2,14,64.2,26c16.7,25.4,18.2,63.9-25.9,176.7c-23.2,59.4-12.6,99.5,0.3,122.7
			c8.3,14.8,18.6,24.7,25.7,30.5c0.4,0.3,0.7,0.9,0.7,1.4c0,0.6-0.2,1.1-0.5,1.5c-1.5,1.6-2.9,3.2-4,4.8c0.8-0.4,1.6-0.8,2.5-1.2
			c0.9-0.4,2-0.1,2.5,0.8c0.5,0.8,0.4,1.9-0.4,2.6c-2.7,2.3-7,6.4-12,12.8c-0.4,0.5-1,0.8-1.6,0.8H65.4l-7.3,5.9l60.3,159.8
			c0.1,0.2,0.1,0.5,0.1,0.7V690.3z M319.1,669.6c-0.9,0-1.6-0.5-1.9-1.4l-22.7-66.5c-0.2-0.6-0.1-1.3,0.3-1.8
			c0.9-1.2,1.7-2.4,2.3-3.5c0.4-0.7,1.3-1.1,2.1-0.9c0.8,0.2,1.5,0.9,1.6,1.7c0,0.1,0,0.3,0,0.4c1.3-2.2,2.3-4.4,2.8-5.8
			c0.3-0.7,1-1.2,1.8-1.2c0.8,0,1.5,0.4,1.9,1.1c4.6,8.8,10.2,17.8,16.6,26.8c20.2,28.2,35.1,37.3,40.6,39.9
			c0.9,0.4,1.3,1.4,1.1,2.3c-0.4,1.3-1,2.3-1.9,3c-1.3,1-2.8,0.9-3.4,0.8c-0.1,0-6.5-0.9-17.6,2.2
			C336.6,668.3,328,669.4,319.1,669.6C319.2,669.6,319.1,669.6,319.1,669.6z M300,605.5l20.5,60c8-0.3,15.7-1.3,21.1-2.8
			c9.4-2.6,15.7-2.6,18.1-2.4c-7.2-4.2-21.2-14.7-39.1-39.6c-5.7-7.9-10.7-15.9-15-23.6c-0.9,1.9-2.1,3.8-3.4,5.5l-1.9,2.5
			C300.4,605.3,300.2,605.4,300,605.5z M411.5,523.5c-0.7,0-1.4-0.4-1.7-1c-5-8.4-9.3-14.4-12.4-17.6c-1.4-1.4-2.8-2.9-4.4-4.5
			l-0.1-0.1c-4.4-4.7-9.5-10-15.7-14.7c-0.8-0.6-1-1.7-0.5-2.6c2.3-4.1,7.1-10,8.1-11.2c0.4-0.5,1-0.8,1.6-0.7c0.4,0,1.5,0,2.4-0.7
			c0,0,0.1-0.1,0.1-0.1c0.2-0.2,0.3-0.3,0.5-0.5c0.1-0.1,0.1-0.2,0.2-0.2c1-1,4.5-4.7,8.5-9.3c4.5-5.1,8.2-9.5,10.7-13
			c0.5-0.7,1.4-1,2.2-0.7c0.8,0.2,1.4,1,1.4,1.8c1.1,28.9,1.1,62.2,1.1,73.2c0,0.9-0.6,1.7-1.5,1.9
			C411.9,523.4,411.7,523.5,411.5,523.5z M381,483.4c5.9,4.6,10.6,9.6,14.8,14l0.1,0.1c1.6,1.7,3,3.1,4.3,4.5
			c2.6,2.6,5.7,6.7,9.3,12.3c0-13.5-0.2-37.8-0.9-60.4c-2.1,2.7-4.7,5.6-7.6,8.9c-4,4.5-7.4,8.2-8.5,9.3c-0.3,0.4-0.6,0.8-1,1.1
			c0,0-0.1,0.1-0.1,0.1c-1.4,1.1-3,1.5-4.1,1.6C385.9,476.6,382.9,480.4,381,483.4z M577.5,301c-0.5,0-1-0.2-1.4-0.5
			c-0.5-0.5-0.8-1.3-0.6-2c3.7-14.2,2.7-23.9,1.9-28.5c-0.2-0.9,0.3-1.9,1.2-2.2c0.9-0.4,1.9,0,2.4,0.8c0.8,1.2,1.4,2.6,1.9,3.9
			c0.6-4.9,1-9.7,1.1-14.3c0-0.9,0.7-1.7,1.5-1.9c3.8-0.9,10.1-5.7,14.8-14.2c3.8-6.8,9.1-21,2.3-39.4
			c-11.1-29.9-39.6-24.9-45.2-23.6c-0.7,0.2-1.4,0-1.9-0.5c-5.2-5.1-10.7-9-16.3-11.5c0.4,0.9,0.8,2,1.1,3.2
			c0.2,0.8-0.1,1.7-0.8,2.1c-0.7,0.5-1.6,0.5-2.3,0c-4.2-2.8-15-9.7-25-11.5c-0.5-0.1-0.9-0.3-1.2-0.7c-2.5-3-5.1-8.1-5.4-8.7
			c-0.2-0.4-0.3-0.8-0.2-1.2c0.1-0.8,0.2-1.7,0.3-2.6c0.1-0.7,0.5-1.3,1.1-1.6c0.5-0.3,1.5-0.8,2.6-1.7c0.7-0.6,1.7-0.6,2.4-0.1
			c0.5,0.3,1.2,0.8,2.3,1.3c0.5,0.2,0.9,0.6,1,1.1c0.3,0.6,3.2,6.2,27,7.5c0.7,0,1.3,0.4,1.6,1c0.3,0.6,0.3,1.3,0,1.9
			c-0.6,1-1,1.9-1.3,2.6c3.1-0.3,10.5-0.4,23.5,2.2c18.2,3.6,46.6,14.5,67.5,26c9.5,5.2,18.1,12.2,26.4,19
			c10.3,8.4,19.9,16.4,30.9,20.7c0.7,0.3,1.2,0.9,1.3,1.6c0.1,0.7-0.3,1.5-0.9,1.9c-1.8,1.2-3.6,2.6-5.2,4.1
			c-15.3,14.2-27.6,23-28.1,23.4c-0.5,0.4-1.2,0.5-1.9,0.2c-0.7-0.3-1.4-0.5-2-0.6c-4.6-0.9-7.9,1.8-17,9
			c-3.6,2.9-8.1,6.4-13.9,10.8c-17.4,13-39.1,20.7-45.3,22.7C577.9,300.9,577.7,301,577.5,301z M582,284c-0.2,3.5-0.8,7.5-1.7,11.9
			c8.5-3,26.2-10.1,40.8-21c5.8-4.3,10.2-7.9,13.8-10.7c9.5-7.6,13.9-11.1,20.3-9.8c0.5,0.1,1,0.2,1.5,0.4
			c3-2.2,13.9-10.4,26.9-22.5c0.9-0.8,1.8-1.6,2.8-2.4c-10.2-4.7-19.2-12.1-28.7-19.9c-8.2-6.7-16.6-13.6-25.8-18.6
			c-20.6-11.3-48.5-22-66.4-25.6c-15.6-3.1-22.7-2.1-23.6-2c5.5,2.6,10.8,6.4,15.9,11.2c8.1-1.6,37.1-5.1,48.8,26.4
			c7.3,19.9,1.5,35.3-2.6,42.7c-4.8,8.6-11.1,13.9-15.9,15.7c-0.3,5.7-0.8,11.7-1.7,17.8l-0.8,5.5c-0.1,1-0.9,1.7-1.9,1.7
			C583,284.7,582.4,284.5,582,284z M513.9,157.1c7.4,1.5,15,5.4,20.4,8.6l-0.8-1.5c-0.4-0.7-0.3-1.6,0.3-2.3
			c0.6-0.6,1.4-0.8,2.2-0.5l1.7,0.7c0-0.2,0.1-0.3,0.1-0.5l0.6-1.7c0.1-0.3,0.4-1,0.8-2c-19.3-1.4-25.3-5.9-27.1-9
			c-0.4-0.2-0.7-0.4-1.1-0.6c-0.4,0.3-0.8,0.6-1.2,0.8c0,0.4-0.1,0.8-0.1,1.2C510.7,152.1,512.4,155.1,513.9,157.1z"/>
	</g>
	<g>
		<path class="st2" d="M549.8,129.5c-0.2,0.1-0.9,0.4-2,0.9c-1.1,0.6-2.6,1.4-4.2,2.6c5.1-9.7,18.8-9.9,20.1-9.8
			c-0.3,0-1.7-0.2-3.6-0.2c-0.3,0-0.6,0-0.9,0c-0.8-1.3-3.5-5.6-4.9-11.2c-1.1-4.1-2.4-6.6-3.3-8.1c2.9,0.1,8.9,1.2,15.3,7.5
			c10,9.8,70,30.5,105.3,40c40.3,10.8,87.8,43.5,102,103c-2.5-2.6-6.8-5.6-11.6-5.2c1.4,0.3,2.7,0.9,3.9,1.5
			c0.7,1.4,4.6,9.4,1.8,20.9c-0.8-2.5-2.2-5.4-5-7l-1.5-0.8l0,1.7c0,0.1-0.6,8-19.4,22.1c-7.7,5.8-15.5,11.4-22.4,16.3
			c-9.2,6.6-16.8,12-20.7,15.5c-0.4-4.9-1.8-12.5-6.7-25.6c-6.9-18.7-23.7-31.3-33.1-35.6c3.5-2.6,14.3-10.8,27.2-22.7
			c15.3-14.2,37.8-15.2,38-15.2c-0.1,0-0.6,0-1.5,0c-3.8,0-14.4,0.5-25.1,5.4c0.3-0.3,0.7-0.7,1.1-1.1c0.6-0.5,1.1-1,1.8-1.4
			c0.3-0.2,0.6-0.5,1-0.7c0.3-0.2,0.7-0.5,1-0.7c0.7-0.5,1.5-0.8,2.2-1.3c0.8-0.4,1.5-0.7,2.3-1.1c0.8-0.3,1.6-0.6,2.3-0.9
			c0.8-0.2,1.5-0.4,2.2-0.6c0.7-0.2,1.4-0.3,2-0.5c0.6-0.1,1.2-0.3,1.7-0.3c0.5-0.1,1-0.1,1.4-0.2c0.8-0.1,1.2-0.1,1.2-0.1
			s-0.4,0-1.2,0.1c-0.4,0-0.8,0.1-1.4,0.1c-0.5,0-1.1,0.1-1.8,0.2c-0.6,0.1-1.4,0.1-2.1,0.3c-0.7,0.2-1.5,0.3-2.3,0.5
			c-0.8,0.2-1.6,0.5-2.4,0.7c-0.8,0.3-1.6,0.6-2.4,1c-0.8,0.4-1.6,0.7-2.4,1.2c-0.4,0.2-0.8,0.4-1.1,0.6c-0.4,0.2-0.7,0.5-1.1,0.7
			c-0.7,0.4-1.3,0.9-2,1.4c-0.6,0.5-1.2,0.9-1.6,1.4c-1,0.9-1.8,1.7-2.3,2.3c-0.3,0.3-0.5,0.6-0.6,0.8c0,0,0,0,0,0
			c-0.3,0.2-0.6,0.4-0.9,0.5c-11.5-4.2-21.6-12.4-32.2-21.2c-8.3-6.8-16.9-13.8-26.4-19.1c-20.9-11.4-49.3-22.4-67.5-26
			c-13-2.6-20.4-2.5-23.5-2.2c0.8-1.8,2.4-4.8,4.6-7.2c2.7-2.8,6.9-8.6,6-12.3c-0.2-0.9-0.9-2.1-2.7-2.6c-3.6-1.1-8.1,0.9-11,2.5
			C542.7,134.7,549.3,129.8,549.8,129.5z"/>
	</g>
	<g>
		<path class="st3" d="M624.9,671.3c-3.1,0.3-7.5-0.2-11.8-0.7c-0.7-0.1-1.6-0.2-2.7-0.2l0.1-1c7.2,0.5,14,0.3,17.9-0.2
			c3.9-0.5,9.2-0.7,12,1.8c1.4,1.2,2,3,1.9,5.3c-0.2,4.6-3.1,6.8-5.4,7.9c1-2.2,1.1-4.8,0.2-6.9
			C635.3,672.7,631.2,670.7,624.9,671.3z"/>
	</g>
	<g>
		<path class="st3" d="M610.5,670.4c-4.1-0.2-10.1-0.2-12.4,0.8c0,0,0.1,0,0.1,0c3,0,11.3,1,14.7,1.4c4.4,0.5,8.9,1,12.2,0.7
			c5.3-0.5,8.7,1,10.2,4.8c0.8,1.9,0.5,4.3-0.6,6.2c-1,1.5-2.5,2.4-4.2,2.5c-3.4,0.2-23.4,0.3-55-0.6c-14.5-0.4-27.4,0.2-37.8,0.8
			c-11.6,0.6-20.8,1.1-25.7-0.3c-2.9-0.8-4.9-2.2-5.9-4.1c-1-1.8-0.8-3.7-0.7-4.6c1.6-0.7,3.2-1.9,4-3.7c1-2.2,3.2-4,5-5.1
			c-1.3,4.2,0,7,0,7.2l0.8,1.8l1-1.8c6-10.9,18.7-13.2,23.8-13.7c-3.1,4.3-4.2,9.9-4.2,10.2l-0.7,3.8l2.4-3c0,0,3.2-3.8,12.5-6.3
			c7.2-1.9,14-8.3,17.3-11.8c0.2,5.2,3.5,10.3,3.7,10.5l0.6,1l0.9-0.8c0.7-0.6,1.6-1.4,2.7-2.1c1.2-0.1,7.5-0.5,17.4,2.3
			c5.3,1.5,11.8,2.4,18,2.8L610.5,670.4z"/>
	</g>
	<g>
		<path class="st4" d="M602.6,202.7c6.8,18.4,1.5,32.6-2.3,39.4c-4.5,8.1-10.4,12.9-14.2,14c0.1-4.1,0.1-7.9-0.1-11.5
			c2.5-2.6,17.3-19.5,9.5-38.7c-8.5-20.9-26.8-18.7-29.4-18.3c-2.2-3-4.6-6-7.4-8.9C566.3,177.3,592.2,174.5,602.6,202.7z"/>
	</g>
	<g>
		<path class="st5" d="M593.6,206.7c6.5,15.9-3.7,30.3-7.8,35.2c-1.5-20.9-7-31.8-7.6-32.9c-0.3-0.8-3.9-9.6-10.8-19.5
			C571.7,189,586.3,188.7,593.6,206.7z"/>
	</g>
	<g>
		<path class="st6" d="M573.8,233.7c3,24.5-7,34.3-10.2,36.7l-0.7,0.6c-2.8,2.1-4.8,3.6-7.6,10.3c-0.6,1.4-0.9,4.2-1.4,7.9
			c-1.8,15.1-5.5,46.6-36.6,47.1c-0.3,0-0.6,0-0.8,0c-23.1,0-37-17.1-41.1-50.8c-0.1-0.9-0.2-1.5-0.2-2c-0.7-4.4-5.2-7.3-10.9-11
			c-2.9-1.9-6.2-4-9.4-6.6c-4.9-4-9.8-14.3-9.3-25.6c0.3-8,3.5-19.3,16.8-28.3c7.6-5.2,14.7-7,21.2-7c11.8,0,21.2,6.3,27.3,10.3
			c1,0.7,1.9,1.3,2.7,1.8c9.2,5.7,16.3,1.9,16.6,1.8l0.1,0c13-8.6,23.9-11.4,31.4-7.9C568.1,214.1,572.4,221.9,573.8,233.7z"/>
	</g>
	<g>
		<path class="st6" d="M557.1,123.1c-6,0.6-14.1,3.1-16.6,12.5c-0.9,0.9-1.8,2-2.5,3.1c-0.7,1.1-1.3,2.4-1.7,3.7l-0.7,2.8l2.3-1.7
			c2.1-1.5,8.2-5.2,12-4c1,0.3,1.3,0.9,1.4,1.2c0.6,2.3-2.4,7.1-5.5,10.4c-0.9,0.9-1.7,2-2.4,3c-16.4-0.8-23.3-3.5-26.1-5.5
			c2.2,0.6,5,1,8.4,1c2.6,0,5.7-0.2,9.1-0.9c-1.5,0.1-2.9,0.2-4.2,0.2c-10.2,0-16.2-3.2-18.2-4.5c1.9-2,3.2-5.9,2.1-8.7
			c-0.2,2.5-1.3,4.6-2.6,6.2c-1.3,1.6-2.8,2.7-3.9,3.4c0-3.6-1.1-8.5-3.5-11.2c1.1,3.8,1.5,7.4,1.5,10.7c0,7.3-2.2,13.5-4.8,19.2
			c-2.1,4.7-6.2,5.4-8.5,5.3c-3.1-0.1-5.3-1.3-5.5-1.8c-0.4-1.8,2-10,3.5-14.9l0.5-1.7c0.7-2.3,1.2-5.2,1.8-8.6
			c0.9-5.1,2-11.4,4.1-17.4c0.4-1,0.7-1.9,1-2.8c2.6-7.8,3.8-11.7,19.7-9.2c16.5,2.6,33.3,4.8,36.8,5.2
			C555.5,120.3,556.4,122,557.1,123.1z"/>
	</g>
	<g>
		<path class="st2" d="M538.9,621.6c0.3-0.6,2.2-4.3,5-9.5c0.8-1.4,1.6-3,2.5-4.6c0.9-1.6,1.9-3.3,2.9-5.1c2-3.5,4.2-7.3,6.4-11
			c1.1-1.9,2.2-3.7,3.3-5.6c1.1-1.8,2.2-3.6,3.4-5.3c1.1-1.7,2.2-3.4,3.2-4.9c1-1.6,2-3,2.9-4.4c0.9-1.3,1.8-2.6,2.5-3.7
			c0.8-1.1,1.5-2,2-2.8c0.9-1.3,1.5-2.1,1.7-2.3c-0.2,0.2-0.8,1-1.8,2.2c-0.6,0.8-1.3,1.7-2.2,2.7c-0.8,1.1-1.7,2.3-2.7,3.6
			c-1,1.3-2,2.8-3.1,4.3c-0.5,0.8-1.1,1.5-1.7,2.3c-0.5,0.8-1.1,1.7-1.7,2.5c-1.1,1.7-2.3,3.5-3.4,5.3c-1.2,1.8-2.3,3.7-3.4,5.5
			c-2.2,3.7-4.4,7.5-6.3,11.1c-2,3.6-3.7,7-5.1,9.9c-1.5,2.9-2.6,5.4-3.4,7.1C539.4,620.4,539,621.3,538.9,621.6z M383.7,568.4
			c-0.7-2.4-1.5-5.1-2.6-8c-1.1-2.9-2.3-6-3.7-9c-0.7-1.5-1.4-3-2.2-4.4c-0.8-1.4-1.6-2.8-2.4-4.2c-1.6-2.7-3.4-5-5-6.9
			c-0.8-0.9-1.6-1.8-2.3-2.5c-0.7-0.7-1.4-1.3-1.9-1.7c-0.5-0.5-1-0.8-1.3-1c-0.3-0.2-0.5-0.3-0.5-0.3s0.1,0.1,0.4,0.4
			c0.3,0.3,0.7,0.6,1.2,1.1c0.5,0.5,1.1,1.1,1.8,1.8c0.7,0.7,1.4,1.6,2.2,2.6c1.5,1.9,3.1,4.3,4.7,6.9c0.8,1.3,1.6,2.7,2.3,4.1
			c0.8,1.4,1.5,2.9,2.1,4.4c1.4,3,2.6,6,3.7,8.9c1.1,2.9,2.1,5.6,2.8,7.9c0.8,2.3,1.4,4.3,1.8,5.7c0.4,1.2,0.6,1.9,0.6,2.1
			c0-0.2-0.2-0.9-0.4-2.2C384.9,572.8,384.4,570.8,383.7,568.4z M379.1,541.7c-8.4-16-20.8-29.3-39.8-33.2
			c20.9,5.7,33.8,23.7,41.9,43.5c8.1,19.8,11.4,41.4,13.2,54.4c0.5,3.5,0.8,6.2,1.2,8.3c2.8,15.1,21.4,32.3,27.8,37.8
			c-7.1-0.5-14.2-5.1-14.2-5.1l-1.7-1.1l0.1,2c0.2,3.1,4.2,6.9,6.9,9.2c-20.5-0.6-34-12.4-34.2-12.5l-2.7-2.4l1.1,3.5
			c0.8,2.4,2.7,5.2,4.2,7.2c-14.5-5.3-23.9-17-24-17.1l-1.4-1.8l-0.3,2.3c-0.8,5.4,4.1,16.3,6.6,21.3c-5.6-3-20.5-12.6-39.8-39.5
			c-24.8-34.6-28.3-57.6-28.3-57.8l-0.2-1.8l-1.4,1.1c-1.7,1.4-2.9,5-3.8,8.3c-1.1-18.1,4.3-36.8,4.4-37l0.6-2l-1.9,0.7
			c-3.1,1.2-7,5-9.2,7.4c2.1-29.5,18.7-41.3,18.9-41.4l2.2-1.5l-2.7-0.3c-3-0.3-6.7,0.6-9.1,1.5c16.4-23.8,49.6-17.3,50-17.2l4,0.8
			l-3.2-2.6c-2.8-2.3-6.9-4.4-10-5.9c31.8,1,47.4,17.4,58.8,29.5c1.5,1.6,3,3.1,4.4,4.5c12,12,39,65.4,48.2,95.2
			c11,35.8,25.5,39.5,26,39.6c0.2,0.1,6.1,1.7,12.4-2.3c7-4.5,11.6-14.1,13.7-28.4c3.1-22,20.8-90.2,59.8-115.1
			c36.6-23.4,61.4-24.7,96.8-23.2c-2,1.4-4.8,3.6-7.4,6.6l-1.4,1.6l2.2,0c0.2,0,19.3,0.4,30.3,13.3c-3.1-0.8-8-1.7-11.4-0.6
			l-4.8,1.4l5,0.5c0.7,0.1,15.3,1.9,19.7,25.9c-1.8-2.4-4.4-5.3-7.1-6.7l-2.7-1.4l1.3,2.7c0.1,0.3,13.7,29.6-9.5,72.1
			c-17.3,31.6-55.7,53.8-78.6,67.1c-7.9,4.5-14.2,8.2-17.7,11.1c-1.2-2-3.6-7-2.5-11.1l1.2-4.5l-2.9,3.6c-0.1,0.1-9.1,11-18.4,13.4
			c-5.4,1.4-8.9,3.3-10.9,4.7c0.8-2.4,2.2-5.7,4.4-8l1.7-1.7l-2.4,0c-0.8,0-17.8,0-26.5,12.6c-0.1-1.4,0.2-3.4,1.4-5.8l1.2-2.5
			l-2.5,1.1c-0.2,0.1-6.2,2.7-8.3,7.3c-1,2.2-3.7,3.1-5.7,3.5c4.5-4.8,15.7-18.1,23.2-37c6.1-15.4,22.5-47,41.5-73.3h0v0
			c13-18.1,26.3-32.8,39.5-41.7c-6,2.8-12.2,7.6-18.4,13.6c-6.2,6-12.5,13.3-18.5,21.3c4.4-10.5,15.3-29.5,30.7-43.4
			c-11.7,7.5-20.3,19.2-26,29.4c-5.7,10.1-8.6,18.7-9.1,20c-19.1,26.4-35.4,57.9-41.6,73.4c-9.3,23.5-24.5,38.1-24.6,38.3l-1.8,1.7
			h2.5c0.1,0,2,0,4.1-0.6c-0.1,1.2,0,2.8,0.9,4.5c-5.7,1.6-16.9-0.3-25.3-1.8c-1.1-0.2-2.1-0.3-3-0.5c-5.1-0.8-7-0.4-9.7,0.2
			c-2.4,0.5-5.3,1.2-11.7,1.3c-18.6,0.4-23.2-9.8-23.8-11.6c-1.2-4.8-3.8-11.4-8.8-16.5c1.5,0.2,3,0.3,4.4,0.1l2.4-0.2l-1.9-1.6
			c-0.3-0.2-26-21.2-29.1-38.4c-0.4-2-0.8-4.9-1.2-8.2c-1.9-13.7-5-36.8-13.9-57.2c0-0.1,0-0.2-0.1-0.3c-0.1-0.3-0.1-0.8-0.3-1.4
			c-0.2-1.2-0.6-2.9-1.2-5c-0.3-1-0.6-2.1-1-3.2c-0.4-1.1-0.8-2.3-1.3-3.6c-0.5-1.2-1.1-2.5-1.6-3.7c-0.6-1.2-1.2-2.5-1.9-3.7
			l-1.1-1.8l-0.5-0.9l-0.6-0.9c-0.8-1.1-1.5-2.3-2.4-3.3c-0.8-1-1.6-2-2.5-2.9c-0.9-0.8-1.6-1.7-2.4-2.3c-0.8-0.7-1.5-1.3-2.2-1.8
			c-0.7-0.5-1.3-0.9-1.8-1.2c-0.9-0.6-1.4-1-1.6-1c0.1,0.1,0.6,0.5,1.5,1.1c0.5,0.4,1.1,0.8,1.8,1.3c0.6,0.6,1.3,1.2,2.1,1.9
			c0.8,0.7,1.5,1.6,2.3,2.4c0.8,0.9,1.5,1.9,2.3,2.9c0.8,1,1.5,2.2,2.2,3.3l0.5,0.9l0.5,0.9l1,1.8c0.6,1.2,1.2,2.5,1.7,3.7
			c0.5,1.3,1,2.5,1.4,3.7c0.4,1.2,0.8,2.4,1.1,3.5C378.7,540.2,378.9,541,379.1,541.7z"/>
	</g>
	<g>
		<path class="st6" d="M503.7,163.4c1.3-3,2.5-6.2,3.2-9.6c0.8,1.4,1.8,3.2,3,4.8l-3.9-0.5l4.2,2.5c0,0,0.4,0.2,0.9,0.6
			c-0.1,0.8-0.3,1.4-0.8,1.8c-0.9,0.8-2.5,0.6-2.5,0.6v0C506.5,163.4,505.1,163.3,503.7,163.4z"/>
	</g>
	<g>
		<path class="st6" d="M483,168.4c-0.5-0.2-0.6-0.5-0.7-0.7c-0.3-1.3-1.8-5-4.3-11c-1.4-3.4-3-7.2-4.3-10.5
			c-2.6-6.6-0.8-11.1,5.5-14c4.3-2,12.5-6.9,16.5-9.4c-0.2,0.5-0.4,1.1-0.6,1.7c-2.1,6.1-3.3,12.5-4.2,17.7c0,0.1,0,0.1,0,0.2
			c-0.3-0.5-0.7-0.9-1.1-1.3c-0.4-0.4-0.8-0.9-1.3-1.2c-0.4-0.3-0.9-0.6-1.2-0.8c-0.4-0.2-0.7-0.4-0.9-0.5c-0.2-0.1-0.4-0.2-0.4-0.2
			s0.1,0.1,0.3,0.2c0.2,0.2,0.5,0.4,0.8,0.7c0.3,0.3,0.7,0.6,1,1c0.3,0.4,0.6,0.9,0.9,1.3c0.5,0.9,0.9,2,1.1,2.8
			c0.1,0.4,0.2,0.7,0.2,0.9c0,0,0,0.1,0,0.1c-0.4,2-0.8,3.7-1.2,5.2l-0.5,1.7c-2.3,7.7-4.1,13.8-3.6,16c0,0.1,0.1,0.2,0.1,0.2
			C484.5,168.6,483.6,168.6,483,168.4z"/>
	</g>
	<g>
		<path class="st6" d="M418,178c17.2,1,24.4,13.3,25.8,16.1c-10.4,10.8-14.8,32.7-16.1,39.9c-3.7-5.4-5.3-11.2-5.3-11.3l-1.1-4.4
			l-0.8,4.5c-1.6,8.7,0.6,18.2,1.5,21.8c-16.1-2.1-33.4-12.6-36.3-29.2c-1.6-9.2,1.4-19.2,8.2-26.8c6.1-6.8,14.2-10.6,22.5-10.6
			C417,177.9,417.5,178,418,178z"/>
	</g>
	<g>
		<path class="st2" d="M487.2,331.6c-0.1-0.1-0.5-0.6-1.2-1.3c-0.4-0.4-0.9-0.9-1.4-1.5c-0.5-0.6-1.1-1.4-1.7-2.1
			c-0.7-0.7-1.2-1.7-1.9-2.6c-0.7-0.9-1.3-1.9-1.9-3c-0.7-1-1.2-2.2-1.9-3.3c-0.6-1.1-1.1-2.3-1.7-3.5c-0.6-1.2-1.1-2.4-1.6-3.6
			c-0.5-1.2-1-2.4-1.4-3.6c-0.4-1.2-0.8-2.3-1.1-3.4c-0.4-1.1-0.6-2.1-0.9-3.1c-0.5-1.9-1-3.5-1.2-4.6c-0.3-1.1-0.4-1.8-0.4-1.8
			s0,0.7,0.2,1.8c0.2,1.1,0.4,2.8,0.9,4.8c0.4,2,1,4.2,1.8,6.6c0.4,1.2,0.8,2.4,1.3,3.6c0.5,1.2,1,2.5,1.6,3.7
			c0.6,1.2,1.1,2.4,1.8,3.6c0.6,1.2,1.3,2.3,2,3.3c0.7,1.1,1.3,2.1,2.1,3c0.7,0.9,1.3,1.8,2,2.5c0.7,0.8,1.3,1.4,1.8,2
			c0.6,0.6,1.1,1,1.6,1.4C486.6,331.1,487.1,331.6,487.2,331.6z M511.8,213.8c-9.8-6.5-28-18.6-50.7-3.2
			c-13.9,9.4-17.3,21.4-17.6,29.9c-0.5,11.9,4.8,22.9,10,27.2c3.3,2.7,6.6,4.8,9.6,6.8c5.3,3.4,9.5,6.1,10,9.6
			c0.1,0.4,0.1,1.1,0.2,1.9c5.3,43.3,26.2,52.5,43.1,52.5c0.3,0,0.6,0,0.8,0c32.8-0.6,36.7-33.2,38.6-48.9c0.4-3.5,0.7-6.2,1.2-7.4
			c2.6-6.2,4.3-7.5,6.9-9.5l0.8-0.6c3.4-2.6,14.1-13,10.9-38.5c-1.6-12.7-6-20.8-13.3-24.2c-8.3-3.8-19.5-1.1-33.3,8
			c-0.5,0.2-6.7,3.2-14.6-1.7C513.7,215,512.8,214.4,511.8,213.8z M465.9,204.2c0.7-0.2,1.4-0.5,2.2-0.8c0.8-0.3,1.7-0.6,2.7-0.8
			c0.9-0.3,2-0.5,3-0.7c1-0.2,2.1-0.4,3.3-0.6c1.1-0.1,2.3-0.3,3.4-0.3l1.7-0.1c0.6,0,1.1,0,1.7,0c0.6,0,1.1,0,1.7,0.1
			c0.5,0.1,1.1,0.1,1.6,0.2c0.5,0.1,1.1,0.1,1.6,0.2c0.5,0.1,1,0.2,1.5,0.3c0.5,0.1,1,0.2,1.4,0.3c0.4,0.1,0.9,0.2,1.3,0.4
			c0.8,0.3,1.6,0.4,2.3,0.7c0.6,0.2,1.2,0.5,1.7,0.7c0.8,0.3,1.4,0.5,1.5,0.6c-0.1-0.1-0.6-0.3-1.4-0.7c-0.5-0.2-1-0.5-1.6-0.8
			c-0.6-0.3-1.4-0.6-2.2-0.9c-0.4-0.1-0.8-0.3-1.3-0.5c-0.5-0.1-0.9-0.2-1.4-0.4c-0.5-0.1-1-0.2-1.5-0.4c-0.5-0.1-1.1-0.2-1.6-0.2
			c-0.5-0.1-1.1-0.1-1.7-0.2c-0.6-0.1-1.1-0.1-1.7-0.1c-0.6,0-1.2-0.1-1.8-0.1l-1.8,0.1c-1.2,0-2.3,0.2-3.5,0.4
			c-1.1,0.2-2.2,0.4-3.3,0.7c-1.1,0.3-2.1,0.6-3,0.9c-1,0.3-1.9,0.7-2.6,1c-0.8,0.3-1.5,0.7-2.2,1c-0.6,0.3-1.2,0.6-1.6,0.9
			c-0.8,0.4-1.2,0.7-1.4,0.8c0.1-0.1,0.6-0.3,1.4-0.7C464.7,204.7,465.2,204.5,465.9,204.2z M422,227.6c1.1,2.7,2.9,6.4,5.6,9.6
			l1.5,1.8l0.3-2.3c0-0.3,4.1-29.6,16.3-41.6l0.5-0.5l-0.3-0.6c-0.1-0.2-7.2-16.8-27.8-18c-9.5-0.6-18.8,3.6-25.7,11.2
			c-7.2,8.1-10.4,18.7-8.7,28.5c3.2,18.1,22.3,29.3,39.5,31l1.5,0.2l-0.5-1.4C424.3,245.4,421.6,236.6,422,227.6z M429.3,297.3
			c-2.3,3.4-3.6,9-4.2,13.1c-7.7-27.1,1.1-41.5,1.2-41.6l2.6-4l-4,2.6c-4.7,3.2-8.8,9.1-11.2,13c0.6-10.9,3.5-19.6,4.3-21.7
			c4.3-0.8,7.6-2.6,9.2-4.5c-1.9,1.4-6.9,3.3-13.3,3.3c-5.1,0-11.2-1.2-17.2-4.8c-12.6-7.4-26.1-30.5-18.9-54.4
			c7.5-24.8,28.3-36.3,52.9-29.2c13.3,3.8,19.3,9.7,22,14.5l0,0.2c0,0,0.1,0,0.2,0c2.3,4.4,3,8,2.9,8.3c0-0.2,0.6-1.4,0.6-3.3
			c0-1.2-0.2-2.6-0.9-4.2c0.5,0.2,1,0.5,1.5,0.8c0.2,0.2,0.5,0.3,0.7,0.5c0.2,0.2,0.4,0.3,0.6,0.6c0.2,0.2,0.4,0.4,0.5,0.6
			c0.1,0.2,0.3,0.4,0.4,0.6c0.1,0.2,0.2,0.4,0.3,0.5c0.1,0.2,0.1,0.3,0.2,0.4c0.1,0.2,0.1,0.3,0.1,0.4c0-0.1,0-0.2,0-0.4
			c0-0.1,0-0.3-0.1-0.5c-0.1-0.2-0.1-0.4-0.2-0.6c-0.1-0.2-0.2-0.4-0.3-0.7c-0.1-0.2-0.3-0.5-0.4-0.7c-0.1-0.3-0.4-0.5-0.5-0.7
			c-0.2-0.2-0.4-0.5-0.6-0.7c-0.9-0.9-1.9-1.6-2.8-2.1c6.4-5.2,11.8-4.5,11.9-4.4l2.4,0.4l-1.4-1.9c-2.1-2.8-6.2-4.4-9.2-5.2
			c3-0.7,7.4-1.2,12.1-0.7c6,0.6,10.1-0.2,11.5-0.5c0.1,0.1,0.2,0.1,0.4,0.2c0.5,0.2,1.1,0.3,1.8,0.3c0.9,0,1.9-0.2,2.8-0.6
			c1.1,0.7,2.6,1.1,4.1,1.4c-0.3,0.1-0.5,0.3-0.8,0.4c-0.6,0.4-1.2,0.8-1.7,1.1c-0.5,0.4-1,0.8-1.4,1.2c-0.4,0.4-0.8,0.8-1.1,1.1
			c-0.3,0.3-0.5,0.7-0.7,1c-0.3,0.5-0.5,0.8-0.5,0.9c0.1-0.1,0.4-0.2,0.8-0.6c0.3-0.2,0.5-0.4,0.9-0.7c0.4-0.2,0.8-0.5,1.2-0.8
			c0.5-0.3,1-0.5,1.5-0.8c0.5-0.3,1.1-0.5,1.7-0.9c0.6-0.3,1.2-0.5,1.9-0.8c0.7-0.2,1.3-0.5,2-0.8s1.3-0.5,2-0.7
			c0.7-0.2,1.3-0.5,2-0.7c1.3-0.4,2.5-0.8,3.5-1.1c2.1-0.6,3.5-1.1,3.5-1.1s-1.5-0.2-3.7,0c-0.4,0-0.8,0.1-1.2,0.1
			c0.7-0.7,1.3-1.6,1.9-2.7c6.2-0.6,12.2,2,12.3,2l1.7,0.8l-0.3-1.9c-0.4-2.1-1.4-3.8-2.4-5c12,2.9,25,12.4,25.2,12.5l1.8,1.3
			l-0.2-2.2c-0.2-2.1-0.9-4.3-1.5-5.8c24.5,11.1,37,42.4,37.1,42.7l0,0.1c0.1,0.2,11.3,21.4,6.5,62.5c-1-2.6-2.7-5.7-5-7.2l-2.6-1.6
			l1.1,2.9c0.1,0.1,5.5,14.6-3.5,40.5c-9.4,26.9-28.6,44.4-44.3,49.8c3.8-1.1,7.7-2.8,11.8-5.2c4-2.4,8.1-5.4,12.1-9.1
			c-0.5,8.5-3.9,37.8-29.3,41.2c-6.2,0.8-12.2,0.6-17.9-0.8c0-0.1,0-0.3,0-0.4c0.1-0.5,0.1-1,0.2-1.4l0.2-1.4l0.3-1.4
			c0.1-0.5,0.3-0.9,0.5-1.4c0.2-0.4,0.3-0.9,0.5-1.3l0.6-1.3l-0.9,1.2c-0.3,0.4-0.5,0.8-0.8,1.3c-0.2,0.4-0.5,0.9-0.7,1.3
			c-0.2,0.5-0.4,0.9-0.6,1.4l-0.4,1.4c-0.2,0.5-0.2,1-0.3,1.5c-0.1,0.5-0.2,1-0.2,1.5c-0.1,0.5-0.1,1-0.2,1.5c-0.1,1-0.1,2-0.1,3
			c0,0.5,0,1,0.1,1.5c0,0.5,0.1,1,0.1,1.5c0.1,0.7,0.2,1.4,0.3,2.1c-0.3-0.4-0.6-0.7-0.8-1.1l-1-1.4c-0.3-0.5-0.6-1-0.9-1.5
			c-0.3-0.5-0.6-1-0.9-1.5l-0.8-1.5l-0.7-1.6c-0.3-0.5-0.5-1.1-0.7-1.6c-0.2-0.5-0.5-1.1-0.6-1.6c-0.1-0.3-0.2-0.6-0.3-0.9l0,0
			c0,0,0,0,0,0c-0.1-0.2-0.2-0.5-0.3-0.8c-0.2-0.5-0.4-1.1-0.6-1.7c-0.4-1.1-0.7-2.2-1-3.4c-0.3-1.1-0.6-2.3-0.9-3.4
			c0,2.4,0.4,4.7,0.9,7.1c0.1,0.5,0.2,1,0.3,1.4c-13.2-6.5-21.2-18.1-24.4-23.4c10.3,5,20.1,6.4,26.6,6.7l6.7,0.3l-6.3-2.2
			c0,0-1.3-0.5-3-1.2c3.8,0.8,9.1,1.4,15.5,1c-6.6,0-12-1.2-15.8-2.4c-3.8-1.2-6-2.5-6-2.5l-5.4-2.4l4.3,4c1.2,1.1,2.7,2.1,4.2,2.9
			c-11.8-1.6-29.2-7.1-43.3-25c-16.1-20.5-17.8-37.6-17.8-37.8l-0.2-2.8L429.3,297.3z"/>
	</g>
	<g>
		<path class="st6" d="M322.3,672.6c3.5-0.4,7.1-0.8,10-0.8c-2-0.7-5.2-1.3-8.2-1.3c-0.7,0-1.4,0-2,0.1c-0.6,0.1-1.3,0.1-1.9,0.2
			l-0.4-1.2c8.7-0.2,17-1.3,22.9-3c10.9-3.1,17.5-2.2,17.5-2.2c0.2,0,1.9,0.3,3.4-0.7c0.9-0.6,1.5-1.5,1.9-2.7c0,0,0.1,0,0.1,0
			l2.4,0.8l-1.2-2.2c-0.1-0.1-6.8-12.8-7.6-20.1c3.8,4.1,13.3,13.1,26.5,16.8l3.3,0.9l-2.3-2.6c0,0-2.3-2.6-4.1-5.4
			c5.7,3.9,18.2,10.7,34.9,10.4l2.9-0.1l-2.4-1.8c-2.3-1.7-5.7-4.7-7.3-7.1c1.8,0.9,4.2,2.1,7.1,2.9c10.7,8,12.1,23.7,12.1,23.8
			l0,0.2c0,0,0.8,2.5-0.6,5c-1,1.9-3,3.3-6,4.1c-0.5,0.1-1.1,0.3-1.8,0.4v-8.3h-98.7l-2-5.9C321.3,672.7,321.8,672.7,322.3,672.6z"
			/>
	</g>
	<g>
		<rect x="118.4" y="680.7" class="st7" width="301.1" height="9.7"/>
	</g>
	<g>
		<path class="st1" d="M387.8,470.8c0.6-0.8,1.2-1.7,1.9-2.5c-0.2,0.8-0.4,1.3-0.5,1.5c-0.3,0.3-0.5,0.5-0.6,0.7
			C388.3,470.5,388.1,470.7,387.8,470.8z"/>
		<path class="st1" d="M386.4,471.8l1-1.4c0.6-0.8,1.3-1.7,1.9-2.5l1.4-1.9l-0.5,2.3c-0.2,0.9-0.5,1.4-0.6,1.6l-0.1,0.1
			c-0.3,0.3-0.5,0.6-0.6,0.7c-0.3,0.2-0.6,0.4-1,0.5L386.4,471.8z"/>
	</g>
	<g>
		<path class="st1" d="M327.6,412.8c0.7-0.2,2-0.4,4.3,0c-0.8,1.7-1.9,2.9-2.5,3.5C327.8,414.8,327.6,413.5,327.6,412.8z"/>
		<path class="st1" d="M329.3,416.9l-0.3-0.3c-1.6-1.5-1.9-3-1.9-3.8l0-0.4l0.4-0.1c0.8-0.2,2.2-0.4,4.4-0.1l0.7,0.1l-0.3,0.6
			c-0.8,1.7-1.9,2.9-2.6,3.6L329.3,416.9z M328.1,413.2c0.1,0.6,0.4,1.4,1.2,2.3c0.5-0.6,1.2-1.3,1.7-2.4
			C329.7,413,328.7,413.1,328.1,413.2z"/>
	</g>
	<g>
		<polygon class="st7" points="264.7,514.6 320.7,678.7 314.8,678.7 261.3,519.2 		"/>
	</g>
	<g>
		<polygon class="st8" points="259.4,520 312.7,678.7 118.1,678.7 58.3,520 		"/>
	</g>
	<g>
		<path class="st2" d="M294,563.2c0.9,4.1,3.5,13.5,10.2,27c-0.4,1.1-1.7,4.4-3.4,7.5c-0.1-1.2-0.3-2.4-0.7-3.5l-0.9-2.5l-1,2.4
			c0,0-0.8,1.9-2.7,4.7l-6-17.5l0.3-0.1l1-6.3C291.3,571.5,292.5,566.1,294,563.2z"/>
	</g>
	<g>
		<path class="st2" d="M272.8,486.5l3.6-1.3c0.1,0,4-1.4,7.6-2.1c-2.2,1.6-5.4,4-8.4,7c-7.4-5.9-17.6-15.8-25.9-30.6
			c-13-23.2-23.6-63.3-0.3-122.7c44.1-112.8,42.6-151.2,25.9-176.7c-7.9-12.1-33.1-28.1-64.2-26c-25.3,1.7-61.5,16.2-90,75.4
			c-1,2.2-2.9,3.8-5.1,4.6c-2.3,0.8-4.7,0.7-6.9-0.4c-2.2-1.1-3.8-2.9-4.6-5.1c-0.8-2.3-0.7-4.7,0.4-6.9
			c13.6-28.2,30.3-49.9,49.6-64.4c16.9-12.7,35.6-19.9,55.4-21.2c36.4-2.4,68,15.3,80.4,34.1c23.8,36.2,17.5,86.7-24.1,193.1
			c-16.4,42-16.8,77.8-1.2,106.5c6.6,12.2,14.9,20.5,21.1,25.6c-4.1,2.3-8,5-10.8,8.2L272.8,486.5z"/>
	</g>
	<g>
		<path class="st2" d="M289.6,581.3L266,512.1c0,0,0-0.1-0.1-0.1c0,0,0-0.1-0.1-0.1c0-0.1-0.1-0.2-0.2-0.2c0,0,0,0,0,0h0
			c-0.1-0.1-0.2-0.1-0.3-0.2c0,0,0,0,0,0c8.9-11,15.5-14.8,15.6-14.9l3.3-1.9h-3.8c-2.1,0-5.9,1.6-8.5,3c5.8-8.5,16.5-15,16.6-15.1
			l2.7-1.6l-3.2-0.2c-2.3-0.1-5.5,0.6-8.1,1.3c9.1-7.7,24.4-12,24.6-12.1l2.5-0.7l-2.4-1.1c-4.3-2-11.1-1-14.1-0.4
			c0.5-1.8,1.9-4.6,5.2-5.5c5.8-1.6,11.4-8.8,11.7-9.1l0.7-0.9l-1-0.5c-2.9-1.5-7.4-1.2-10.4-0.7c1.5-1.3,4.1-2.8,8.4-3.9
			c9.2-2.2,17.4-14.9,17.7-15.5l1.4-2.1l-2.5,0.6c-4.4,1.2-8.8,0.8-12,0.3c11.4-2.8,19.6-11.3,20.4-12.1c0.5-0.4,2.5-2,3.9-5.1
			c5.9,1.3,16.1,5.7,32,18.6c19.8,16.1,23.9,27.1,24.2,33c-1.9,2.2-4.9,6.4-5.2,6.7c-0.4,0.5-5.6,6.8-8.2,11.3
			c-11-7.9-25.7-14.2-47.4-13.9l-5,0.1l4.6,1.9c0.1,0,5.8,2.3,10.6,5.2c-10.2-1-36.4-1.1-49.5,21.2l-1.6,2.7l2.8-1.3
			c0,0,4.3-1.9,8.2-2.4c-5.1,4.6-16.6,17.9-17.6,43.9l-0.1,2.9l1.9-2.3c0.1-0.1,4.5-5.4,8.4-7.9c-1.6,6.4-5.8,25.3-3.2,41.9l1,6.3
			L289.6,581.3z"/>
	</g>
	<g>
		<polygon class="st8" points="263,513.5 259.6,518 59.6,518 65.3,513.5 		"/>
	</g>
	<g>
		<path class="st9" d="M628,277.5c0.1-0.1,0.1-0.1,0.1-0.1S628.1,277.5,628,277.5z M589.4,300.2c2.3-1,5-2.1,7.8-3.5
			c2.8-1.4,5.8-2.8,8.8-4.4c1.5-0.8,2.9-1.6,4.4-2.4c1.5-0.8,2.8-1.6,4.2-2.4c1.4-0.8,2.6-1.7,3.8-2.4c1.2-0.8,2.3-1.6,3.3-2.3
			c1-0.7,1.9-1.5,2.7-2.1c0.4-0.3,0.8-0.6,1.1-0.9c0.3-0.3,0.6-0.6,0.9-0.8c0.8-0.7,1.3-1.2,1.6-1.5c-0.2,0.2-0.8,0.7-1.6,1.4
			c-0.3,0.2-0.6,0.5-0.9,0.8c-0.3,0.3-0.7,0.5-1.1,0.8c-0.8,0.6-1.7,1.3-2.8,2c-1,0.7-2.1,1.5-3.4,2.2c-1.2,0.7-2.5,1.5-3.9,2.3
			c-1.4,0.8-2.7,1.6-4.2,2.4c-1.4,0.8-2.9,1.6-4.4,2.3c-2.9,1.6-5.9,3.1-8.8,4.4c-2.8,1.4-5.5,2.6-7.7,3.7c-2.3,1-4.2,1.9-5.5,2.5
			c-1.3,0.6-2.1,0.9-2.1,0.9S584.7,302.2,589.4,300.2z M538.8,498.5c-0.2,0.2-1.2,1.1-2.7,2.7c-0.4,0.4-0.9,0.9-1.5,1.4
			c-0.5,0.5-1.1,1.1-1.7,1.7c-1.1,1.3-2.4,2.8-3.8,4.4c-0.7,0.8-1.3,1.7-2,2.6c-0.7,0.9-1.4,1.9-2.1,2.8c-0.4,0.5-0.7,1-1.1,1.5
			c-0.3,0.5-0.7,1-1,1.6c-0.7,1.1-1.4,2.2-2.1,3.3c-0.4,0.6-0.7,1.1-1.1,1.7c-0.3,0.6-0.7,1.2-1,1.8c-0.7,1.2-1.4,2.4-2.1,3.6
			c-1.4,2.4-2.7,5-4,7.5c-1.2,2.6-2.5,5.1-3.6,7.6c-1.1,2.6-2.2,5.1-3.2,7.5c-0.5,1.2-1,2.4-1.4,3.6c-0.4,1.2-0.9,2.4-1.3,3.5
			c-0.9,2.3-1.5,4.5-2.2,6.5c-1.3,4-2.3,7.4-2.9,9.8c-0.6,2.4-1,3.8-1,3.8s0.4-1.4,1.1-3.7c0.7-2.4,1.9-5.7,3.3-9.7
			c0.7-2,1.5-4.2,2.4-6.4c0.4-1.1,0.9-2.3,1.4-3.5c0.5-1.2,1-2.4,1.5-3.6c1-2.5,2.1-4.9,3.2-7.5c1.1-2.5,2.4-5,3.6-7.6
			c1.3-2.5,2.5-5,3.9-7.4c0.7-1.2,1.4-2.4,2-3.6c0.3-0.6,0.7-1.2,1-1.8c0.4-0.6,0.7-1.1,1.1-1.7c0.7-1.1,1.4-2.2,2.1-3.3
			c0.3-0.5,0.7-1.1,1-1.6c0.4-0.5,0.7-1,1.1-1.5c0.7-1,1.4-2,2-2.9c0.7-0.9,1.3-1.9,2-2.6c1.3-1.6,2.5-3.2,3.6-4.5
			c0.5-0.7,1.1-1.2,1.6-1.8c0.5-0.6,1-1.1,1.4-1.5C537.6,499.8,538.6,498.8,538.8,498.5z M489.1,617.4c-0.2,0.4-0.7,1.7-1.5,3.5
			c-0.5,1.1-1.2,2.5-2.1,4c-0.9,1.5-2.1,3.1-3.6,4.6c-1.5,1.5-3.6,2.7-6,2.5c-2.4-0.2-4.6-1.7-6.5-3.6c-1.9-1.9-3.5-4.2-4.9-6.6
			c-0.7-1.2-1.4-2.5-2.1-3.7c-0.7-1.2-1.4-2.5-2-3.8l-1-1.9l-0.9-2c-0.6-1.3-1.2-2.6-1.8-3.9c-1.2-2.6-2.3-5.2-3.3-7.7
			c-1-2.5-1.9-5-2.8-7.3c-0.9-2.3-1.6-4.5-2.3-6.6c-1.4-4.1-2.5-7.6-3.2-10c-0.7-2.4-1.1-3.8-1.1-3.8s0.3,1.4,0.9,3.9
			c0.6,2.5,1.6,6,2.9,10.1c0.6,2.1,1.4,4.3,2.2,6.7c0.4,1.2,0.9,2.4,1.3,3.6c0.4,1.2,0.9,2.5,1.4,3.8c1,2.5,2.1,5.1,3.2,7.8
			c0.6,1.3,1.2,2.6,1.8,3.9l0.9,2l1,2c0.7,1.3,1.3,2.6,2,3.8c0.7,1.3,1.4,2.5,2.2,3.8c1.5,2.5,3.2,4.8,5.1,6.7
			c1.9,1.9,4.4,3.6,7,3.7c1.3,0.1,2.6-0.2,3.7-0.8c1.1-0.5,2-1.3,2.8-2.1c1.6-1.6,2.7-3.3,3.5-4.8c0.9-1.6,1.5-3,2-4.1
			c0.5-1.2,0.8-2.1,1.1-2.8C489,617.9,489.1,617.6,489.1,617.4z M466.6,359.9c0.1,0.2,1,1.6,2.4,3.6c0.8,1,1.7,2.3,2.8,3.5
			c1,1.3,2.2,2.5,3.4,3.8c1.2,1.2,2.5,2.4,3.8,3.5c0.6,0.5,1.2,1,1.9,1.5c0.6,0.4,1.2,0.9,1.7,1.2c0.6,0.4,1.1,0.7,1.5,0.9
			c0.5,0.3,0.9,0.5,1.2,0.6c0.5,0.2,0.9,0.4,1,0.5c-0.1-0.1-0.4-0.3-0.9-0.6c-0.3-0.2-0.7-0.4-1.1-0.8c-0.4-0.3-0.9-0.7-1.4-1
			c-0.5-0.4-1-0.9-1.6-1.3c-0.6-0.5-1.1-1-1.8-1.5c-1.2-1.1-2.5-2.3-3.7-3.5c-1.2-1.2-2.4-2.5-3.5-3.7c-1.1-1.2-2.1-2.4-2.9-3.4
			c-0.8-1-1.5-1.8-2-2.4C466.9,360.2,466.7,359.9,466.6,359.9z M459.6,598c0.2,0.9,0.4,2.2,0.8,3.7c0.4,1.5,0.8,3.3,1.4,5.1
			c0.6,1.9,1.3,3.8,2.1,5.7c0.4,1,0.9,1.9,1.3,2.8c0.5,0.9,1,1.8,1.5,2.6c0.5,0.8,1.1,1.6,1.6,2.3c0.6,0.7,1.2,1.3,1.7,1.9
			c0.3,0.3,0.6,0.5,0.9,0.7c0.3,0.2,0.6,0.4,0.8,0.6c0.6,0.3,1.1,0.6,1.5,0.7c0.4,0.2,0.8,0.2,1,0.3c0.2,0,0.3,0.1,0.3,0.1
			c0,0-0.2-0.1-0.3-0.1c-0.2-0.1-0.6-0.2-1-0.4c-0.4-0.2-0.8-0.5-1.3-0.9c-0.5-0.4-1-0.9-1.5-1.4c-0.5-0.6-1-1.2-1.5-1.9
			c-0.5-0.7-1-1.5-1.5-2.3c-0.5-0.8-0.9-1.7-1.4-2.6c-0.4-0.9-0.9-1.8-1.3-2.8c-0.8-1.9-1.5-3.8-2.2-5.6c-0.6-1.8-1.2-3.5-1.7-5
			s-0.9-2.7-1.1-3.6c-0.3-0.9-0.4-1.4-0.4-1.4S459.4,597.1,459.6,598z M367.1,430.2c-22.4-18.2-34-19.9-38.6-19.6
			c19.5-36.6,48.5-57.7,69.6-69c20.8-11.1,38.1-15.1,41.6-15.9c2.1,3.5,4.6,7.2,7.6,11c6.5,8.3,13.7,14,20.8,17.9
			c1.2,2.3,10.2,19.5,28.3,27.6c0.1,0.4,0.2,0.8,0.4,1.2c0.2,0.6,0.4,1.1,0.6,1.7l0.7,1.7l0.8,1.6c0.2,0.5,0.5,1.1,0.8,1.6
			c0.3,0.5,0.6,1.1,0.9,1.6l1,1.5c0.3,0.5,0.7,1,1.1,1.5c0.4,0.5,0.7,1,1.2,1.4l1.2,1.4l2.8,3l-1.1-4c-0.2-0.9-0.5-1.8-0.6-2.7
			s-0.4-1.9-0.5-2.8c-0.1-0.9-0.2-1.9-0.3-2.8c-0.1-0.9-0.1-1.9-0.1-2.8c0-0.1,0-0.3,0-0.4c3.6,0.8,7.2,1.2,11,1.2
			c2.4,0,4.8-0.2,7.3-0.5c29.8-4,31-41.2,31.1-45.2c8.2-8.2,15.5-19.2,20.3-32.8c0.8-2.2,1.4-4.3,2-6.3c3.8-1.2,27.6-9,46.5-23.1
			c5.8-4.3,10.3-7.9,13.9-10.8c9.1-7.2,12.5-9.9,17-9c6.8,1.3,28.1,14.4,36,35.9c7.2,19.7,6.8,26.5,6.5,30.9c0,0.4,0,0.9-0.1,1.3
			c-0.1,2.7-3.1,8.5-21.7,17.2c-12.8,5.9-61.8,32.4-79.1,51.5c0.4-0.9,0.9-1.8,1.4-2.8c0.6-1.1,1.2-2.3,1.9-3.5
			c0.7-1.2,1.4-2.4,2.1-3.6c0.7-1.2,1.5-2.3,2.2-3.5c0.7-1.1,1.5-2.2,2.3-3.3c0.7-1.1,1.5-2,2.2-3c0.4-0.5,0.7-0.9,1.1-1.4
			c0.4-0.4,0.7-0.8,1-1.2c0.7-0.8,1.3-1.5,1.8-2.2c0.6-0.6,1.1-1.2,1.5-1.6c0.5-0.6,0.9-1,1.1-1.2c-0.2,0.2-0.6,0.6-1.2,1.1
			c-0.4,0.4-1,0.9-1.6,1.5c-0.6,0.6-1.2,1.3-1.9,2.1c-0.4,0.4-0.7,0.8-1.1,1.2c-0.4,0.4-0.7,0.9-1.1,1.3c-0.8,0.9-1.6,1.9-2.4,2.9
			c-0.8,1-1.7,2.1-2.4,3.2c-0.8,1.1-1.6,2.2-2.4,3.4c-0.8,1.1-1.5,2.3-2.3,3.5c-0.7,1.1-1.4,2.3-2.1,3.5c-1.3,2.3-2.5,4.4-3.4,6.3
			c-0.9,1.9-1.6,3.5-2.1,4.6c-0.2,0.6-0.4,1-0.6,1.3c-0.1,0.2-0.1,0.3-0.1,0.4c-9.1,21.6-6.1,68.2-5.7,73.3
			c-8.8,3.5-17.9,8.2-27.8,14.6c-39.6,25.3-57.6,94.3-60.7,116.5c-1.9,13.5-6.3,22.8-12.7,27c-5.5,3.6-10.7,2.1-10.8,2.1
			c-0.1,0-14-3.8-24.6-38.2c-6-19.3-21-52.2-34-74.7v-1.1c0-15,0-60.5-2-92.2c-2-32.1-11.5-42.6-12.2-43.5c0.2,0.3,1.9,2.8,3.8,8.2
			c2,5.8,4.4,14.8,5.8,28c-0.3-0.8-0.6-1.5-0.9-2.3c-0.4-0.9-0.8-1.9-1.2-2.8c-0.5-0.9-0.9-1.9-1.4-2.7c-0.5-0.9-1-1.8-1.6-2.6
			c-0.6-0.8-1.1-1.6-1.6-2.3c-0.6-0.7-1-1.4-1.6-1.9c-0.5-0.5-1-1.1-1.5-1.5c-0.4-0.4-0.9-0.8-1.2-1.1c-0.5-0.4-0.9-0.7-1-0.9
			c0.1,0.1,0.5,0.4,0.9,0.9c0.3,0.3,0.7,0.7,1.2,1.1c0.4,0.5,0.9,1,1.4,1.6c0.5,0.6,1,1.3,1.5,2c0.5,0.7,1,1.5,1.5,2.3
			c0.5,0.8,0.9,1.7,1.4,2.6c0.5,0.9,0.8,1.9,1.2,2.8c0.4,0.9,0.7,1.9,1.1,2.8c0.3,1,0.6,1.9,0.9,2.8c0.5,1.8,0.9,3.6,1.2,5.1
			c0.3,1.5,0.5,2.7,0.6,3.6c0,0.4,0.1,0.8,0.1,1c0,0.2,0,0.3,0,0.3c0.2,3.2,0.3,6.5,0.5,9.8c-4.5,6.7-13.3,16.4-18.1,21.7
			C392.5,460.8,389.7,448.5,367.1,430.2z M335.4,406.2c0.1-0.1,0.6-1,1.6-2.4c1-1.6,2.5-3.7,4.3-6.3c0.9-1.3,1.9-2.7,3-4.2
			c1.1-1.4,2.2-3,3.5-4.5c1.2-1.6,2.5-3.2,3.8-4.8c1.3-1.6,2.7-3.2,4.1-4.8c1.4-1.6,2.9-3.1,4.2-4.7c1.5-1.5,2.9-2.9,4.3-4.3
			c1.5-1.3,2.8-2.7,4.2-3.8c1.4-1.1,2.7-2.2,4-3.2c1.3-0.9,2.5-1.8,3.5-2.5c0.3-0.2,0.5-0.4,0.8-0.5c0.2-0.2,0.5-0.3,0.7-0.5
			c0.5-0.3,0.9-0.5,1.3-0.8c1.5-0.9,2.4-1.4,2.5-1.5c-0.1,0-1,0.5-2.5,1.4c-0.4,0.2-0.9,0.5-1.4,0.7c-0.2,0.1-0.5,0.3-0.8,0.4
			c-0.2,0.2-0.5,0.3-0.8,0.5c-1.1,0.7-2.3,1.5-3.6,2.4c-1.3,1-2.6,2-4.1,3.1c-1.4,1.1-2.8,2.5-4.3,3.8c-1.5,1.4-2.9,2.8-4.4,4.3
			c-1.4,1.5-2.9,3-4.3,4.6c-1.4,1.6-2.8,3.2-4.1,4.8c-1.3,1.6-2.6,3.2-3.8,4.8c-1.2,1.6-2.3,3.1-3.4,4.6c-1.1,1.5-2,2.9-2.9,4.2
			C337.6,402.4,335.6,406,335.4,406.2z"/>
	</g>
	<g>
		<polygon class="st8" points="315.8,679.5 318.2,691.3 117.1,691.3 117.4,679.1 		"/>
	</g>
	<g>
		<path class="st5" d="M561.6,211.1c-7-3.2-16.9-1.1-28.8,6.2c7.5-1.7,20-2.7,29.3,5.1c14,11.9,7.6,34.2-3.4,43.3s-8.9,24.8-10.4,34
			c-1.4,8-7.9,30.8-25.8,36.2c26.4-3.8,29.8-32.5,31.5-46.7c0.5-3.8,0.8-6.5,1.4-7.9c2.8-6.7,4.8-8.2,7.6-10.3l0.7-0.6
			c3.2-2.4,13.2-12.2,10.2-36.7C572.4,221.9,568.1,214.1,561.6,211.1z"/>
	</g>
	<g>
		<path class="st10" d="M163.6,607.1c-8.2-8.4-9.1-20.9-2-27.8c7.1-6.9,19.5-5.7,27.7,2.7c8.2,8.4,9.1,20.9,2,27.8
			C184.3,616.7,171.8,615.5,163.6,607.1z"/>
	</g>
	<g>
		<path class="st4" d="M671.7,151.1c-35.3-9.4-95.3-30.2-105.3-40c-6.4-6.3-12.5-7.4-15.3-7.5c0.9,1.5,2.2,4.1,3.3,8.1
			c1.5,5.6,4.1,9.9,4.9,11.2c0.3,0,0.6,0,0.9,0c1.9,0,3.2,0.2,3.6,0.2c-1.3-0.1-15.1,0.1-20.1,9.8c1.5-1.1,3-2,4.2-2.6
			c1.1-0.5,1.8-0.8,2-0.9c-0.5,0.3-7.1,5.2-10.3,10.6c0,0,0,0,0,0c2.5-2.3,9-6.9,21.8-6.5c17.1,0.5,49.2,23,89.3,33.8
			c40.2,10.8,68.5,31.7,75.7,41.2c0,0-4.6-13.5-13.8-19.1c0,0,16.9,6.5,24.3,20.1c7.3,13.7,19.7,34.3-1.5,53
			c-21.2,18.7-35.5,20-44,11.5c-7.7-7.7-21.3-14.1-31.2-15.5c9.5,4.8,25.4,17.1,32,35.1c4.8,13.2,6.3,20.7,6.7,25.6
			c3.9-3.5,11.5-8.9,20.7-15.5c6.9-4.9,14.8-10.5,22.4-16.3c18.8-14.1,19.4-22,19.4-22.1l0-1.7l1.5,0.8c2.8,1.6,4.3,4.5,5,7
			c2.8-11.6-1-19.6-1.8-20.9c-1.2-0.7-2.5-1.2-3.9-1.5c4.9-0.4,9.2,2.6,11.6,5.2C759.5,194.6,712.1,161.9,671.7,151.1z"/>
	</g>
	<g>
		<path class="st5" d="M492.8,137c0,0,2.8-15.5,18.3-13.4c15.5,2,29,3.5,28.4,6.6c-0.6,3.1,0,9.9,0,9.9l2.5-6c0,0,1.3-6.9,16.1-11.4
			l-2.8-5.6l-37.5-4.9c0,0-13.4-3.2-17.7,3C495.7,121.4,492.8,137,492.8,137z"/>
	</g>
	<g>
		<path class="st5" d="M475.5,153.7c0,0-1.3-5.4,3.2-9.6c4.4-4.2,12.3,3.2,12.3,3.2l6.4-26.5l-18.4,10.5c0,0-9.8,4.8-6.7,14.3
			L475.5,153.7z"/>
	</g>
	<g>
		<path class="st4" d="M538.4,166.3c0,0,21,14.8,29,35.5c0,0-4-4.7-8.7-6.2c0,0,4.4,6,6,12.3c0,0-9.6-7.7-25.1,4.2
			c0,0,15.3-7.9,26.7,1.1c11.4,9.1,8.8,32.8,8.2,39.2c-0.7,6.5-5.5,14.7-10.6,18.6c-5.1,3.9-6.8,6.9-8.7,18.6
			c-1.8,11.7-4.9,31.8-16.3,40.3s-22,8.4-33.8,5.4c0,0,11.7,8.8,25.6,4.2c13.9-4.5,17.4-11.4,17.4-11.4s-1.6,10.8-10.7,13.9
			c0,0,10-1.8,13.2-7c0,0-4.6,11.3-16.5,17.7c-11.9,6.4-19.4,6.4-19.4,6.4s12.6,0.6,19.7-2.2c7.2-2.8,10.3,5.6,6.3,14.2
			c-4.1,8.6-12.3,11.6-12.3,11.6s10.7-2.6,17.5-13.9c6.8-11.3,7.2-22.1,7.2-22.1l0.5-6c0,0,10.9-12.7,16.3-24.5
			c5.4-11.8,9.2-26.5,9.4-32.8c0.2-6.3-1-15.9-1-15.9s4,4.5,4.5,6.9s1.6-5.7,2.6-16.5c1-10.8-2.2-29-3.1-32.2
			c-0.9-3.2-1.5-14.7-11.8-29.3C560.2,182.1,550.8,170.3,538.4,166.3z"/>
	</g>
	<g>
		<path class="st4" d="M485.2,374.6c0,0-8-9.3-7.2-11.7s12.5,3,26.6,0.3c0,0-15.2-1.5-21.6-3.4c-6.4-1.9-13.5-5.3-13.5-5.3
			S472,361.5,485.2,374.6z"/>
	</g>
	<g>
		<path class="st11" d="M365.2,428.6c0,0-3.6-7.2-11.8-12.5s14.2-40.4,46.7-64.5c32.5-24.1,44.8-17.9,48.3-15.3l-8.7-11.9
			c0,0-32,6.5-67.2,32.9c-35.2,26.4-44.9,53.9-44.9,53.9S343.2,410.9,365.2,428.6z"/>
	</g>
	<g>
		<path class="st12" d="M397.5,254.5c0,0-16.6-11.5-17.9-41.7c-1.3-30.2,24.5-50.4,56.2-43.4c0,0-34.8-12.9-52.5,14.4
			C365.6,211.2,379.3,242.7,397.5,254.5z"/>
	</g>
	<g>
		<path class="st12" d="M364.9,659.2c0,0-42.1-36.7-49.9-76.5c0,0,4.1,9.8,12.6,16.6c0,0-21.4-30.4-19-65.1
			c2.4-34.7,22.2-41.1,22.2-41.1s-9.2,8.2-10.1,14.2c0,0,12-20.1,42.9-14.2c30.9,6,47.8,29.9,47.8,29.9s-31.9-57.5-80.2-52.8l10,6.3
			c0,0-34.1-5-50.2,20.6l10.4-2.5c0,0-16.6,14-18.4,44.6c0,0,3.9-4,6.5-5.6c2.7-1.7,3.4-2.1,3.4-2.1s-2.4,6.6-3.4,20.1
			c-0.9,13.5,0.4,21.9,0.4,21.9s2.9-10.2,3.9-11.5c1-1.4,1.3,0.6,1.7,2.6C296.1,566.5,311.5,624.4,364.9,659.2z"/>
	</g>
	<g>
		<path class="st12" d="M271.1,530.5c0,0-0.3-9.8,5.5-20.5c5.8-10.7,13.2-17.6,13.2-17.6s-3.1-1-6.8,0c0,0,14.7-14.4,31.3-16
			c0,0-4.9-0.8-10.2,0.6c0,0,3.3-3.9,8.6-4.4c5.3-0.5,11-10,11-10s-2.4,3-7.3,1.5c-4.9-1.4-4.6-9.5,6.3-17.1
			c10.9-7.6,13.2-21.6,13.2-21.6s-2.7,3.7-7.4,5.4c0,0,4.7-10.3,4.7-18.9c0,0-9,14.4-26.1,18.3c0,0,2.4,1.3,6.8,1.3
			c4.4,0,7.6,0,7.6,0s-8.2,10.3-13.2,13.1s-10.9,3.5-13.2,6.9l11,1c0,0-5.3,6.3-8.7,7.8c-3.5,1.5-7.1,4-7.7,5.8
			C289,468,289,468,289,468l12.7,0.2c0,0,0.6,0.3-2.8,2c-3.5,1.7-16.8,6.8-21.9,13l9.9-1.3c0,0-11.8,9.5-13.1,11.2
			c-1.3,1.7-3.9,5.8-3.9,5.8l7.1-1.7l-13.3,14.6l1.6,1.7L271.1,530.5z"/>
	</g>
	<g>
		<path class="st4" d="M341,508.9c0,0,9.9,1.7,20.8,9.2c10.9,7.5-1.3-7.1-11.5-11.1c0,0,18.9,1.9,30,15.9
			c11.1,14,22.2,67.5,23.9,81.1c1.7,13.6,14.9,38.4,34,51.7c19.1,13.3,24.8,5.7,36.4,9.1c11.6,3.4,25.3,0,35.3-9.1
			c0,0-15.1,6.7-30.8,3.4c0,0,25.8,2.7,33.6-10.8c7.8-13.5-0.6-25.1-5.3-21.1c-4.7,4-8.5,14-22.2,16.6c0,0,10.8-3.4,12.6-13.8
			c0,0-6.5,11-23.2,9.3c0,0,15.3-2.2,19.8-20.1c4.5-17.9,4-24.6,11.8-48.2c7.8-23.6,21.6-52.8,39.6-69.5c18-16.7,59-37.1,108.2-31.9
			c0,0-48.2,1.4-74,27.4c0,0,13.5-7.2,29.5-5.2c0,0-21.5,8-32.2,32c0,0,17.5-19.5,43.5-13.5c0,0-27-9-53.8,52.1
			c0,0-9.7,16.2-12.8,20.5c-3.1,4.3-19.8,32.7-28.3,52.1c-8.5,19.4-18.7,36.5-25.7,42.5h3.8l1,6.7c0,0-8.2,1.1-16.2,0
			c-8-1.1-13.7-3.5-20.6-2.6c-6.9,0.9-9,2.1-18.1,1.1c-9.1-1-11.4-1.6-15.1-4.7c-3.7-3-5.2-5.4-5.2-5.4s-0.9-6.2-6-13
			c-5.1-6.8-5.1-6.8-5.1-6.8l-10-4.1c0,0,2.8,5.5,7.7,9c0,0-6.2,1.1-16.7-1.9c0,0,5.8,1.3,8,0c0,0-20-17.1-22.3-35.8
			c0,0-2.8-40.3-13.7-57.5c0,0,3.5,4.3,7.7,13.9C379.6,576.4,375.3,535.3,341,508.9z"/>
	</g>
	<g>
		<path class="st4" d="M537.8,671.6c0,0,4-5.8,8.5-7.8c4.5-2.1,24.1-17.2,31.3-31c0,0,1.3,5.5-0.8,10.8c0,0,28.6-4.5,62.5-35.9
			s34.5-83,27-100.5c0,0,6.2,5.2,8.5,12c0,0,0.1-10.2-5.9-15.9c0,0,6.1,2.1,9.3,5c0,0-0.1-12.6-11.1-15.4c0,0,6.1,0.7,11.1,5.9
			c5,5.1,7.8,14.1,7.8,14.1l1.2,7.6l-8-6.5c0,0,3.5,10.3,4,22.8c0.5,12.5-4.1,25.5-5.8,30.9c-1.7,5.3-7.5,22.9-22.1,38.3
			c-14.5,15.4-33.8,28.5-33.8,28.5l-29.8,19L572,665.4c0,0-3.5-5.3-3.5-7.7c0-2.4,0-3.8,0-3.8s-7,6.9-12.2,9.3
			c-5.2,2.5-11.4,5.7-11.4,5.7L537.8,671.6z"/>
	</g>
	<g>
		<path class="st4" d="M612.5,619c0,0,39.1-30.2,48.1-64.1C660.6,554.9,657,592.2,612.5,619z"/>
	</g>
	<g>
		<path class="st3" d="M358.6,638.1c0,0,0.5,11.8,16.3,23.7c15.8,11.9-2.8,17.6-14.5,17.7H420v8.5c0,0,9.6,0.9,11.1-7.7
			s-2.7-12.3-4.8-17.2c-2.1-4.9-7.3-10.2-7.3-10.2l-10-4.1c0,0,0.7,3.4,3.9,6c3.2,2.6,3.9,3.7,3.9,3.7s-11.7-0.7-18.8-2.7
			c-7.1-2-16.5-8.2-16.5-8.2l3.7,7.2c0,0-11-3.9-17.7-8.4C360.7,641.8,358.6,638.1,358.6,638.1z"/>
	</g>
	<g>
		<path class="st13" d="M696.6,326.4c0-0.4,0-0.8,0.1-1.3c0.3-4.4,0.7-11.2-6.5-30.9c-7.9-21.5-29.2-34.6-36-35.9
			c-4.6-0.9-8,1.8-17,9c-3.6,2.9-8.1,6.5-13.9,10.8c-19,14.2-42.8,22-46.5,23.1c-0.6,2-1.2,4.1-2,6.3c-4.7,13.6-12.1,24.6-20.3,32.8
			c0,4-1.3,41.2-31.1,45.2c-2.5,0.3-4.9,0.5-7.3,0.5c-1.8,0-3.6-0.1-5.4-0.3c0,0,0,0,0,0c17.6,5.1,37.6,0.2,44.9-14.7
			c7.3-14.9,11.2-22.9,27.2-22.7c16,0.2,22.9,14.7,11.4,27.4c-11.4,12.7-16.8,27.9-17.3,56.4c-0.4,28.5-7.1,44-16.4,46.6
			c-9.3,2.6-23.5,12.3-46,44.7c-22.5,32.4-28.5,81.6-36.1,84.6c-7.6,3-13.6-12.3-16.8-22.7c-3.2-10.4-11-16.4-11-16.4
			s2.6,6.7,4.5,12.2c1.9,5.5,1.7,16.1-3.2,0s-18.8-32.3-18.8-32.3c5.6,12.8,6.9,23.5,6.9,23.5c-6.8-18.5-25.6-46-26.3-47
			c12.9,22.5,27.7,54.8,33.6,73.9c10.6,34.5,24.5,38.2,24.6,38.2c0.1,0,5.3,1.5,10.8-2.1c6.4-4.1,10.8-13.5,12.7-27
			c3.2-22.2,21.1-91.2,60.7-116.5c9.9-6.3,19.1-11.1,27.8-14.6c-0.4-5.1-3.4-51.7,5.7-73.3c0-0.1,0.1-0.2,0.1-0.4
			c0.1-0.3,0.3-0.8,0.6-1.3c0.5-1.1,1.2-2.7,2.1-4.6c0.9-1.9,2.1-4,3.4-6.3c0.7-1.1,1.3-2.3,2.1-3.5c0.7-1.2,1.5-2.4,2.3-3.5
			c0.8-1.2,1.6-2.3,2.4-3.4c0.8-1.1,1.6-2.2,2.4-3.2c0.8-1,1.6-2,2.4-2.9c0.4-0.5,0.8-0.9,1.1-1.3c0.4-0.4,0.8-0.8,1.1-1.2
			c0.7-0.8,1.4-1.5,1.9-2.1c0.6-0.6,1.1-1.1,1.6-1.5c0.5-0.5,0.9-0.9,1.2-1.1c-0.2,0.2-0.6,0.6-1.1,1.2c-0.4,0.4-0.9,1-1.5,1.6
			c-0.6,0.6-1.2,1.4-1.8,2.2c-0.3,0.4-0.7,0.8-1,1.2c-0.4,0.4-0.7,0.9-1.1,1.4c-0.7,0.9-1.5,1.9-2.2,3c-0.7,1.1-1.5,2.1-2.3,3.3
			c-0.8,1.1-1.5,2.3-2.2,3.5c-0.7,1.2-1.4,2.4-2.1,3.6c-0.7,1.2-1.3,2.4-1.9,3.5c-0.5,1-1,1.9-1.4,2.8
			c17.3-19.1,66.3-45.6,79.1-51.5C693.5,334.9,696.5,329.1,696.6,326.4z M459.8,597.9c0.2,0.9,0.6,2.1,1.1,3.6s1,3.2,1.7,5
			c0.6,1.8,1.4,3.7,2.2,5.6c0.4,0.9,0.8,1.9,1.3,2.8c0.5,0.9,0.9,1.8,1.4,2.6c0.5,0.8,1,1.6,1.5,2.3c0.5,0.7,1,1.3,1.5,1.9
			c0.5,0.5,1,1,1.5,1.4c0.5,0.4,0.9,0.7,1.3,0.9c0.4,0.2,0.7,0.3,1,0.4c0.2,0.1,0.3,0.1,0.3,0.1c0,0-0.2,0-0.3-0.1
			c-0.2-0.1-0.6-0.1-1-0.3c-0.4-0.2-0.9-0.4-1.5-0.7c-0.3-0.2-0.5-0.4-0.8-0.6c-0.3-0.2-0.6-0.5-0.9-0.7c-0.6-0.5-1.2-1.2-1.7-1.9
			c-0.6-0.7-1.1-1.5-1.6-2.3c-0.5-0.8-1-1.7-1.5-2.6c-0.5-0.9-0.9-1.9-1.3-2.8c-0.8-1.9-1.5-3.9-2.1-5.7c-0.6-1.9-1-3.6-1.4-5.1
			c-0.4-1.5-0.6-2.8-0.8-3.7c-0.1-0.9-0.2-1.4-0.2-1.4S459.5,597,459.8,597.9z M488.8,618.3c-0.2,0.6-0.6,1.6-1.1,2.8
			c-0.5,1.2-1.1,2.6-2,4.1c-0.9,1.5-2,3.3-3.5,4.8c-0.8,0.8-1.7,1.5-2.8,2.1c-1.1,0.5-2.4,0.9-3.7,0.8c-2.7-0.2-5.1-1.8-7-3.7
			c-2-2-3.6-4.3-5.1-6.7c-0.8-1.2-1.4-2.5-2.2-3.8c-0.7-1.2-1.4-2.5-2-3.8l-1-2l-0.9-2c-0.6-1.3-1.2-2.6-1.8-3.9
			c-1.2-2.6-2.2-5.2-3.2-7.8c-0.5-1.3-1-2.5-1.4-3.8c-0.4-1.2-0.9-2.4-1.3-3.6c-0.8-2.4-1.5-4.6-2.2-6.7c-1.3-4.1-2.2-7.7-2.9-10.1
			c-0.6-2.5-0.9-3.9-0.9-3.9s0.4,1.4,1.1,3.8c0.7,2.4,1.8,5.9,3.2,10c0.7,2.1,1.5,4.3,2.3,6.6c0.9,2.3,1.8,4.8,2.8,7.3
			c1,2.5,2.1,5.1,3.3,7.7c0.6,1.3,1.2,2.6,1.8,3.9l0.9,2l1,1.9c0.6,1.3,1.3,2.6,2,3.8c0.7,1.3,1.4,2.5,2.1,3.7
			c1.5,2.4,3.1,4.7,4.9,6.6c1.9,1.9,4.1,3.4,6.5,3.6c2.4,0.2,4.5-1.1,6-2.5c1.5-1.5,2.7-3.1,3.6-4.6c0.9-1.5,1.6-2.9,2.1-4
			c0.9-1.9,1.4-3.1,1.5-3.5C489.1,617.6,489,617.9,488.8,618.3z M536.2,501.4c-0.4,0.4-0.9,0.9-1.4,1.5c-0.5,0.5-1.1,1.1-1.6,1.8
			c-1.1,1.3-2.3,2.9-3.6,4.5c-0.7,0.8-1.3,1.7-2,2.6c-0.7,0.9-1.3,1.9-2,2.9c-0.4,0.5-0.7,1-1.1,1.5c-0.3,0.5-0.7,1.1-1,1.6
			c-0.7,1.1-1.4,2.2-2.1,3.3c-0.4,0.6-0.7,1.1-1.1,1.7c-0.3,0.6-0.7,1.2-1,1.8c-0.7,1.2-1.4,2.4-2,3.6c-1.4,2.4-2.6,5-3.9,7.4
			c-1.2,2.5-2.5,5.1-3.6,7.6c-1.1,2.5-2.3,5-3.2,7.5c-0.5,1.2-1,2.4-1.5,3.6c-0.5,1.2-0.9,2.3-1.4,3.5c-0.9,2.3-1.6,4.4-2.4,6.4
			c-1.4,4-2.5,7.3-3.3,9.7c-0.8,2.4-1.1,3.7-1.1,3.7s0.3-1.4,1-3.8c0.6-2.4,1.6-5.8,2.9-9.8c0.7-2,1.4-4.2,2.2-6.5
			c0.4-1.1,0.8-2.3,1.3-3.5c0.5-1.2,1-2.4,1.4-3.6c1-2.5,2.1-5,3.2-7.5c1.1-2.5,2.4-5.1,3.6-7.6c1.3-2.5,2.6-5,4-7.5
			c0.7-1.2,1.4-2.4,2.1-3.6c0.3-0.6,0.7-1.2,1-1.8c0.4-0.6,0.7-1.1,1.1-1.7c0.7-1.1,1.4-2.2,2.1-3.3c0.4-0.5,0.7-1.1,1-1.6
			c0.4-0.5,0.7-1,1.1-1.5c0.7-1,1.4-1.9,2.1-2.8c0.7-0.9,1.3-1.8,2-2.6c1.4-1.6,2.7-3.1,3.8-4.4c0.5-0.7,1.2-1.2,1.7-1.7
			c0.5-0.5,1-1,1.5-1.4c1.6-1.5,2.5-2.5,2.7-2.7C538.6,498.8,537.6,499.8,536.2,501.4z M626.4,279c-0.3,0.2-0.6,0.5-0.9,0.8
			c-0.3,0.3-0.7,0.6-1.1,0.9c-0.8,0.6-1.7,1.4-2.7,2.1c-1,0.7-2.1,1.5-3.3,2.3c-1.2,0.8-2.5,1.6-3.8,2.4c-1.4,0.8-2.7,1.6-4.2,2.4
			c-1.4,0.8-2.9,1.6-4.4,2.4c-3,1.6-6,3-8.8,4.4c-2.8,1.3-5.5,2.5-7.8,3.5c-4.6,1.9-7.8,3.1-7.8,3.1s0.8-0.3,2.1-0.9
			c1.3-0.6,3.2-1.5,5.5-2.5c2.3-1,4.9-2.3,7.7-3.7c2.8-1.4,5.8-2.9,8.8-4.4c1.5-0.8,3-1.6,4.4-2.3c1.5-0.8,2.8-1.6,4.2-2.4
			c1.4-0.8,2.6-1.6,3.9-2.3c1.2-0.8,2.3-1.5,3.4-2.2c1.1-0.7,2-1.4,2.8-2c0.4-0.3,0.8-0.6,1.1-0.8c0.3-0.3,0.7-0.5,0.9-0.8
			c0.8-0.7,1.4-1.2,1.6-1.4C627.8,277.7,627.2,278.2,626.4,279z M628,277.5c0.1-0.1,0.1-0.1,0.1-0.1S628.1,277.5,628,277.5z"/>
	</g>
	<g>
		<g>
			<path class="st12" d="M435,280.6c0,0-6.7,5.3-8.7,12.4c0,0-0.4-19.5,8.5-33.5c0,0-9.4,0.2-13.8,6.2c-4.3,6-2.8-3.2,5.7-6.2
				c8.5-3,7.9-9.6,7.9-9.6s-3.1,2.3-7.7,4.5c-1.7,1.8-4.8,3.4-8.9,4.2c-0.8,2.1-3.6,10.8-4.3,21.7c2.3-3.9,6.5-9.8,11.2-13l4-2.6
				l-2.6,4c-0.1,0.1-9,14.5-1.2,41.6c0.6-4,1.9-9.7,4.2-13.1l1.6-2.3l0.2,2.8c0,0.2,1.7,17.3,17.8,37.8c5.4,6.8,11.2,11.8,17,15.5
				C456.7,341.3,431.9,312.1,435,280.6z"/>
		</g>
		<g>
			<path class="st12" d="M424.4,255.5c0.6-0.2,1.1-0.5,1.6-0.7C425.5,255.1,425,255.3,424.4,255.5z"/>
		</g>
	</g>
	<g>
		<path class="st14" d="M407.2,236.6c0,0-19.2-13.5-18.2-31.5c1-18,20.2-29.7,38.4-23.2c0,0-17.5-1.9-30.3,13.5
			C384.3,210.7,402.1,231,407.2,236.6z"/>
	</g>
	<g>
		<path class="st13" d="M388.8,455.9c0,0,11.7-10.6,12.3-27.3c0.6-16.7-10-26.4-10-26.4s6.5-0.7,10,4c3.6,4.7,2.4-13.5-8.2-24.4
			c0,0,13.1,4,17.1,44.6l1.5,20l-20.7,23.1C390.7,469.5,392.4,461.7,388.8,455.9z"/>
	</g>
	<g>
		<path class="st4" d="M242.5,446.6c0,0,5.2,18.7,16.2,20.5c11,1.8,16.3-5,15.9-4.3c-0.4,0.7,12.6,13,12.6,13l-11.1,8.1l9.9-1.7
			l-10.8,9.6C275.2,491.7,253.4,472.9,242.5,446.6z"/>
	</g>
	<g>
		<path class="st12" d="M112.6,216c0,0-9.1-3.4,3.8-26.3c12.9-22.9,46.2-67.9,95.8-69.1c49.6-1.1,57.8,9.2,57.8,9.2
			s-31.3-19.8-67-14.1c-35.8,5.8-62.2,27.5-82.2,56L104,201.7C104,201.7,98.3,211.8,112.6,216z"/>
	</g>
	<g>
		<g>
			<polygon class="st15" points="463.2,411.3 435.8,411.3 435.8,418.7 445.1,418.7 445.1,460 453.9,460 453.9,418.7 463.2,418.7 			
				"/>
		</g>
		<g>
			<polygon class="st15" points="495.2,452.6 479,452.6 479,439.3 490.9,439.3 490.9,431.9 479,431.9 479,418.6 495.2,418.6 
				495.2,411.2 470.2,411.2 470.2,460 495.2,460 			"/>
		</g>
		<g>
			<path class="st15" d="M525,414.1c-2.7-2.3-6-3.4-9.8-3.4c-3.8,0-7.1,1.1-9.8,3.4c-2.7,2.3-4.1,5-4.1,8.3V449c0,3.2,1.4,6,4.1,8.2
				c2.7,2.3,6,3.4,9.9,3.4c3.8,0,7.1-1.1,9.8-3.4c2.7-2.3,4.1-5,4.1-8.3v-6.8H520v6.7c0,1.2-0.5,2.2-1.5,3c-1,0.8-2.2,1.2-3.6,1.2
				c-1.4,0-2.6-0.4-3.6-1.2c-1-0.8-1.5-1.8-1.5-3v-26.7c0-1.2,0.5-2.2,1.5-3c1-0.8,2.2-1.2,3.6-1.2c1.4,0,2.6,0.4,3.6,1.2
				c1,0.8,1.5,1.8,1.5,3v5.7h9.1v-5.6C529.1,419.2,527.7,416.4,525,414.1z"/>
		</g>
		<g>
			<polygon class="st15" points="555.6,411.3 555.6,432 545,432 545,411.3 536.3,411.3 536.3,460 545,460 545,439.4 555.6,439.4 
				555.6,460 564.4,460 564.4,411.3 			"/>
		</g>
		<g>
			<path class="st15" d="M476.1,483.2c-2.4-0.1-5,1.9-5.5,4.2c-0.6-0.6-1.3-1.2-2-1.7c-0.3-0.2-0.7,0.1-0.6,0.5c0.7,1.6,1.9,3,3,4.3
				c0.5,0.6,2.5,3.3,3.6,2.2c1.1-1-1.2-2.6-1.7-3.1c-0.2-0.2-0.3-0.3-0.5-0.5c0.1-0.2,0.3-0.5,0.4-0.6c0.1-0.3,0.3-0.6,0.4-0.9
				c3-1.7,4.7-1.5,5.3,0.6c1.6,2.6,1.3,6.5-1.3,8.3c-3.4,2.3-8.8,1-12.5-0.9c-3.2-2.6-5.2-6.7-5.2-10.9c0-2.9,0.9-5.9,2.7-8.3
				c1.4-1.9,2.5-2.5,4.9-3.1c1.2-0.6,2.4-0.7,3.6-0.5c2.6-0.1,3.8,1.7,3.6,5.4c-0.3,0.5,0.3,1.1,0.8,0.8c4.1-2.3,1.7-7.3-1.9-8.7
				c-5.2-2-10.9,0.5-13.8,5c-5.4,8.4-2.4,19.4,5.6,22.7c5.7,4.3,17.3,2.5,17.3-5.8C482,488.8,480.3,483.3,476.1,483.2z"/>
		</g>
		<g>
			<path class="st15" d="M497.9,471.6c-0.5-0.3-1.2,0.1-1.1,0.7c0.2,4.9,3.3,9.5,1.4,14.5c-1.4,3.6-5.6,5.2-8.5,2.4
				c-2.5-2.4-3.4-5.7-4.2-9c-0.1-0.3-0.5-0.3-0.6,0c-1.6,7.1,4.3,18.3,12.6,13.2C504.1,489.3,505.3,475.6,497.9,471.6z"/>
		</g>
		<g>
			<path class="st15" d="M529.2,466.3c-1.5,4-2.9,8.1-4.2,12.2c-2.2,2.8-5.4,2.3-8.3,0.7c-3.9-2.2-6.2-5.4-8.5-9.1
				c-0.3-0.5-1-0.2-0.9,0.4c1.1,6,6.6,11.1,12.2,12.8c1.5,0.5,2.7,0.5,3.8,0.3c-1.2,3.5-2.4,7.1-3.8,10.5c-3.5,8.9-9.2,17.6-11.1,27
				c-0.1,0.5,0.6,1,1,0.6c6.3-7.1,10.2-16.9,13.7-25.6c3.7-9.5,6.7-19.4,6.8-29.6C529.8,465.9,529.3,465.9,529.2,466.3z"/>
		</g>
	</g>
	<g>
		<ellipse class="st15" cx="489.5" cy="252.9" rx="4.4" ry="7.4"/>
	</g>
	<g>
		<ellipse class="st15" cx="546.2" cy="252.9" rx="4.4" ry="7.4"/>
	</g>
	<g>
		<path class="st15" d="M516.3,265.7l-0.9,6.2c0,0-1.7-0.2-1.4-2.1C514.3,267.8,516.3,265.7,516.3,265.7z"/>
	</g>
	<g>
		<path class="st15" d="M522.4,265.7l0.8,5.4c0,0,1.5-0.2,1.2-1.9C524.1,267.6,522.4,265.7,522.4,265.7z"/>
	</g>
	<g>
		<path class="st15" d="M512.1,307.6c-0.6,0-1.1-0.3-1.3-0.8c-0.4-0.7-0.1-1.6,0.7-2c0.3-0.1,6.6-3.2,17.1-6.5
			c0.8-0.2,1.6,0.2,1.9,1c0.2,0.8-0.2,1.6-1,1.9c-10.2,3.2-16.6,6.3-16.7,6.3C512.5,307.6,512.3,307.6,512.1,307.6z"/>
	</g>
	<g>
		<path class="st10" d="M487.7,248.1c0,1-0.7,1.8-1.6,1.8c-0.9,0-1.6-0.8-1.6-1.8c0-1,0.7-1.8,1.6-1.8
			C487,246.2,487.7,247,487.7,248.1z"/>
	</g>
	<g>
		<path class="st10" d="M545,248.1c0,1-0.7,1.8-1.6,1.8c-0.9,0-1.6-0.8-1.6-1.8c0-1,0.7-1.8,1.6-1.8C544.3,246.2,545,247,545,248.1z
			"/>
	</g>
	<g>
		<g>
			<path class="st1" d="M776.6,257.8c-13.2-63-62.6-97.4-104.4-108.6c-39.9-10.7-95.4-30.7-104.4-39.5c-9.7-9.4-18.5-8-18.8-8
				l-1.9,0.3l1.4,1.4c0,0,2.3,2.3,4,8.8c0.3,1.3,0.8,2.6,1.2,3.7c-5.1-0.7-20.5-2.7-35.6-5.1c-15.6-2.5-18.6,1-21.3,8.8
				c-1.9,1.2-13.2,8.1-18.4,10.6c-7.3,3.4-9.5,9-6.6,16.6c1.3,3.3,2.9,7.1,4.3,10.5c2,4.9,4,9.5,4.2,10.7c0,0.1,0,0.1,0.1,0.2
				c-1.8,0.3-5.3,0.7-9.9,0.3c-6.9-0.7-13.9,0.5-16.5,2.1l-2.4,1.5l2.8,0.4c0.1,0,6.2,0.8,9.7,3.5c-2.5,0.3-6.5,1.3-10.9,4.9
				c-3.3-4.9-9.7-10.3-22.2-13.8c-25.4-7.3-47.7,5-55.4,30.6c-6.9,22.8,4.7,47.8,19.8,56.7c5.9,3.5,11.8,4.8,16.9,4.8
				c1.1,0,2.2-0.1,3.3-0.2c-1.3,3.7-4.1,13.5-4.1,25.4v4.2l1.9-3.7c0-0.1,4-7.8,9.1-13c-2.5,6.7-5.6,21.2,1.9,43.5l1.5,4.6l0.4-4.8
				c0-0.1,0.8-8.6,3.1-14.2c0.8,4.2,3.1,12.6,9.1,23c-4.8,1.1-21.6,5.2-41.5,15.9c-21.7,11.6-51.7,33.5-71.5,71.7l-0.1,0.2
				c0,0.1-0.7,3.1,2.2,5.8c-2.6,2.5-11.8,10.7-23.2,11.6l-4.4,0.4l4.1,1.6c0.3,0.1,7.2,2.7,15.2,1.4c-2.7,3.7-8.8,11.1-15.1,12.6
				c-9.3,2.2-11.4,6.8-11.5,7l-0.9,1.9l2-0.5c2-0.5,7.3-1.5,10.6-0.5c-1.7,2-5.8,6.3-9.7,7.4c-6.1,1.7-6.9,8.4-7,8.6l-0.2,1.4
				l1.4-0.4c0.1,0,6.3-1.6,11.3-0.9c-3,1-7.8,2.8-12.6,5.3c-6.1-4.9-14.6-13.1-21.3-25.5c-15.3-28.1-14.9-63.4,1.3-104.8
				c41.9-107.1,48.2-158.2,23.9-194.9c-12.7-19.3-45-37.5-82.2-35c-20.2,1.4-39.2,8.6-56.5,21.6c-19.6,14.7-36.5,36.7-50.2,65.1
				c-1.3,2.6-1.4,5.6-0.5,8.4c1,2.8,3,5,5.6,6.3c2.6,1.3,5.6,1.4,8.4,0.5c2.8-1,5-3,6.3-5.6c28.1-58.4,63.6-72.6,88.4-74.3
				c30.3-2,54.7,13.5,62.4,25.2C290,186.1,291.3,224,247.6,336c-23.5,60.2-12.7,100.9,0.5,124.4c8.4,15,18.7,25,26.2,31
				c-2.4,2.5-4.5,5.3-6.1,8.3l-1.5,3l2.9-1.6c1.1-0.6,3.3-1.8,5.5-2.7c-3,2.6-7.4,6.7-12.3,13.1H64.9c-0.2,0-0.5,0.1-0.6,0.2
				l-8.1,6.6c0,0,0,0,0,0c-0.1,0.1-0.1,0.1-0.2,0.2c0,0,0,0,0,0.1c0,0,0,0,0,0.1c0,0.1-0.1,0.2-0.1,0.3c0,0,0,0,0,0
				c0,0.1,0,0.2,0,0.3c0,0,0,0,0,0.1c0,0,0,0,0,0.1l60.5,160.5v12.5h305.1V689c0.9-0.1,1.6-0.3,2.3-0.5c3.5-1,5.9-2.7,7.2-5.1
				c1.6-2.9,0.9-5.8,0.8-6.4c0-0.1,0-0.4-0.1-0.7c3.3,3.8,10,8.3,22.8,8.1c6.6-0.1,9.8-0.9,12.1-1.4c2.6-0.6,4.2-1,8.9-0.2
				c0.9,0.2,1.9,0.3,3,0.5c6.2,1.1,13.9,2.4,20.1,2.4c2.6,0,4.9-0.2,6.7-0.8c1.4,1.6,3.4,2.8,6.2,3.6c2.6,0.7,6.1,1,10.4,1
				c4.4,0,9.8-0.3,15.9-0.6c10.4-0.5,23.3-1.2,37.7-0.8c29.3,0.9,50.7,0.8,55.1,0.6c1.6-0.1,3.1-0.7,4.3-1.7
				c1.5-0.3,9.1-2.5,9.5-10.6c0.1-2.9-0.7-5.2-2.5-6.9c-3.3-3-9.2-2.9-13.6-2.3c-7.3,1-24.2,0.6-35.1-2.5
				c-6.6-1.9-11.7-2.3-14.8-2.4c3.4-2.1,7.6-4.6,12.5-7.4c23.1-13.4,61.8-35.8,79.4-67.9c19.3-35.4,13.6-62,10.7-70.8
				c3.4,3,6.3,7.7,6.3,7.8l2.4,4l-0.6-4.6c-2.4-19.9-11.1-27.4-16.9-30.2c4,0.4,8,1.7,8.1,1.8l2.9,1l-1.8-2.5
				c-9.2-13.2-25.7-15.9-31.6-16.4c3.9-4,8-6.3,8.1-6.3l3-1.7l-3.4-0.2c-26.2-1.2-47.3-1.2-71.3,8c-0.5-7.8-3.4-59.8,8.1-76.6
				c12.1-17.6,63.3-46.4,81.6-54.9c14.9-6.9,22.6-13.3,22.9-18.9c0-0.4,0-0.8,0.1-1.2c0.1-1,0.1-2.1,0.1-3.4
				c3.1-3.2,11.8-9.4,21.8-16.5c6.9-4.9,14.8-10.6,22.5-16.3c15-11.3,18.8-18.8,19.8-22c3.3,2.9,3.6,8.6,3.6,8.7l0.3,4.9l1.7-4.6
				c3.8-10.7,2.1-19,0.6-23.4c3.4,2.8,5.7,6,5.7,6l2.8,4.1L776.6,257.8z M517.7,113c16.5,2.6,33.3,4.8,36.8,5.2
				c0.9,2.1,1.9,3.8,2.5,5c-6,0.6-14.1,3.1-16.6,12.5l0,0c-1.8,1.9-3.4,4.1-4.2,6.8l-0.7,2.8l2.3-1.7c2.1-1.5,8.2-5.2,12-4
				c1,0.3,1.3,0.9,1.4,1.3c0.6,2.3-2.4,7.1-5.5,10.4c-0.9,0.9-1.7,2-2.3,3c-16.4-0.8-23.3-3.5-26.1-5.5c2.2,0.6,5,1,8.4,1
				c2.6,0,5.7-0.2,9.1-0.9l0,0c-12.7,1.1-20.1-2.8-22.5-4.3c1.9-2,3.1-5.9,2.1-8.7l0,0c-0.4,5.1-4.3,8.2-6.5,9.6
				c0-3.6-1.1-8.5-3.5-11.2l0,0c3.4,12.3,0.5,21.6-3.2,29.8c-2.1,4.7-6.3,5.4-8.5,5.3c-3.1,0-5.3-1.3-5.5-1.8
				c-0.4-1.8,2-10,3.5-14.9l0.5-1.7c0.7-2.3,1.2-5.2,1.8-8.6c0.9-5.1,2-11.5,4.1-17.4c0.3-1,0.7-1.9,1-2.8
				C500.6,114.4,501.9,110.5,517.7,113z M541.2,161.9c0.1,0,7.3-1.4,24.5,2c18,3.6,46.2,14.4,67,25.8c9.4,5.1,17.9,12.1,26.1,18.9
				c10.4,8.5,20.2,16.6,31.4,21c-1.9,1.3-3.7,2.7-5.4,4.3c-14.5,13.4-26.2,22-27.9,23.3c-0.9-0.3-1.6-0.5-2.3-0.7
				c-5.5-1.1-9.3,2-18.6,9.4c-3.6,2.9-8.1,6.4-13.8,10.7c-17.3,12.9-38.6,20.4-44.7,22.4c3.7-14.3,2.9-24.2,1.9-29.3
				c2.1,3.2,3,7.6,3,7.7l1.2,5.4l0.8-5.5c1-6.8,1.5-13.2,1.7-19c4.3-1,11.1-6.1,16.1-15.2c3.9-7.1,9.5-22,2.4-41.1
				c-11.6-31.5-41.5-26.3-47.5-24.9c-5.4-5.3-11.9-10-19.4-12.9l-2.5-1l1.3,2.4c0,0,1.3,2.4,2,5.1c-4.4-3-15.5-9.9-25.7-11.8
				c-2.2-2.7-4.6-7.2-5.2-8.3c0.1-0.9,0.2-1.8,0.3-2.8c0.6-0.3,1.8-1,3-2c0.6,0.4,1.4,0.9,2.7,1.5c0.8,2,5.1,7.4,28.8,8.7
				c-1.4,2.4-2.1,4.4-2.1,4.5l-0.6,1.7L541.2,161.9z M585.9,244.7c2.5-2.6,17.4-19.5,9.5-38.7c-8.5-20.9-26.8-18.7-29.4-18.3
				c-2.2-3-4.6-6-7.4-8.9c7.6-1.5,33.5-4.4,44,23.9c6.8,18.4,1.5,32.6-2.3,39.4c-4.5,8.1-10.4,12.9-14.3,14
				C586.2,252.1,586.1,248.3,585.9,244.7z M593.6,206.7c6.5,15.9-3.7,30.3-7.8,35.2c-1.4-20.9-7-31.8-7.6-32.9
				c-0.3-0.8-3.9-9.6-10.8-19.5C571.7,189,586.3,188.7,593.6,206.7z M506.9,153.7c0.8,1.4,1.8,3.2,3,4.8l-3.9-0.5l4.2,2.5
				c0,0,0.4,0.2,0.9,0.6c-0.1,0.8-0.3,1.4-0.8,1.8c-0.9,0.8-2.4,0.6-2.5,0.6l0,0c-1.3-0.2-2.7-0.2-4.2-0.2
				C505,160.3,506.1,157.2,506.9,153.7z M512.7,162.9c0.4,0.6,0.8,1.2,1.1,2c-0.6-0.2-1.3-0.4-2.1-0.6
				C512.2,163.9,512.5,163.4,512.7,162.9z M478,156.6c-1.4-3.4-3-7.2-4.3-10.5c-2.6-6.6-0.8-11,5.6-14c4.3-2,12.5-7,16.5-9.4
				c-0.2,0.5-0.4,1.1-0.6,1.6c-2.1,6.1-3.3,12.5-4.2,17.7c0,0.1,0,0.1,0,0.2c-0.3-0.5-0.7-0.9-1.1-1.4c-0.4-0.4-0.8-0.9-1.3-1.2
				c-0.4-0.3-0.9-0.6-1.2-0.8c-0.4-0.2-0.7-0.4-0.9-0.5c-0.2-0.1-0.4-0.2-0.4-0.2s0.1,0.1,0.3,0.2c0.2,0.1,0.5,0.4,0.8,0.6
				c0.3,0.3,0.7,0.6,1,1c0.3,0.4,0.6,0.9,0.9,1.3c0.6,0.9,0.9,2,1.1,2.8c0.1,0.4,0.2,0.7,0.2,0.9c0,0,0,0,0,0.1
				c-0.4,2-0.7,3.7-1.2,5.2l-0.5,1.7c-2.3,7.7-4.1,13.8-3.6,16c0,0.1,0,0.1,0.1,0.2c-0.8,0.2-1.7,0.3-2.3,0
				c-0.5-0.2-0.6-0.5-0.7-0.7C482,166.4,480.5,162.6,478,156.6z M430.9,295l-1.6,2.3c-2.3,3.4-3.6,9-4.2,13.1
				c-7.7-27.1,1.1-41.5,1.2-41.6l2.6-4l-4,2.6c-4.7,3.1-8.8,9.1-11.2,13c0.6-10.9,3.5-19.6,4.3-21.7c4.3-0.8,7.6-2.6,9.2-4.5l0,0
				c-3.5,2.5-16.9,6.6-30.6-1.5c-12.6-7.4-26.1-30.5-18.9-54.4c7.5-24.8,28.3-36.3,52.9-29.2c13.3,3.8,19.3,9.7,22,14.5l0,0.2
				c0,0,0.1,0,0.2,0c2.3,4.4,3,8,2.9,8.3l0,0l0,0c0-0.3,1.4-3.3-0.3-7.5c0.5,0.2,1,0.5,1.4,0.8c0.2,0.2,0.5,0.3,0.7,0.5
				c0.2,0.2,0.4,0.4,0.6,0.6c0.2,0.2,0.4,0.4,0.5,0.6c0.1,0.2,0.3,0.4,0.4,0.6c0.1,0.2,0.2,0.4,0.3,0.5c0.1,0.2,0.1,0.3,0.2,0.4
				c0.1,0.2,0.1,0.4,0.1,0.4s0-0.1-0.1-0.4c0-0.1,0-0.3-0.1-0.5c-0.1-0.2-0.1-0.4-0.2-0.6c-0.1-0.2-0.2-0.4-0.3-0.7
				c-0.1-0.3-0.3-0.5-0.4-0.7c-0.1-0.3-0.4-0.5-0.5-0.7c-0.2-0.2-0.4-0.5-0.6-0.7c-0.9-0.9-1.9-1.6-2.8-2c6.4-5.2,11.8-4.5,11.9-4.5
				l2.4,0.4l-1.4-1.9c-2.1-2.8-6.2-4.4-9.2-5.2c3-0.7,7.4-1.2,12.1-0.7c6,0.6,10.2-0.2,11.5-0.5c0.1,0.1,0.2,0.1,0.4,0.2
				c0.5,0.2,1.1,0.3,1.8,0.3c0.9,0,1.9-0.2,2.8-0.6c1.1,0.7,2.6,1.1,4.1,1.4c-0.3,0.1-0.6,0.3-0.8,0.4c-0.6,0.4-1.2,0.8-1.7,1.1
				c-0.5,0.4-1,0.8-1.4,1.2c-0.4,0.4-0.8,0.8-1.1,1.1c-0.3,0.3-0.5,0.7-0.7,1c-0.4,0.6-0.6,0.9-0.6,0.9s0.3-0.2,0.8-0.6
				c0.3-0.2,0.5-0.4,0.9-0.7c0.4-0.2,0.8-0.5,1.2-0.8c0.5-0.3,1-0.5,1.5-0.8c0.5-0.3,1.1-0.5,1.7-0.8c0.6-0.3,1.2-0.5,1.9-0.8
				c0.7-0.2,1.3-0.5,2-0.8c0.7-0.2,1.3-0.5,2-0.7c0.7-0.2,1.3-0.5,2-0.7c1.3-0.4,2.5-0.8,3.5-1.1c2.1-0.6,3.5-1.1,3.5-1.1
				s-1.5-0.2-3.7,0c-0.4,0-0.8,0.1-1.2,0.1c0.7-0.7,1.3-1.6,1.9-2.7c6.2-0.6,12.2,2,12.3,2l1.7,0.8l-0.4-1.9c-0.4-2.2-1.4-3.8-2.4-5
				c12,2.9,25,12.4,25.2,12.5l1.8,1.3l-0.2-2.2c-0.2-2.1-0.9-4.3-1.5-5.8c24.5,11.1,36.9,42.4,37.1,42.7l0.1,0.1
				c0.1,0.2,11.3,21.4,6.5,62.5c-1-2.6-2.7-5.7-5-7.2l-2.6-1.6l1.1,2.9c0.1,0.1,5.5,14.6-3.5,40.5c-9.4,27-28.6,44.4-44.3,49.8l0,0
				c7.5-2.1,16-7,23.8-14.3c-0.5,8.5-3.9,37.8-29.3,41.2c-6.2,0.8-12.2,0.6-17.9-0.8c0-0.1,0-0.3,0-0.4c0.1-0.5,0.1-1,0.2-1.4
				l0.2-1.4l0.4-1.4c0.1-0.5,0.3-0.9,0.4-1.4c0.2-0.4,0.3-0.9,0.5-1.3l0.6-1.3l-0.9,1.2c-0.3,0.4-0.5,0.8-0.8,1.3
				c-0.2,0.4-0.5,0.9-0.7,1.3c-0.2,0.5-0.4,0.9-0.5,1.4l-0.4,1.4c-0.2,0.5-0.2,1-0.3,1.5c-0.1,0.5-0.2,1-0.2,1.5
				c-0.1,0.5-0.1,1-0.2,1.5c-0.1,1-0.1,2-0.1,3c0,0.5,0,1,0.1,1.5c0,0.5,0.1,1,0.1,1.5c0.1,0.7,0.2,1.4,0.3,2.1
				c-0.3-0.4-0.6-0.7-0.8-1.1l-1-1.4c-0.3-0.5-0.6-1-0.9-1.5c-0.3-0.5-0.6-1-0.9-1.5l-0.8-1.5l-0.7-1.6c-0.3-0.5-0.5-1.1-0.7-1.6
				c-0.2-0.5-0.5-1.1-0.6-1.6c-0.1-0.3-0.2-0.6-0.3-0.9l0,0c0,0,0,0,0,0c-0.1-0.2-0.2-0.5-0.3-0.8c-0.2-0.6-0.4-1.1-0.6-1.7
				c-0.4-1.1-0.7-2.2-1-3.4c-0.3-1.1-0.6-2.3-0.9-3.4c0,2.4,0.4,4.7,0.9,7.1c0.1,0.5,0.2,1,0.3,1.4c-13.2-6.5-21.2-18.1-24.4-23.4
				c10.3,5,20.1,6.4,26.6,6.7l6.7,0.3l-6.3-2.2c0,0-1.3-0.5-3-1.2c3.8,0.8,9.1,1.4,15.5,1l0,0c-13.2,0-21.7-4.9-21.8-4.9l-5.4-2.4
				l4.3,4c1.2,1.1,2.7,2.1,4.2,2.9c-11.8-1.6-29.2-7.1-43.3-24.9c-16.1-20.5-17.8-37.6-17.8-37.8L430.9,295z M327.6,412.7
				c0.7-0.2,2-0.4,4.3,0c-0.8,1.7-1.9,2.9-2.5,3.5C327.8,414.8,327.6,413.5,327.6,412.7z M249.8,459.5c-13-23.2-23.6-63.3-0.3-122.7
				c44.1-112.8,42.6-151.2,25.9-176.7c-7.9-12.1-33.1-28.1-64.2-26c-25.3,1.7-61.5,16.2-90,75.4c-1,2.2-2.9,3.8-5.1,4.6
				c-2.3,0.8-4.7,0.7-6.9-0.4c-2.2-1-3.8-2.9-4.6-5.1c-0.8-2.3-0.7-4.7,0.4-6.9c13.6-28.2,30.3-49.9,49.6-64.4
				c17-12.7,35.6-19.9,55.4-21.2c36.5-2.4,68,15.3,80.4,34.1c23.8,36.1,17.5,86.7-24.1,193.1c-16.4,42-16.8,77.8-1.2,106.5
				c6.6,12.2,14.9,20.5,21.1,25.6c-4,2.3-8,5-10.8,8.2l-2.5,2.9l3.6-1.3c0.1,0,4-1.4,7.6-2.1c-2.3,1.6-5.4,4-8.4,7
				C268.3,484.2,258,474.3,249.8,459.5z M280.8,496.6l3.3-1.9h-3.8c-2.1,0-5.9,1.6-8.6,3c5.8-8.5,16.5-15,16.6-15.1l2.7-1.7
				l-3.2-0.2c-2.3-0.1-5.5,0.6-8.1,1.3c9.1-7.7,24.4-12,24.6-12.1l2.6-0.7l-2.4-1.1c-4.3-2-11.1-1-14.1-0.4c0.5-1.8,1.9-4.6,5.2-5.5
				c5.8-1.6,11.4-8.8,11.7-9.1l0.7-0.9l-1-0.6c-2.9-1.5-7.4-1.2-10.3-0.7c1.5-1.3,4.1-2.8,8.4-3.9c9.2-2.2,17.4-14.9,17.7-15.5
				l1.4-2.1l-2.5,0.6c-4.4,1.2-8.8,0.8-12,0.3c11.4-2.8,19.6-11.3,20.3-12.1c0.5-0.3,2.5-2,3.9-5.1c5.9,1.3,16,5.7,32,18.6
				c19.8,16.1,23.9,27.1,24.2,33c-1.9,2.3-4.9,6.4-5.2,6.7c-0.4,0.5-5.6,6.8-8.2,11.3c-11-7.9-25.7-14.2-47.4-13.9l-5,0.1l4.6,1.9
				c0.1,0,5.8,2.3,10.6,5.2c-10.2-1-36.4-1.2-49.5,21.2l-1.6,2.7l2.8-1.3c0.1,0,4.3-1.9,8.2-2.4c-5,4.6-16.6,17.9-17.6,43.9
				l-0.1,2.9l1.9-2.3c0.1-0.1,4.5-5.4,8.4-7.9c-1.6,6.4-5.8,25.3-3.2,41.9l1,6.3l1-6.3c0.5-3.4,1.7-8.8,3.2-11.7
				c0.9,4.1,3.5,13.5,10.3,27c-0.4,1.1-1.7,4.4-3.5,7.5c-0.1-1.2-0.3-2.4-0.7-3.5l-0.9-2.5l-1,2.4c0,0-0.8,1.9-2.7,4.7l-29.6-86.7
				c0,0,0-0.1-0.1-0.1c0,0,0-0.1-0.1-0.1c-0.1-0.1-0.1-0.2-0.2-0.2c0,0,0,0,0,0c0,0,0,0,0,0c-0.1-0.1-0.2-0.1-0.3-0.2c0,0,0,0,0,0
				C274.2,500.4,280.7,496.7,280.8,496.6z M389.9,471.8C389.9,471.8,389.9,471.8,389.9,471.8c0.3-0.3,0.6-0.5,0.9-0.9c0,0,0,0,0,0
				c3.1-3.2,13.3-14.2,19.4-22.6c1.1,27.6,1.1,59.2,1.1,73.1c-4.8-8.1-9.3-14.5-12.7-17.9c-1.4-1.4-2.8-2.9-4.3-4.5
				c-4.5-4.8-9.6-10.2-16.1-15.1c2.2-3.8,6.6-9.4,7.9-10.9C386.9,473,388.6,472.9,389.9,471.8L389.9,471.8z M388.6,470.4
				c-0.2,0.2-0.5,0.3-0.8,0.4c0.6-0.8,1.2-1.7,1.9-2.5c-0.2,0.8-0.4,1.3-0.5,1.5C388.9,470,388.7,470.2,388.6,470.4z M314.8,678.7
				l-53.6-159.5l3.4-4.6l56,164.1H314.8z M296.3,601.2c1.1-1.4,1.9-2.7,2.5-3.7c0.2,1.7,0.1,3.3,0.1,3.3l-0.1,3.1l1.9-2.5
				c2.2-2.9,3.9-6.5,4.8-8.8c4.1,7.8,9.5,16.9,16.8,27c20.7,28.9,36.1,38.1,41.3,40.6c-0.2,0.9-0.6,1.5-1.1,1.9
				c-0.8,0.6-1.9,0.4-1.9,0.4c-0.3,0-7-0.9-18.4,2.3c-6,1.7-14.4,2.7-23.1,2.9L296.3,601.2z M65.3,513.4H263l-3.4,4.6h-200
				L65.3,513.4z M259.4,520l53.3,158.7H118.1L58.2,520H259.4z M419.4,690.4H118.4v-9.7h301.1V690.4z M429.2,682.5
				c-1,1.9-3,3.3-6,4.1c-0.5,0.2-1.1,0.3-1.8,0.4v-8.3h-98.7l-2-5.9c0.5-0.1,1-0.1,1.5-0.2c3.5-0.4,7.1-0.8,10-0.8l0,0
				c-2.5-0.8-6.6-1.6-10.2-1.2c-0.6,0.1-1.3,0.1-1.9,0.2l-0.4-1.2c8.7-0.2,17-1.3,22.9-3c10.9-3.1,17.5-2.2,17.5-2.2
				c0.2,0,1.9,0.3,3.4-0.7c0.9-0.6,1.5-1.5,1.9-2.7c0,0,0.1,0,0.1,0l2.4,0.8l-1.2-2.2c-0.1-0.1-6.8-12.8-7.6-20.1
				c3.8,4.1,13.3,13.1,26.5,16.8l3.3,0.9l-2.3-2.6c0,0-2.3-2.6-4.1-5.4c5.7,3.9,18.2,10.7,34.9,10.4l2.9-0.1l-2.4-1.7
				c-2.3-1.7-5.7-4.7-7.3-7.1c1.7,0.9,4.3,2.1,7.1,2.9c10.7,8,12.1,23.7,12.1,23.8l0,0.2C429.8,677.5,430.5,680,429.2,682.5z
				 M592.5,666.6c11.6,3.2,28.6,3.5,35.9,2.5c3.9-0.5,9.2-0.7,12,1.8c1.4,1.2,2,3,1.9,5.3c-0.2,4.6-3.1,6.8-5.4,7.9
				c1-2.2,1.1-4.8,0.2-6.9c-1.9-4.6-6-6.6-12.2-6c-3.1,0.3-7.5-0.2-11.8-0.7c-3.5-0.4-12.1-0.7-15.1,0.6l0,0c2.9,0,11.4,1,14.8,1.4
				c4.4,0.5,8.9,1,12.2,0.7c5.3-0.5,8.7,1.1,10.2,4.8c0.8,1.9,0.5,4.3-0.6,6.1c-1,1.5-2.5,2.4-4.2,2.5c-3.4,0.2-23.4,0.3-55-0.6
				c-14.5-0.4-27.4,0.2-37.8,0.8c-11.6,0.6-20.8,1.1-25.7-0.3c-2.9-0.8-4.9-2.2-5.9-4.1c-1-1.8-0.8-3.7-0.7-4.6
				c1.6-0.7,3.2-1.9,4-3.7c1-2.2,3.2-4,5-5.1c-1.3,4.2,0,7,0,7.2l0.8,1.8l1-1.8c6-10.9,18.7-13.2,23.8-13.7
				c-3.1,4.3-4.2,9.9-4.2,10.2l-0.7,3.8l2.4-3c0,0,3.2-3.8,12.5-6.3c7.2-1.9,14-8.3,17.3-11.8c0.2,5.2,3.5,10.3,3.7,10.5l0.6,1
				l0.9-0.8c0.7-0.6,1.6-1.4,2.7-2.1C576.4,664.3,582.6,663.9,592.5,666.6z M654.2,470.7c-2,1.4-4.8,3.6-7.4,6.6l-1.4,1.6l2.2,0
				c0.2,0,19.3,0.5,30.3,13.3c-3.1-0.8-8-1.7-11.4-0.6l-4.8,1.4l5,0.5c0.7,0.1,15.3,1.9,19.7,25.9c-1.8-2.4-4.4-5.3-7.2-6.7
				l-2.7-1.4l1.3,2.7c0.1,0.3,13.7,29.6-9.5,72.1c-17.3,31.6-55.7,53.8-78.6,67.1c-7.9,4.6-14.2,8.2-17.7,11.1
				c-1.2-2.1-3.6-7-2.5-11.1l1.2-4.5l-2.9,3.6c-0.1,0.1-9.1,11-18.4,13.4c-5.4,1.4-8.9,3.3-10.9,4.7c0.8-2.4,2.2-5.7,4.4-8l1.7-1.7
				l-2.4,0c-0.8,0-17.8-0.1-26.5,12.6c-0.1-1.4,0.2-3.4,1.4-5.8l1.2-2.4l-2.5,1.1c-0.3,0.1-6.2,2.7-8.3,7.3c-1,2.2-3.7,3.1-5.7,3.5
				c4.5-4.8,15.7-18.1,23.2-37c6.1-15.5,22.5-47,41.6-73.4l0,0c0,0,0,0,0,0c13-18.1,26.3-32.8,39.5-41.7l0,0
				c-11.9,5.7-24.8,19-36.9,34.9c4.4-10.5,15.3-29.5,30.7-43.4l0,0c-23.5,15.1-34.2,46.7-35.1,49.4c-19.1,26.4-35.4,57.9-41.6,73.4
				c-9.3,23.5-24.5,38.1-24.6,38.3l-1.8,1.7h2.5c0.2,0,2,0,4.1-0.6c-0.1,1.2,0,2.8,0.9,4.5c-5.7,1.6-16.9-0.3-25.3-1.8
				c-1-0.2-2.1-0.4-3-0.5c-5.1-0.8-7-0.4-9.7,0.2c-2.4,0.5-5.3,1.2-11.7,1.3c-18.6,0.4-23.2-9.8-23.8-11.6
				c-1.2-4.8-3.8-11.4-8.8-16.4c1.5,0.2,3,0.3,4.4,0.1l2.5-0.2l-1.9-1.5c-0.3-0.2-26-21.2-29.1-38.4c-0.4-2-0.8-4.9-1.2-8.2
				c-1.9-13.7-5-36.8-13.9-57.2c0-0.1,0-0.2-0.1-0.3c-0.1-0.3-0.1-0.8-0.3-1.4c-0.2-1.2-0.6-2.9-1.2-5c-0.3-1-0.6-2.1-1-3.2
				c-0.4-1.1-0.8-2.3-1.3-3.6c-0.4-1.2-1.1-2.5-1.6-3.7c-0.6-1.2-1.2-2.5-1.9-3.7l-1.1-1.8l-0.5-0.9l-0.6-0.9
				c-0.8-1.1-1.5-2.3-2.4-3.3c-0.8-1-1.6-2-2.5-2.9c-0.9-0.8-1.6-1.7-2.4-2.4c-0.8-0.7-1.5-1.3-2.2-1.8c-0.7-0.5-1.3-0.9-1.8-1.2
				c-1-0.7-1.6-1.1-1.6-1.1s0.6,0.4,1.5,1.1c0.5,0.4,1.1,0.8,1.8,1.3c0.6,0.6,1.3,1.2,2.1,1.9c0.8,0.7,1.5,1.6,2.3,2.4
				c0.8,0.9,1.5,1.9,2.3,2.9c0.8,1,1.5,2.2,2.2,3.3l0.5,0.9l0.5,0.9l1,1.8c0.6,1.2,1.2,2.5,1.7,3.7c0.5,1.3,1,2.5,1.4,3.7
				c0.4,1.2,0.8,2.4,1.1,3.5c0.2,0.8,0.4,1.6,0.6,2.3c-8.4-16-20.8-29.3-39.8-33.2l0,0c41.9,11.5,51.5,71.8,55.1,97.8
				c0.5,3.5,0.9,6.2,1.2,8.3c2.8,15.1,21.4,32.3,27.8,37.8c-7.1-0.5-14.2-5.1-14.2-5.1l-1.7-1.1l0.1,2c0.2,3.1,4.2,6.9,6.9,9.2
				c-20.5-0.6-34-12.4-34.2-12.5l-2.7-2.4l1.1,3.5c0.8,2.4,2.7,5.2,4.2,7.2c-14.4-5.3-23.9-17-24-17.1l-1.4-1.8l-0.3,2.3
				c-0.8,5.4,4.1,16.3,6.6,21.3c-5.7-3-20.5-12.6-39.8-39.5c-24.8-34.6-28.3-57.6-28.3-57.8l-0.3-1.8l-1.4,1.1c-1.7,1.4-3,5-3.8,8.3
				c-1.1-18.1,4.3-36.8,4.4-37l0.6-2l-1.9,0.7c-3.1,1.2-7,5-9.2,7.4c2.1-29.5,18.7-41.3,18.9-41.4l2.2-1.5l-2.7-0.3
				c-3-0.3-6.7,0.6-9.1,1.5c16.4-23.8,49.6-17.3,50-17.2l4,0.8l-3.2-2.6c-2.8-2.3-6.9-4.4-10-5.9c31.8,1,47.4,17.4,58.8,29.5
				c1.5,1.6,3,3.1,4.4,4.5c12,12,39,65.3,48.2,95.2c11,35.8,25.5,39.4,26,39.6c0.2,0.1,6.1,1.7,12.4-2.3c7-4.5,11.6-14.1,13.7-28.4
				c3.1-22,20.9-90.3,59.8-115.1C593.9,470.5,618.8,469.2,654.2,470.7z M696.7,325.1c0,0.4-0.1,0.9-0.1,1.3
				c-0.1,2.7-3.1,8.5-21.7,17.2c-12.8,5.9-61.8,32.4-79.1,51.5c0.4-0.9,0.9-1.8,1.4-2.8c0.6-1.1,1.2-2.3,1.9-3.5
				c0.7-1.2,1.4-2.4,2.1-3.6c0.7-1.2,1.5-2.3,2.2-3.5c0.7-1.2,1.5-2.2,2.3-3.3c0.7-1.1,1.5-2,2.2-3c0.4-0.5,0.7-0.9,1.1-1.4
				c0.4-0.4,0.7-0.8,1-1.2c0.7-0.8,1.3-1.5,1.8-2.2c0.6-0.6,1.1-1.2,1.5-1.6c0.8-0.9,1.3-1.4,1.3-1.4s-0.5,0.5-1.4,1.3
				c-0.4,0.4-1,0.9-1.6,1.5c-0.6,0.6-1.2,1.3-1.9,2.1c-0.4,0.4-0.7,0.8-1.1,1.2c-0.4,0.4-0.7,0.9-1.1,1.3c-0.8,0.9-1.6,1.9-2.4,2.9
				c-0.8,1-1.7,2.1-2.4,3.2c-0.8,1.1-1.6,2.2-2.4,3.4c-0.8,1.1-1.5,2.3-2.3,3.5c-0.7,1.2-1.4,2.3-2.1,3.5c-1.3,2.3-2.5,4.4-3.4,6.3
				c-0.9,1.9-1.6,3.5-2.1,4.6c-0.2,0.6-0.4,1-0.6,1.3c-0.1,0.2-0.1,0.3-0.2,0.4c-9.1,21.6-6.1,68.2-5.7,73.3
				c-8.7,3.5-17.9,8.2-27.8,14.6c-39.6,25.3-57.6,94.3-60.7,116.5c-1.9,13.5-6.3,22.8-12.7,27c-5.5,3.6-10.7,2.1-10.8,2.1
				c-0.1,0-14-3.8-24.6-38.2c-6-19.3-21-52.2-34-74.7v-1.1c0-15,0-60.5-2-92.2c-2.1-32.7-11.9-43-12.2-43.5l0,0
				c0.1,0.1,6.9,9.8,9.6,36.3c-0.3-0.7-0.6-1.5-0.9-2.3c-0.4-0.9-0.8-1.9-1.3-2.8c-0.5-0.9-0.9-1.9-1.4-2.7c-0.5-0.9-1-1.8-1.6-2.5
				c-0.6-0.8-1.1-1.6-1.6-2.3c-0.6-0.7-1-1.4-1.6-1.9c-0.5-0.6-1-1.1-1.5-1.5c-0.5-0.4-0.9-0.8-1.2-1.1c-0.7-0.6-1.1-0.9-1.1-0.9
				s0.4,0.4,1,1c0.3,0.3,0.7,0.7,1.2,1.1c0.4,0.5,0.9,1,1.4,1.6c0.5,0.6,0.9,1.3,1.5,2c0.5,0.7,1,1.5,1.5,2.3
				c0.5,0.8,0.9,1.7,1.4,2.6c0.5,0.9,0.8,1.8,1.2,2.8c0.4,0.9,0.7,1.9,1.1,2.8c0.3,1,0.6,1.9,0.9,2.8c0.5,1.8,0.9,3.6,1.2,5.1
				c0.3,1.5,0.5,2.7,0.6,3.6c0,0.4,0.1,0.8,0.1,1c0,0.2,0,0.3,0,0.3c0.2,3.2,0.3,6.5,0.5,9.8c-4.5,6.7-13.3,16.4-18.1,21.7
				c0.5-6-2.3-18.3-24.9-36.6c-22.4-18.2-34-19.9-38.6-19.5c19.5-36.7,48.5-57.7,69.6-69c20.8-11.1,38.1-15.1,41.6-15.9
				c2.1,3.5,4.6,7.2,7.6,11c6.5,8.3,13.7,14,20.8,17.9c1.2,2.3,10.2,19.5,28.3,27.6c0.1,0.4,0.2,0.8,0.4,1.2
				c0.2,0.6,0.4,1.1,0.6,1.7l0.7,1.7l0.8,1.6c0.2,0.6,0.5,1.1,0.8,1.6c0.3,0.5,0.6,1.1,0.9,1.6l1,1.5c0.3,0.5,0.7,1,1.1,1.5
				c0.4,0.5,0.7,1,1.2,1.4l1.2,1.4l2.8,3l-1.1-4c-0.2-0.9-0.5-1.8-0.6-2.7c-0.2-0.9-0.4-1.9-0.5-2.8c-0.1-0.9-0.2-1.9-0.3-2.8
				c-0.1-0.9-0.1-1.9-0.1-2.8c0-0.1,0-0.3,0-0.4c3.5,0.8,7.2,1.2,11,1.2c2.4,0,4.8-0.2,7.3-0.5c29.8-4,31-41.2,31.1-45.2
				c8.2-8.2,15.5-19.2,20.3-32.8c0.8-2.2,1.4-4.3,2-6.3c3.8-1.2,27.6-9,46.6-23.1c5.8-4.3,10.3-7.9,13.9-10.8c9.1-7.2,12.4-9.9,17-9
				c6.8,1.3,28.1,14.4,36,35.9C697.4,313.9,697,320.7,696.7,325.1z M762.1,248.9L762.1,248.9c1.4,0.3,2.7,0.9,3.9,1.5
				c0.7,1.4,4.6,9.4,1.8,20.9c-0.8-2.5-2.2-5.4-5-7l-1.5-0.8l0,1.7c0,0.1-0.6,8-19.4,22.1c-7.7,5.8-15.5,11.4-22.4,16.3
				c-9.2,6.6-16.8,12-20.7,15.5c-0.4-4.9-1.8-12.5-6.7-25.6c-6.9-18.7-23.7-31.3-33.1-35.6c3.5-2.6,14.3-10.8,27.2-22.7
				c15.3-14.2,37.8-15.2,38-15.2l0,0c-0.7,0-13.5-0.6-26.6,5.3c0.3-0.3,0.7-0.7,1.1-1.1c0.6-0.5,1.1-1,1.8-1.5
				c0.3-0.2,0.6-0.5,1-0.7c0.3-0.2,0.7-0.5,1-0.7c0.7-0.5,1.5-0.9,2.2-1.3c0.8-0.4,1.5-0.7,2.3-1.1c0.8-0.3,1.6-0.6,2.3-0.9
				c0.8-0.2,1.5-0.4,2.2-0.7c0.7-0.2,1.4-0.3,2-0.5c0.6-0.1,1.2-0.3,1.7-0.3c0.5-0.1,1-0.1,1.4-0.2c0.8-0.1,1.2-0.1,1.2-0.1
				s-0.4,0-1.2,0.1c-0.4,0-0.8,0-1.4,0.1c-0.5,0-1.1,0.1-1.8,0.2c-0.6,0.1-1.4,0.1-2.1,0.3c-0.7,0.2-1.5,0.3-2.3,0.5
				c-0.8,0.2-1.6,0.5-2.4,0.7c-0.8,0.3-1.6,0.6-2.4,1c-0.8,0.4-1.6,0.7-2.4,1.2c-0.4,0.2-0.8,0.4-1.1,0.6c-0.4,0.2-0.7,0.5-1.1,0.7
				c-0.7,0.4-1.3,0.9-2,1.4c-0.6,0.5-1.2,0.9-1.6,1.4c-1,0.9-1.7,1.7-2.3,2.3c-0.3,0.3-0.5,0.6-0.6,0.7c0,0,0,0,0,0
				c-0.3,0.2-0.6,0.4-0.9,0.5c-11.5-4.2-21.6-12.4-32.2-21.2c-8.3-6.8-16.9-13.9-26.4-19.1c-20.9-11.4-49.3-22.4-67.5-26
				c-13-2.6-20.4-2.5-23.5-2.2c0.8-1.8,2.4-4.8,4.6-7.2c2.7-2.8,6.9-8.6,6-12.3c-0.2-0.9-0.9-2.1-2.7-2.7c-3.6-1.1-8.1,0.9-11,2.5
				c3.4-5.6,10.3-10.6,10.4-10.6l0,0c-0.2,0.1-3.1,1.3-6.2,3.5c5.2-10,19.6-9.9,20.2-9.8l0,0c-0.1,0-1.9-0.3-4.5-0.2
				c-0.8-1.3-3.5-5.6-4.9-11.2c-1.1-4.1-2.4-6.7-3.3-8.1c2.9,0.1,8.9,1.2,15.3,7.5c10,9.8,70,30.5,105.3,40
				c40.3,10.8,87.8,43.5,102,103C771.3,251.5,767,248.6,762.1,248.9z"/>
		</g>
		<g>
			<path class="st1" d="M446.2,194.6l-0.3-0.6c-0.1-0.2-7.2-16.8-27.8-18c-9.5-0.6-18.8,3.5-25.7,11.2c-7.2,8.1-10.4,18.7-8.7,28.5
				c3.2,18.1,22.3,29.3,39.5,31l1.5,0.2l-0.5-1.4c0-0.1-2.8-8.9-2.4-17.9c1.1,2.7,2.9,6.4,5.6,9.7l1.5,1.8l0.3-2.3
				c0-0.3,4.1-29.6,16.3-41.7L446.2,194.6z M427.7,234.1c-3.7-5.4-5.3-11.2-5.3-11.3l-1.1-4.4l-0.8,4.5c-1.6,8.7,0.6,18.2,1.5,21.7
				c-16.1-2.1-33.4-12.6-36.3-29.2c-1.6-9.2,1.4-19.2,8.2-26.8c6.1-6.8,14.2-10.6,22.5-10.6c0.5,0,1.1,0,1.6,0
				c17.2,1,24.4,13.3,25.8,16.2C433.4,204.9,429,226.8,427.7,234.1z"/>
		</g>
		<g>
			<path class="st1" d="M453.6,267.6c3.3,2.7,6.6,4.8,9.6,6.7c5.3,3.4,9.4,6.1,10,9.6c0.1,0.4,0.1,1.1,0.2,1.9
				c5.3,43.3,26.2,52.5,43.1,52.5c0.3,0,0.6,0,0.8,0c32.8-0.6,36.7-33.2,38.6-48.9c0.4-3.5,0.7-6.2,1.2-7.4c2.6-6.2,4.3-7.5,6.9-9.5
				l0.8-0.6c3.4-2.6,14.1-13,10.9-38.5c-1.6-12.7-6.1-20.9-13.3-24.2c-8.3-3.8-19.5-1.1-33.3,8c-0.5,0.2-6.7,3.2-14.6-1.7
				c-0.8-0.5-1.7-1.1-2.7-1.8c-9.8-6.5-28-18.6-50.7-3.3c-13.9,9.4-17.3,21.4-17.6,29.9C443,252.3,448.3,263.3,453.6,267.6z
				 M445.5,240.5c0.3-8,3.5-19.3,16.7-28.3c7.6-5.2,14.7-7,21.2-7c11.7,0,21.2,6.3,27.3,10.3c1,0.7,1.9,1.3,2.7,1.8
				c9.2,5.7,16.3,1.9,16.7,1.8l0.1,0c13-8.6,23.9-11.4,31.4-7.9c6.5,3,10.7,10.8,12.2,22.6c3,24.5-7,34.3-10.2,36.7l-0.7,0.6
				c-2.8,2.1-4.8,3.6-7.6,10.3c-0.6,1.4-0.9,4.2-1.4,7.9c-1.8,15.1-5.5,46.6-36.6,47.1c-0.3,0-0.6,0-0.9,0
				c-23.1,0-37-17.1-41.1-50.8c-0.1-0.8-0.2-1.5-0.3-1.9c-0.7-4.4-5.2-7.3-10.9-11c-2.9-1.9-6.2-4-9.4-6.6
				C449.9,262.1,445,251.8,445.5,240.5z"/>
		</g>
		<g>
			<path class="st1" d="M484.6,328.8c-0.5-0.6-1.1-1.4-1.7-2.1c-0.7-0.7-1.2-1.7-1.9-2.6c-0.7-0.9-1.3-2-1.9-3
				c-0.7-1-1.2-2.2-1.9-3.3c-0.6-1.1-1.2-2.3-1.7-3.5c-0.6-1.2-1-2.4-1.6-3.6c-0.4-1.2-1-2.4-1.3-3.6c-0.4-1.2-0.8-2.3-1.1-3.4
				c-0.4-1.1-0.7-2.1-0.9-3.1c-0.5-1.9-1-3.5-1.2-4.7c-0.3-1.1-0.4-1.8-0.4-1.8s0,0.7,0.2,1.8c0.2,1.2,0.4,2.8,0.9,4.8
				c0.4,1.9,1,4.2,1.8,6.6c0.4,1.2,0.8,2.4,1.3,3.6c0.5,1.2,1,2.5,1.6,3.7c0.6,1.2,1.1,2.4,1.8,3.6c0.6,1.2,1.3,2.3,2,3.3
				c0.7,1.1,1.3,2.1,2.1,3c0.7,0.9,1.3,1.8,2,2.5c0.7,0.7,1.3,1.4,1.8,2c0.6,0.6,1.1,1,1.6,1.4c0.9,0.8,1.4,1.2,1.4,1.2
				s-0.4-0.5-1.2-1.3C485.6,329.9,485.1,329.4,484.6,328.8z"/>
		</g>
		<g>
			<path class="st1" d="M465.9,204.2c0.7-0.2,1.4-0.5,2.2-0.8c0.8-0.3,1.7-0.6,2.7-0.8c0.9-0.3,2-0.5,3-0.7c1.1-0.2,2.1-0.4,3.3-0.6
				c1.1-0.1,2.3-0.3,3.4-0.3l1.7-0.1c0.6,0,1.1,0,1.7,0c0.6,0,1.1,0,1.7,0c0.5,0.1,1.1,0.1,1.6,0.2c0.5,0.1,1.1,0.1,1.6,0.2
				c0.5,0.1,1,0.2,1.5,0.3c0.5,0.1,1,0.2,1.4,0.3c0.4,0.1,0.9,0.3,1.3,0.4c0.8,0.3,1.6,0.4,2.3,0.7c0.7,0.3,1.2,0.5,1.7,0.7
				c1,0.4,1.5,0.6,1.5,0.6s-0.5-0.3-1.4-0.7c-0.5-0.2-1-0.5-1.6-0.8c-0.6-0.3-1.4-0.6-2.2-0.9c-0.4-0.1-0.8-0.3-1.3-0.5
				c-0.5-0.1-0.9-0.2-1.4-0.4c-0.5-0.1-1-0.2-1.5-0.4c-0.5-0.1-1.1-0.2-1.6-0.2c-0.5-0.1-1.1-0.1-1.7-0.2c-0.6-0.1-1.1-0.1-1.7-0.1
				c-0.6,0-1.2,0-1.7,0l-1.8,0.1c-1.2,0-2.3,0.2-3.5,0.4c-1.1,0.2-2.2,0.4-3.3,0.7c-1.1,0.3-2.1,0.6-3,0.9c-1,0.3-1.8,0.7-2.7,1
				c-0.8,0.3-1.5,0.7-2.2,1c-0.6,0.3-1.2,0.6-1.6,0.9c-0.9,0.5-1.4,0.8-1.4,0.8s0.5-0.3,1.5-0.7
				C464.6,204.7,465.2,204.5,465.9,204.2z"/>
		</g>
		<g>
			<path class="st1" d="M485.4,624.9c-0.9,1.5-2.1,3.1-3.6,4.6c-1.5,1.5-3.6,2.7-6,2.5c-2.4-0.2-4.6-1.7-6.5-3.6
				c-1.9-1.9-3.5-4.2-4.9-6.6c-0.7-1.2-1.4-2.5-2.1-3.7c-0.7-1.2-1.4-2.5-2-3.8l-1-1.9l-0.9-2c-0.6-1.3-1.2-2.6-1.8-3.9
				c-1.2-2.6-2.3-5.2-3.3-7.7c-1-2.5-1.9-5-2.8-7.3c-0.9-2.3-1.6-4.6-2.3-6.6c-1.4-4.1-2.5-7.6-3.2-10c-0.7-2.4-1.1-3.8-1.1-3.8
				s0.3,1.4,0.9,3.9c0.6,2.5,1.6,6,2.9,10.1c0.6,2.1,1.4,4.3,2.2,6.7c0.4,1.2,0.8,2.4,1.3,3.6c0.4,1.2,0.9,2.5,1.4,3.8
				c1,2.5,2.1,5.1,3.2,7.8c0.6,1.3,1.2,2.6,1.8,3.9l0.9,2l1,1.9c0.7,1.3,1.3,2.6,2.1,3.8c0.7,1.3,1.4,2.5,2.2,3.8
				c1.5,2.5,3.2,4.8,5.1,6.7c1.9,1.9,4.3,3.6,7,3.7c1.3,0.1,2.6-0.2,3.7-0.8c1.1-0.5,2-1.3,2.8-2.1c1.6-1.6,2.7-3.3,3.5-4.8
				c0.9-1.6,1.5-3,2-4.1c0.5-1.2,0.8-2.1,1.1-2.7c0.2-0.6,0.3-1,0.3-1s-0.5,1.4-1.6,3.7C487,622.1,486.3,623.4,485.4,624.9z"/>
		</g>
		<g>
			<path class="st1" d="M534.6,502.7c-0.5,0.5-1.1,1.1-1.7,1.7c-1.1,1.3-2.4,2.8-3.8,4.4c-0.7,0.8-1.3,1.7-2,2.6
				c-0.7,0.9-1.4,1.9-2.1,2.8c-0.4,0.5-0.7,1-1.1,1.5c-0.3,0.5-0.7,1-1,1.6c-0.7,1.1-1.4,2.2-2.1,3.3c-0.4,0.6-0.7,1.1-1.1,1.7
				c-0.3,0.6-0.7,1.2-1,1.8c-0.7,1.2-1.4,2.4-2.1,3.6c-1.4,2.4-2.7,5-4,7.5c-1.2,2.6-2.5,5.1-3.6,7.7c-1.1,2.6-2.2,5.1-3.2,7.5
				c-0.5,1.2-1,2.4-1.4,3.6c-0.4,1.2-0.9,2.4-1.3,3.5c-0.8,2.3-1.6,4.5-2.2,6.5c-1.3,4-2.3,7.4-2.9,9.8c-0.6,2.4-0.9,3.8-0.9,3.8
				s0.4-1.4,1.1-3.7c0.7-2.4,1.9-5.7,3.3-9.7c0.7-2,1.5-4.2,2.4-6.4c0.4-1.1,0.9-2.3,1.4-3.5c0.5-1.2,1-2.4,1.5-3.6
				c1-2.5,2.1-4.9,3.2-7.5c1.1-2.5,2.4-5.1,3.6-7.6c1.3-2.5,2.5-5,3.9-7.4c0.7-1.2,1.4-2.4,2-3.6c0.3-0.6,0.7-1.2,1-1.8
				c0.4-0.6,0.7-1.1,1.1-1.7c0.7-1.1,1.4-2.2,2.1-3.3c0.3-0.5,0.7-1.1,1-1.6c0.4-0.5,0.7-1,1.1-1.5c0.7-1,1.4-1.9,2-2.9
				c0.7-0.9,1.3-1.9,2-2.7c1.3-1.6,2.5-3.2,3.6-4.5c0.5-0.7,1.1-1.3,1.6-1.8c0.5-0.5,1-1,1.4-1.5c1.7-1.8,2.6-2.9,2.6-2.9
				s-1,1-2.8,2.7C535.6,501.7,535.1,502.1,534.6,502.7z"/>
		</g>
		<g>
			<path class="st1" d="M460.3,601.6c0.4,1.5,0.8,3.3,1.4,5.1c0.6,1.9,1.3,3.8,2.1,5.7c0.4,1,0.9,1.9,1.3,2.8c0.5,0.9,1,1.8,1.5,2.6
				c0.5,0.8,1.1,1.6,1.6,2.3c0.6,0.7,1.2,1.3,1.7,1.9c0.3,0.3,0.6,0.5,0.9,0.7c0.3,0.2,0.6,0.4,0.8,0.6c0.6,0.3,1,0.6,1.5,0.7
				c0.4,0.2,0.8,0.2,1,0.3c0.2,0.1,0.4,0.1,0.4,0.1s-0.1,0-0.3-0.1c-0.2-0.1-0.6-0.2-1-0.4c-0.4-0.2-0.9-0.5-1.3-0.9
				c-0.5-0.4-1-0.9-1.5-1.4c-0.5-0.6-1-1.2-1.5-1.9c-0.5-0.7-1-1.5-1.5-2.3c-0.5-0.8-0.9-1.7-1.4-2.6c-0.4-0.9-0.9-1.8-1.3-2.8
				c-0.8-1.9-1.5-3.8-2.2-5.6c-0.6-1.8-1.2-3.5-1.7-5c-0.5-1.5-0.9-2.7-1.1-3.6c-0.3-0.9-0.4-1.4-0.4-1.4s0.1,0.5,0.2,1.4
				C459.7,598.8,459.9,600.1,460.3,601.6z"/>
		</g>
		<g>
			<path class="st1" d="M570.7,567.3c-0.8,1.1-1.7,2.3-2.7,3.6c-1,1.3-2,2.8-3.1,4.3c-0.5,0.8-1.1,1.6-1.7,2.4
				c-0.5,0.8-1.1,1.7-1.7,2.5c-1.1,1.7-2.3,3.5-3.4,5.3c-1.2,1.8-2.3,3.7-3.4,5.5c-2.2,3.7-4.4,7.5-6.3,11.1c-1.9,3.6-3.7,7-5.1,9.9
				c-1.5,2.9-2.6,5.4-3.4,7.1c-0.8,1.7-1.2,2.7-1.2,2.7s2-3.9,5.1-9.6c0.8-1.4,1.6-3,2.5-4.6c0.9-1.6,1.9-3.3,2.9-5.1
				c2-3.5,4.2-7.3,6.4-11c1.1-1.9,2.2-3.7,3.4-5.5c1.1-1.8,2.2-3.6,3.3-5.3c1.1-1.7,2.2-3.4,3.2-4.9c1-1.6,2-3,2.9-4.4
				c0.9-1.3,1.8-2.6,2.5-3.7c0.8-1.1,1.4-2,2-2.8c1.1-1.6,1.7-2.4,1.7-2.4s-0.7,0.8-1.9,2.3C572.3,565.4,571.6,566.3,570.7,567.3z"
				/>
		</g>
		<g>
			<path class="st1" d="M363.5,532c0.5,0.5,1.2,1.1,1.8,1.8c0.7,0.7,1.4,1.6,2.2,2.6c1.5,1.9,3.1,4.3,4.7,6.9
				c0.8,1.3,1.5,2.7,2.3,4.1c0.7,1.4,1.4,2.9,2.1,4.4c1.4,3,2.7,6,3.7,8.9c1.1,2.9,2.1,5.6,2.9,7.9c0.8,2.3,1.4,4.3,1.8,5.7
				c0.4,1.4,0.6,2.2,0.6,2.2s-0.1-0.8-0.5-2.2c-0.3-1.4-0.8-3.4-1.5-5.8c-0.7-2.4-1.5-5.1-2.6-8c-1.1-2.9-2.3-6-3.6-9
				c-0.7-1.5-1.4-3-2.2-4.4c-0.8-1.4-1.6-2.8-2.4-4.2c-1.6-2.7-3.4-5-5-6.9c-0.8-0.9-1.6-1.8-2.3-2.5c-0.7-0.7-1.4-1.3-1.9-1.7
				c-0.5-0.5-1-0.8-1.3-1c-0.3-0.2-0.5-0.3-0.5-0.3s0.2,0.1,0.4,0.4C362.6,531.1,363,531.5,363.5,532z"/>
		</g>
		<g>
			<path class="st1" d="M471.7,367c1,1.3,2.2,2.6,3.4,3.8c1.2,1.2,2.5,2.4,3.8,3.5c0.6,0.5,1.2,1,1.9,1.5c0.6,0.4,1.2,0.9,1.7,1.2
				c0.6,0.4,1.1,0.7,1.5,0.9c0.5,0.3,0.9,0.5,1.2,0.7c0.7,0.3,1.1,0.5,1.1,0.5s-0.4-0.2-1-0.7c-0.3-0.2-0.7-0.4-1.1-0.8
				c-0.4-0.3-0.9-0.7-1.4-1.1c-0.5-0.4-1.1-0.8-1.6-1.3c-0.6-0.5-1.1-1-1.8-1.5c-1.2-1.1-2.5-2.3-3.7-3.5c-1.2-1.2-2.4-2.5-3.5-3.7
				c-1.1-1.2-2.1-2.4-2.9-3.4c-0.8-1-1.5-1.8-2-2.4c-0.5-0.6-0.7-0.9-0.7-0.9s0.9,1.5,2.4,3.6C469.8,364.5,470.7,365.8,471.7,367z"
				/>
		</g>
		<g>
			<path class="st1" d="M625.4,279.7c-0.3,0.3-0.7,0.5-1.1,0.8c-0.8,0.6-1.7,1.3-2.8,2c-1,0.7-2.2,1.5-3.4,2.2
				c-1.2,0.7-2.5,1.6-3.9,2.3c-1.4,0.8-2.7,1.6-4.2,2.4c-1.4,0.8-2.9,1.6-4.4,2.3c-2.9,1.6-5.9,3.1-8.8,4.4
				c-2.8,1.4-5.5,2.6-7.7,3.7c-2.3,1-4.2,1.9-5.5,2.5c-1.3,0.6-2.1,0.9-2.1,0.9s3.2-1.1,7.8-3.1c2.3-1,5-2.1,7.8-3.5
				c2.8-1.3,5.9-2.8,8.8-4.4c1.5-0.8,2.9-1.6,4.4-2.4c1.4-0.8,2.8-1.6,4.2-2.4c1.4-0.8,2.6-1.7,3.8-2.4c1.2-0.8,2.3-1.6,3.3-2.3
				c1-0.7,1.9-1.5,2.7-2.1c0.4-0.3,0.8-0.6,1.1-0.9c0.3-0.3,0.6-0.6,0.9-0.8c1.1-1,1.7-1.6,1.7-1.6s-0.6,0.5-1.8,1.5
				C626.1,279.1,625.8,279.4,625.4,279.7z"/>
		</g>
		<g>
			<path class="st1" d="M377.4,359.5c-0.2,0.1-0.5,0.3-0.8,0.4c-0.3,0.2-0.5,0.3-0.8,0.5c-1.1,0.7-2.3,1.5-3.6,2.4
				c-1.3,1-2.6,2-4.1,3.1c-1.4,1.1-2.8,2.5-4.3,3.8c-1.5,1.4-2.9,2.8-4.4,4.3c-1.4,1.5-2.9,3.1-4.3,4.6c-1.4,1.6-2.8,3.2-4.1,4.8
				c-1.3,1.6-2.6,3.2-3.8,4.8c-1.2,1.6-2.3,3.1-3.4,4.6c-1.1,1.5-2,2.9-2.9,4.2c-3.5,5.3-5.5,9-5.5,9s0.6-0.9,1.6-2.4
				c1-1.6,2.5-3.7,4.3-6.3c0.9-1.3,1.9-2.7,3-4.1c1.1-1.5,2.2-3,3.5-4.5c1.2-1.6,2.5-3.2,3.8-4.8c1.3-1.6,2.7-3.2,4.1-4.8
				c1.4-1.6,2.8-3.1,4.3-4.6c1.5-1.5,2.9-2.9,4.3-4.3c1.5-1.3,2.8-2.7,4.2-3.8c1.4-1.1,2.7-2.2,4-3.2c1.3-0.9,2.5-1.8,3.5-2.5
				c0.3-0.2,0.5-0.4,0.8-0.5c0.3-0.2,0.5-0.3,0.7-0.4c0.5-0.3,0.9-0.6,1.3-0.8c1.6-1,2.5-1.5,2.5-1.5s-0.9,0.5-2.6,1.4
				C378.3,359,377.9,359.3,377.4,359.5z"/>
		</g>
	</g>
	<g>
		<path class="st1" d="M128.9,685.5c0,1.1-0.9,2-2,2c-1.1,0-2-0.9-2-2s0.9-2,2-2C128,683.5,128.9,684.4,128.9,685.5z"/>
	</g>
	<g>
		<path class="st1" d="M141.4,685.5c0,1.1-0.9,2-2,2c-1.1,0-2-0.9-2-2s0.9-2,2-2C140.6,683.5,141.4,684.4,141.4,685.5z"/>
	</g>
	<g>
		<path class="st1" d="M157,685.5c0,1.1-2,2-4.5,2c-2.5,0-4.5-0.9-4.5-2s2-2,4.5-2C155,683.5,157,684.4,157,685.5z"/>
	</g>
	<g>
		<path class="st1" d="M343.3,687.5h-7.5c-1.1,0-2-0.9-2-2l0,0c0-1.1,0.9-2,2-2h7.5c1.1,0,2,0.9,2,2l0,0
			C345.2,686.6,344.3,687.5,343.3,687.5z"/>
	</g>
	<g>
		<path class="st1" d="M361.6,687.5h-7.5c-1.1,0-2-0.9-2-2l0,0c0-1.1,0.9-2,2-2h7.5c1.1,0,2,0.9,2,2l0,0
			C363.6,686.6,362.7,687.5,361.6,687.5z"/>
	</g>
</g>
</svg>
